%TF.GenerationSoftware,KiCad,Pcbnew,8.0.2-1*%
%TF.CreationDate,2024-09-06T21:09:21+10:00*%
%TF.ProjectId,ae-bbc-pcb,61652d62-6263-42d7-9063-622e6b696361,rev?*%
%TF.SameCoordinates,Original*%
%TF.FileFunction,Legend,Bot*%
%TF.FilePolarity,Positive*%
%FSLAX46Y46*%
G04 Gerber Fmt 4.6, Leading zero omitted, Abs format (unit mm)*
G04 Created by KiCad (PCBNEW 8.0.2-1) date 2024-09-06 21:09:21*
%MOMM*%
%LPD*%
G01*
G04 APERTURE LIST*
G04 Aperture macros list*
%AMRoundRect*
0 Rectangle with rounded corners*
0 $1 Rounding radius*
0 $2 $3 $4 $5 $6 $7 $8 $9 X,Y pos of 4 corners*
0 Add a 4 corners polygon primitive as box body*
4,1,4,$2,$3,$4,$5,$6,$7,$8,$9,$2,$3,0*
0 Add four circle primitives for the rounded corners*
1,1,$1+$1,$2,$3*
1,1,$1+$1,$4,$5*
1,1,$1+$1,$6,$7*
1,1,$1+$1,$8,$9*
0 Add four rect primitives between the rounded corners*
20,1,$1+$1,$2,$3,$4,$5,0*
20,1,$1+$1,$4,$5,$6,$7,0*
20,1,$1+$1,$6,$7,$8,$9,0*
20,1,$1+$1,$8,$9,$2,$3,0*%
G04 Aperture macros list end*
%ADD10R,2.000000X0.900000*%
%ADD11RoundRect,1.025000X1.025000X-1.025000X1.025000X1.025000X-1.025000X1.025000X-1.025000X-1.025000X0*%
%ADD12C,4.100000*%
%ADD13C,1.400000*%
%ADD14R,3.500000X3.500000*%
%ADD15C,3.500000*%
%ADD16C,5.600000*%
G04 APERTURE END LIST*
%LPC*%
D10*
%TO.C,J1*%
X137340000Y-148990000D03*
X137340000Y-135490000D03*
D11*
X143340000Y-145840000D03*
D12*
X143340000Y-138640000D03*
%TD*%
D13*
%TO.C,J4*%
X137204896Y-111466755D03*
X148204896Y-111466755D03*
D14*
X145204896Y-121466755D03*
D15*
X140204896Y-121466755D03*
%TD*%
D13*
%TO.C,J16*%
X259124895Y-111466754D03*
X270124895Y-111466754D03*
D14*
X267124895Y-121466754D03*
D15*
X262124895Y-121466754D03*
%TD*%
D13*
%TO.C,J15*%
X270072224Y-172580160D03*
X259072224Y-172580160D03*
D14*
X262072224Y-162580160D03*
D15*
X267072224Y-162580160D03*
%TD*%
D13*
%TO.C,J14*%
X238804896Y-111466755D03*
X249804896Y-111466755D03*
D14*
X246804896Y-121466755D03*
D15*
X241804896Y-121466755D03*
%TD*%
D13*
%TO.C,J13*%
X249752224Y-172580160D03*
X238752224Y-172580160D03*
D14*
X241752224Y-162580160D03*
D15*
X246752224Y-162580160D03*
%TD*%
D13*
%TO.C,J12*%
X218484895Y-111466755D03*
X229484895Y-111466755D03*
D14*
X226484895Y-121466755D03*
D15*
X221484895Y-121466755D03*
%TD*%
D13*
%TO.C,J11*%
X229432225Y-172580159D03*
X218432225Y-172580159D03*
D14*
X221432225Y-162580159D03*
D15*
X226432225Y-162580159D03*
%TD*%
D13*
%TO.C,J10*%
X198164896Y-111466754D03*
X209164896Y-111466754D03*
D14*
X206164896Y-121466754D03*
D15*
X201164896Y-121466754D03*
%TD*%
D13*
%TO.C,J9*%
X209112224Y-172580159D03*
X198112224Y-172580159D03*
D14*
X201112224Y-162580159D03*
D15*
X206112224Y-162580159D03*
%TD*%
D13*
%TO.C,J8*%
X177844895Y-111466754D03*
X188844895Y-111466754D03*
D14*
X185844895Y-121466754D03*
D15*
X180844895Y-121466754D03*
%TD*%
D13*
%TO.C,J7*%
X188792225Y-172580160D03*
X177792225Y-172580160D03*
D14*
X180792225Y-162580160D03*
D15*
X185792225Y-162580160D03*
%TD*%
D13*
%TO.C,J6*%
X157524896Y-111466755D03*
X168524896Y-111466755D03*
D14*
X165524896Y-121466755D03*
D15*
X160524896Y-121466755D03*
%TD*%
D13*
%TO.C,J5*%
X168472224Y-172580160D03*
X157472224Y-172580160D03*
D14*
X160472224Y-162580160D03*
D15*
X165472224Y-162580160D03*
%TD*%
D13*
%TO.C,J3*%
X148152225Y-172580159D03*
X137152225Y-172580159D03*
D14*
X140152225Y-162580159D03*
D15*
X145152225Y-162580159D03*
%TD*%
D13*
%TO.C,J2*%
X269755000Y-136740000D03*
X269755000Y-147740000D03*
D14*
X259755000Y-144740000D03*
D15*
X259755000Y-139740000D03*
%TD*%
D16*
%TO.C,H2*%
X255270000Y-129540000D03*
%TD*%
%TO.C,H4*%
X255270000Y-154940000D03*
%TD*%
%TO.C,H1*%
X153670000Y-129540000D03*
%TD*%
%TO.C,H3*%
X153670000Y-154940000D03*
%TD*%
%LPD*%
M02*
