%TF.GenerationSoftware,KiCad,Pcbnew,8.0.2-1*%
%TF.CreationDate,2024-09-06T21:09:21+10:00*%
%TF.ProjectId,ae-bbc-pcb,61652d62-6263-42d7-9063-622e6b696361,rev?*%
%TF.SameCoordinates,Original*%
%TF.FileFunction,Copper,L2,Bot*%
%TF.FilePolarity,Positive*%
%FSLAX46Y46*%
G04 Gerber Fmt 4.6, Leading zero omitted, Abs format (unit mm)*
G04 Created by KiCad (PCBNEW 8.0.2-1) date 2024-09-06 21:09:21*
%MOMM*%
%LPD*%
G01*
G04 APERTURE LIST*
G04 Aperture macros list*
%AMRoundRect*
0 Rectangle with rounded corners*
0 $1 Rounding radius*
0 $2 $3 $4 $5 $6 $7 $8 $9 X,Y pos of 4 corners*
0 Add a 4 corners polygon primitive as box body*
4,1,4,$2,$3,$4,$5,$6,$7,$8,$9,$2,$3,0*
0 Add four circle primitives for the rounded corners*
1,1,$1+$1,$2,$3*
1,1,$1+$1,$4,$5*
1,1,$1+$1,$6,$7*
1,1,$1+$1,$8,$9*
0 Add four rect primitives between the rounded corners*
20,1,$1+$1,$2,$3,$4,$5,0*
20,1,$1+$1,$4,$5,$6,$7,0*
20,1,$1+$1,$6,$7,$8,$9,0*
20,1,$1+$1,$8,$9,$2,$3,0*%
G04 Aperture macros list end*
%TA.AperFunction,ComponentPad*%
%ADD10R,2.000000X0.900000*%
%TD*%
%TA.AperFunction,ComponentPad*%
%ADD11RoundRect,1.025000X1.025000X-1.025000X1.025000X1.025000X-1.025000X1.025000X-1.025000X-1.025000X0*%
%TD*%
%TA.AperFunction,ComponentPad*%
%ADD12C,4.100000*%
%TD*%
%TA.AperFunction,ComponentPad*%
%ADD13C,1.400000*%
%TD*%
%TA.AperFunction,ComponentPad*%
%ADD14R,3.500000X3.500000*%
%TD*%
%TA.AperFunction,ComponentPad*%
%ADD15C,3.500000*%
%TD*%
%TA.AperFunction,ComponentPad*%
%ADD16C,5.600000*%
%TD*%
G04 APERTURE END LIST*
D10*
%TO.P,J1,*%
%TO.N,*%
X137340000Y-148990000D03*
X137340000Y-135490000D03*
D11*
%TO.P,J1,1,Pin_1*%
%TO.N,Net-(J1-Pin_1)*%
X143340000Y-145840000D03*
D12*
%TO.P,J1,2,Pin_2*%
%TO.N,Net-(J1-Pin_2)*%
X143340000Y-138640000D03*
%TD*%
D13*
%TO.P,J4,*%
%TO.N,*%
X137204896Y-111466755D03*
X148204896Y-111466755D03*
D14*
%TO.P,J4,1,Pin_1*%
%TO.N,Net-(J1-Pin_1)*%
X145204896Y-121466755D03*
D15*
%TO.P,J4,2,Pin_2*%
%TO.N,Net-(J1-Pin_2)*%
X140204896Y-121466755D03*
%TD*%
D13*
%TO.P,J16,*%
%TO.N,*%
X259124895Y-111466754D03*
X270124895Y-111466754D03*
D14*
%TO.P,J16,1,Pin_1*%
%TO.N,Net-(J1-Pin_1)*%
X267124895Y-121466754D03*
D15*
%TO.P,J16,2,Pin_2*%
%TO.N,Net-(J1-Pin_2)*%
X262124895Y-121466754D03*
%TD*%
D13*
%TO.P,J15,*%
%TO.N,*%
X270072224Y-172580160D03*
X259072224Y-172580160D03*
D14*
%TO.P,J15,1,Pin_1*%
%TO.N,Net-(J1-Pin_1)*%
X262072224Y-162580160D03*
D15*
%TO.P,J15,2,Pin_2*%
%TO.N,Net-(J1-Pin_2)*%
X267072224Y-162580160D03*
%TD*%
D13*
%TO.P,J14,*%
%TO.N,*%
X238804896Y-111466755D03*
X249804896Y-111466755D03*
D14*
%TO.P,J14,1,Pin_1*%
%TO.N,Net-(J1-Pin_1)*%
X246804896Y-121466755D03*
D15*
%TO.P,J14,2,Pin_2*%
%TO.N,Net-(J1-Pin_2)*%
X241804896Y-121466755D03*
%TD*%
D13*
%TO.P,J13,*%
%TO.N,*%
X249752224Y-172580160D03*
X238752224Y-172580160D03*
D14*
%TO.P,J13,1,Pin_1*%
%TO.N,Net-(J1-Pin_1)*%
X241752224Y-162580160D03*
D15*
%TO.P,J13,2,Pin_2*%
%TO.N,Net-(J1-Pin_2)*%
X246752224Y-162580160D03*
%TD*%
D13*
%TO.P,J12,*%
%TO.N,*%
X218484895Y-111466755D03*
X229484895Y-111466755D03*
D14*
%TO.P,J12,1,Pin_1*%
%TO.N,Net-(J1-Pin_1)*%
X226484895Y-121466755D03*
D15*
%TO.P,J12,2,Pin_2*%
%TO.N,Net-(J1-Pin_2)*%
X221484895Y-121466755D03*
%TD*%
D13*
%TO.P,J11,*%
%TO.N,*%
X229432225Y-172580159D03*
X218432225Y-172580159D03*
D14*
%TO.P,J11,1,Pin_1*%
%TO.N,Net-(J1-Pin_1)*%
X221432225Y-162580159D03*
D15*
%TO.P,J11,2,Pin_2*%
%TO.N,Net-(J1-Pin_2)*%
X226432225Y-162580159D03*
%TD*%
D13*
%TO.P,J10,*%
%TO.N,*%
X198164896Y-111466754D03*
X209164896Y-111466754D03*
D14*
%TO.P,J10,1,Pin_1*%
%TO.N,Net-(J1-Pin_1)*%
X206164896Y-121466754D03*
D15*
%TO.P,J10,2,Pin_2*%
%TO.N,Net-(J1-Pin_2)*%
X201164896Y-121466754D03*
%TD*%
D13*
%TO.P,J9,*%
%TO.N,*%
X209112224Y-172580159D03*
X198112224Y-172580159D03*
D14*
%TO.P,J9,1,Pin_1*%
%TO.N,Net-(J1-Pin_1)*%
X201112224Y-162580159D03*
D15*
%TO.P,J9,2,Pin_2*%
%TO.N,Net-(J1-Pin_2)*%
X206112224Y-162580159D03*
%TD*%
D13*
%TO.P,J8,*%
%TO.N,*%
X177844895Y-111466754D03*
X188844895Y-111466754D03*
D14*
%TO.P,J8,1,Pin_1*%
%TO.N,Net-(J1-Pin_1)*%
X185844895Y-121466754D03*
D15*
%TO.P,J8,2,Pin_2*%
%TO.N,Net-(J1-Pin_2)*%
X180844895Y-121466754D03*
%TD*%
D13*
%TO.P,J7,*%
%TO.N,*%
X188792225Y-172580160D03*
X177792225Y-172580160D03*
D14*
%TO.P,J7,1,Pin_1*%
%TO.N,Net-(J1-Pin_1)*%
X180792225Y-162580160D03*
D15*
%TO.P,J7,2,Pin_2*%
%TO.N,Net-(J1-Pin_2)*%
X185792225Y-162580160D03*
%TD*%
D13*
%TO.P,J6,*%
%TO.N,*%
X157524896Y-111466755D03*
X168524896Y-111466755D03*
D14*
%TO.P,J6,1,Pin_1*%
%TO.N,Net-(J1-Pin_1)*%
X165524896Y-121466755D03*
D15*
%TO.P,J6,2,Pin_2*%
%TO.N,Net-(J1-Pin_2)*%
X160524896Y-121466755D03*
%TD*%
D13*
%TO.P,J5,*%
%TO.N,*%
X168472224Y-172580160D03*
X157472224Y-172580160D03*
D14*
%TO.P,J5,1,Pin_1*%
%TO.N,Net-(J1-Pin_1)*%
X160472224Y-162580160D03*
D15*
%TO.P,J5,2,Pin_2*%
%TO.N,Net-(J1-Pin_2)*%
X165472224Y-162580160D03*
%TD*%
D13*
%TO.P,J3,*%
%TO.N,*%
X148152225Y-172580159D03*
X137152225Y-172580159D03*
D14*
%TO.P,J3,1,Pin_1*%
%TO.N,Net-(J1-Pin_1)*%
X140152225Y-162580159D03*
D15*
%TO.P,J3,2,Pin_2*%
%TO.N,Net-(J1-Pin_2)*%
X145152225Y-162580159D03*
%TD*%
D13*
%TO.P,J2,*%
%TO.N,*%
X269755000Y-136740000D03*
X269755000Y-147740000D03*
D14*
%TO.P,J2,1,Pin_1*%
%TO.N,Net-(J1-Pin_1)*%
X259755000Y-144740000D03*
D15*
%TO.P,J2,2,Pin_2*%
%TO.N,Net-(J1-Pin_2)*%
X259755000Y-139740000D03*
%TD*%
D16*
%TO.P,H2,1*%
%TO.N,N/C*%
X255270000Y-129540000D03*
%TD*%
%TO.P,H4,1*%
%TO.N,N/C*%
X255270000Y-154940000D03*
%TD*%
%TO.P,H1,1*%
%TO.N,N/C*%
X153670000Y-129540000D03*
%TD*%
%TO.P,H3,1*%
%TO.N,N/C*%
X153670000Y-154940000D03*
%TD*%
%TA.AperFunction,Conductor*%
%TO.N,Net-(J1-Pin_2)*%
G36*
X272276539Y-109328000D02*
G01*
X272322294Y-109380804D01*
X272333500Y-109432315D01*
X272333500Y-174495660D01*
X272313815Y-174562699D01*
X272261011Y-174608454D01*
X272209500Y-174619660D01*
X135028500Y-174619660D01*
X134961461Y-174599975D01*
X134915706Y-174547171D01*
X134904500Y-174495660D01*
X134904500Y-172580158D01*
X135946582Y-172580158D01*
X135946582Y-172580159D01*
X135967109Y-172801694D01*
X135967110Y-172801696D01*
X136027994Y-173015682D01*
X136028000Y-173015697D01*
X136127163Y-173214842D01*
X136127168Y-173214850D01*
X136261245Y-173392397D01*
X136425662Y-173542282D01*
X136425664Y-173542284D01*
X136614820Y-173659404D01*
X136614821Y-173659404D01*
X136614824Y-173659406D01*
X136822285Y-173739777D01*
X137040982Y-173780659D01*
X137040984Y-173780659D01*
X137263466Y-173780659D01*
X137263468Y-173780659D01*
X137482165Y-173739777D01*
X137689626Y-173659406D01*
X137878787Y-173542283D01*
X138043206Y-173392395D01*
X138177283Y-173214848D01*
X138276454Y-173015687D01*
X138337340Y-172801695D01*
X138357868Y-172580159D01*
X138357868Y-172580158D01*
X146946582Y-172580158D01*
X146946582Y-172580159D01*
X146967109Y-172801694D01*
X146967110Y-172801696D01*
X147027994Y-173015682D01*
X147028000Y-173015697D01*
X147127163Y-173214842D01*
X147127168Y-173214850D01*
X147261245Y-173392397D01*
X147425662Y-173542282D01*
X147425664Y-173542284D01*
X147614820Y-173659404D01*
X147614821Y-173659404D01*
X147614824Y-173659406D01*
X147822285Y-173739777D01*
X148040982Y-173780659D01*
X148040984Y-173780659D01*
X148263466Y-173780659D01*
X148263468Y-173780659D01*
X148482165Y-173739777D01*
X148689626Y-173659406D01*
X148878787Y-173542283D01*
X149043206Y-173392395D01*
X149177283Y-173214848D01*
X149276454Y-173015687D01*
X149337340Y-172801695D01*
X149357868Y-172580159D01*
X156266581Y-172580159D01*
X156266581Y-172580160D01*
X156287108Y-172801695D01*
X156287109Y-172801697D01*
X156347993Y-173015683D01*
X156347999Y-173015698D01*
X156447162Y-173214843D01*
X156447167Y-173214851D01*
X156581244Y-173392398D01*
X156745661Y-173542283D01*
X156745663Y-173542285D01*
X156934819Y-173659405D01*
X156934820Y-173659405D01*
X156934823Y-173659407D01*
X157142284Y-173739778D01*
X157360981Y-173780660D01*
X157360983Y-173780660D01*
X157583465Y-173780660D01*
X157583467Y-173780660D01*
X157802164Y-173739778D01*
X158009625Y-173659407D01*
X158198786Y-173542284D01*
X158363205Y-173392396D01*
X158497282Y-173214849D01*
X158596453Y-173015688D01*
X158657339Y-172801696D01*
X158677867Y-172580160D01*
X158677867Y-172580159D01*
X167266581Y-172580159D01*
X167266581Y-172580160D01*
X167287108Y-172801695D01*
X167287109Y-172801697D01*
X167347993Y-173015683D01*
X167347999Y-173015698D01*
X167447162Y-173214843D01*
X167447167Y-173214851D01*
X167581244Y-173392398D01*
X167745661Y-173542283D01*
X167745663Y-173542285D01*
X167934819Y-173659405D01*
X167934820Y-173659405D01*
X167934823Y-173659407D01*
X168142284Y-173739778D01*
X168360981Y-173780660D01*
X168360983Y-173780660D01*
X168583465Y-173780660D01*
X168583467Y-173780660D01*
X168802164Y-173739778D01*
X169009625Y-173659407D01*
X169198786Y-173542284D01*
X169363205Y-173392396D01*
X169497282Y-173214849D01*
X169596453Y-173015688D01*
X169657339Y-172801696D01*
X169677867Y-172580160D01*
X169677867Y-172580159D01*
X176586582Y-172580159D01*
X176586582Y-172580160D01*
X176607109Y-172801695D01*
X176607110Y-172801697D01*
X176667994Y-173015683D01*
X176668000Y-173015698D01*
X176767163Y-173214843D01*
X176767168Y-173214851D01*
X176901245Y-173392398D01*
X177065662Y-173542283D01*
X177065664Y-173542285D01*
X177254820Y-173659405D01*
X177254821Y-173659405D01*
X177254824Y-173659407D01*
X177462285Y-173739778D01*
X177680982Y-173780660D01*
X177680984Y-173780660D01*
X177903466Y-173780660D01*
X177903468Y-173780660D01*
X178122165Y-173739778D01*
X178329626Y-173659407D01*
X178518787Y-173542284D01*
X178683206Y-173392396D01*
X178817283Y-173214849D01*
X178916454Y-173015688D01*
X178977340Y-172801696D01*
X178997868Y-172580160D01*
X178997868Y-172580159D01*
X187586582Y-172580159D01*
X187586582Y-172580160D01*
X187607109Y-172801695D01*
X187607110Y-172801697D01*
X187667994Y-173015683D01*
X187668000Y-173015698D01*
X187767163Y-173214843D01*
X187767168Y-173214851D01*
X187901245Y-173392398D01*
X188065662Y-173542283D01*
X188065664Y-173542285D01*
X188254820Y-173659405D01*
X188254821Y-173659405D01*
X188254824Y-173659407D01*
X188462285Y-173739778D01*
X188680982Y-173780660D01*
X188680984Y-173780660D01*
X188903466Y-173780660D01*
X188903468Y-173780660D01*
X189122165Y-173739778D01*
X189329626Y-173659407D01*
X189518787Y-173542284D01*
X189683206Y-173392396D01*
X189817283Y-173214849D01*
X189916454Y-173015688D01*
X189977340Y-172801696D01*
X189997868Y-172580160D01*
X189997868Y-172580158D01*
X196906581Y-172580158D01*
X196906581Y-172580159D01*
X196927108Y-172801694D01*
X196927109Y-172801696D01*
X196987993Y-173015682D01*
X196987999Y-173015697D01*
X197087162Y-173214842D01*
X197087167Y-173214850D01*
X197221244Y-173392397D01*
X197385661Y-173542282D01*
X197385663Y-173542284D01*
X197574819Y-173659404D01*
X197574820Y-173659404D01*
X197574823Y-173659406D01*
X197782284Y-173739777D01*
X198000981Y-173780659D01*
X198000983Y-173780659D01*
X198223465Y-173780659D01*
X198223467Y-173780659D01*
X198442164Y-173739777D01*
X198649625Y-173659406D01*
X198838786Y-173542283D01*
X199003205Y-173392395D01*
X199137282Y-173214848D01*
X199236453Y-173015687D01*
X199297339Y-172801695D01*
X199317867Y-172580159D01*
X199317867Y-172580158D01*
X207906581Y-172580158D01*
X207906581Y-172580159D01*
X207927108Y-172801694D01*
X207927109Y-172801696D01*
X207987993Y-173015682D01*
X207987999Y-173015697D01*
X208087162Y-173214842D01*
X208087167Y-173214850D01*
X208221244Y-173392397D01*
X208385661Y-173542282D01*
X208385663Y-173542284D01*
X208574819Y-173659404D01*
X208574820Y-173659404D01*
X208574823Y-173659406D01*
X208782284Y-173739777D01*
X209000981Y-173780659D01*
X209000983Y-173780659D01*
X209223465Y-173780659D01*
X209223467Y-173780659D01*
X209442164Y-173739777D01*
X209649625Y-173659406D01*
X209838786Y-173542283D01*
X210003205Y-173392395D01*
X210137282Y-173214848D01*
X210236453Y-173015687D01*
X210297339Y-172801695D01*
X210317867Y-172580159D01*
X210317867Y-172580158D01*
X217226582Y-172580158D01*
X217226582Y-172580159D01*
X217247109Y-172801694D01*
X217247110Y-172801696D01*
X217307994Y-173015682D01*
X217308000Y-173015697D01*
X217407163Y-173214842D01*
X217407168Y-173214850D01*
X217541245Y-173392397D01*
X217705662Y-173542282D01*
X217705664Y-173542284D01*
X217894820Y-173659404D01*
X217894821Y-173659404D01*
X217894824Y-173659406D01*
X218102285Y-173739777D01*
X218320982Y-173780659D01*
X218320984Y-173780659D01*
X218543466Y-173780659D01*
X218543468Y-173780659D01*
X218762165Y-173739777D01*
X218969626Y-173659406D01*
X219158787Y-173542283D01*
X219323206Y-173392395D01*
X219457283Y-173214848D01*
X219556454Y-173015687D01*
X219617340Y-172801695D01*
X219637868Y-172580159D01*
X219637868Y-172580158D01*
X228226582Y-172580158D01*
X228226582Y-172580159D01*
X228247109Y-172801694D01*
X228247110Y-172801696D01*
X228307994Y-173015682D01*
X228308000Y-173015697D01*
X228407163Y-173214842D01*
X228407168Y-173214850D01*
X228541245Y-173392397D01*
X228705662Y-173542282D01*
X228705664Y-173542284D01*
X228894820Y-173659404D01*
X228894821Y-173659404D01*
X228894824Y-173659406D01*
X229102285Y-173739777D01*
X229320982Y-173780659D01*
X229320984Y-173780659D01*
X229543466Y-173780659D01*
X229543468Y-173780659D01*
X229762165Y-173739777D01*
X229969626Y-173659406D01*
X230158787Y-173542283D01*
X230323206Y-173392395D01*
X230457283Y-173214848D01*
X230556454Y-173015687D01*
X230617340Y-172801695D01*
X230637868Y-172580159D01*
X237546581Y-172580159D01*
X237546581Y-172580160D01*
X237567108Y-172801695D01*
X237567109Y-172801697D01*
X237627993Y-173015683D01*
X237627999Y-173015698D01*
X237727162Y-173214843D01*
X237727167Y-173214851D01*
X237861244Y-173392398D01*
X238025661Y-173542283D01*
X238025663Y-173542285D01*
X238214819Y-173659405D01*
X238214820Y-173659405D01*
X238214823Y-173659407D01*
X238422284Y-173739778D01*
X238640981Y-173780660D01*
X238640983Y-173780660D01*
X238863465Y-173780660D01*
X238863467Y-173780660D01*
X239082164Y-173739778D01*
X239289625Y-173659407D01*
X239478786Y-173542284D01*
X239643205Y-173392396D01*
X239777282Y-173214849D01*
X239876453Y-173015688D01*
X239937339Y-172801696D01*
X239957867Y-172580160D01*
X239957867Y-172580159D01*
X248546581Y-172580159D01*
X248546581Y-172580160D01*
X248567108Y-172801695D01*
X248567109Y-172801697D01*
X248627993Y-173015683D01*
X248627999Y-173015698D01*
X248727162Y-173214843D01*
X248727167Y-173214851D01*
X248861244Y-173392398D01*
X249025661Y-173542283D01*
X249025663Y-173542285D01*
X249214819Y-173659405D01*
X249214820Y-173659405D01*
X249214823Y-173659407D01*
X249422284Y-173739778D01*
X249640981Y-173780660D01*
X249640983Y-173780660D01*
X249863465Y-173780660D01*
X249863467Y-173780660D01*
X250082164Y-173739778D01*
X250289625Y-173659407D01*
X250478786Y-173542284D01*
X250643205Y-173392396D01*
X250777282Y-173214849D01*
X250876453Y-173015688D01*
X250937339Y-172801696D01*
X250957867Y-172580160D01*
X250957867Y-172580159D01*
X257866581Y-172580159D01*
X257866581Y-172580160D01*
X257887108Y-172801695D01*
X257887109Y-172801697D01*
X257947993Y-173015683D01*
X257947999Y-173015698D01*
X258047162Y-173214843D01*
X258047167Y-173214851D01*
X258181244Y-173392398D01*
X258345661Y-173542283D01*
X258345663Y-173542285D01*
X258534819Y-173659405D01*
X258534820Y-173659405D01*
X258534823Y-173659407D01*
X258742284Y-173739778D01*
X258960981Y-173780660D01*
X258960983Y-173780660D01*
X259183465Y-173780660D01*
X259183467Y-173780660D01*
X259402164Y-173739778D01*
X259609625Y-173659407D01*
X259798786Y-173542284D01*
X259963205Y-173392396D01*
X260097282Y-173214849D01*
X260196453Y-173015688D01*
X260257339Y-172801696D01*
X260277867Y-172580160D01*
X260277867Y-172580159D01*
X268866581Y-172580159D01*
X268866581Y-172580160D01*
X268887108Y-172801695D01*
X268887109Y-172801697D01*
X268947993Y-173015683D01*
X268947999Y-173015698D01*
X269047162Y-173214843D01*
X269047167Y-173214851D01*
X269181244Y-173392398D01*
X269345661Y-173542283D01*
X269345663Y-173542285D01*
X269534819Y-173659405D01*
X269534820Y-173659405D01*
X269534823Y-173659407D01*
X269742284Y-173739778D01*
X269960981Y-173780660D01*
X269960983Y-173780660D01*
X270183465Y-173780660D01*
X270183467Y-173780660D01*
X270402164Y-173739778D01*
X270609625Y-173659407D01*
X270798786Y-173542284D01*
X270963205Y-173392396D01*
X271097282Y-173214849D01*
X271196453Y-173015688D01*
X271257339Y-172801696D01*
X271277867Y-172580160D01*
X271257339Y-172358624D01*
X271196453Y-172144632D01*
X271196448Y-172144621D01*
X271097285Y-171945476D01*
X271097280Y-171945468D01*
X270963203Y-171767921D01*
X270798786Y-171618036D01*
X270798784Y-171618034D01*
X270609628Y-171500914D01*
X270609622Y-171500912D01*
X270402164Y-171420542D01*
X270183467Y-171379660D01*
X269960981Y-171379660D01*
X269742284Y-171420542D01*
X269611088Y-171471367D01*
X269534825Y-171500912D01*
X269534819Y-171500914D01*
X269345663Y-171618034D01*
X269345661Y-171618036D01*
X269181244Y-171767921D01*
X269047167Y-171945468D01*
X269047162Y-171945476D01*
X268947999Y-172144621D01*
X268947993Y-172144636D01*
X268887109Y-172358622D01*
X268887108Y-172358624D01*
X268866581Y-172580159D01*
X260277867Y-172580159D01*
X260257339Y-172358624D01*
X260196453Y-172144632D01*
X260196448Y-172144621D01*
X260097285Y-171945476D01*
X260097280Y-171945468D01*
X259963203Y-171767921D01*
X259798786Y-171618036D01*
X259798784Y-171618034D01*
X259609628Y-171500914D01*
X259609622Y-171500912D01*
X259402164Y-171420542D01*
X259183467Y-171379660D01*
X258960981Y-171379660D01*
X258742284Y-171420542D01*
X258611088Y-171471367D01*
X258534825Y-171500912D01*
X258534819Y-171500914D01*
X258345663Y-171618034D01*
X258345661Y-171618036D01*
X258181244Y-171767921D01*
X258047167Y-171945468D01*
X258047162Y-171945476D01*
X257947999Y-172144621D01*
X257947993Y-172144636D01*
X257887109Y-172358622D01*
X257887108Y-172358624D01*
X257866581Y-172580159D01*
X250957867Y-172580159D01*
X250937339Y-172358624D01*
X250876453Y-172144632D01*
X250876448Y-172144621D01*
X250777285Y-171945476D01*
X250777280Y-171945468D01*
X250643203Y-171767921D01*
X250478786Y-171618036D01*
X250478784Y-171618034D01*
X250289628Y-171500914D01*
X250289622Y-171500912D01*
X250082164Y-171420542D01*
X249863467Y-171379660D01*
X249640981Y-171379660D01*
X249422284Y-171420542D01*
X249291088Y-171471367D01*
X249214825Y-171500912D01*
X249214819Y-171500914D01*
X249025663Y-171618034D01*
X249025661Y-171618036D01*
X248861244Y-171767921D01*
X248727167Y-171945468D01*
X248727162Y-171945476D01*
X248627999Y-172144621D01*
X248627993Y-172144636D01*
X248567109Y-172358622D01*
X248567108Y-172358624D01*
X248546581Y-172580159D01*
X239957867Y-172580159D01*
X239937339Y-172358624D01*
X239876453Y-172144632D01*
X239876448Y-172144621D01*
X239777285Y-171945476D01*
X239777280Y-171945468D01*
X239643203Y-171767921D01*
X239478786Y-171618036D01*
X239478784Y-171618034D01*
X239289628Y-171500914D01*
X239289622Y-171500912D01*
X239082164Y-171420542D01*
X238863467Y-171379660D01*
X238640981Y-171379660D01*
X238422284Y-171420542D01*
X238291088Y-171471367D01*
X238214825Y-171500912D01*
X238214819Y-171500914D01*
X238025663Y-171618034D01*
X238025661Y-171618036D01*
X237861244Y-171767921D01*
X237727167Y-171945468D01*
X237727162Y-171945476D01*
X237627999Y-172144621D01*
X237627993Y-172144636D01*
X237567109Y-172358622D01*
X237567108Y-172358624D01*
X237546581Y-172580159D01*
X230637868Y-172580159D01*
X230617340Y-172358623D01*
X230556454Y-172144631D01*
X230457286Y-171945476D01*
X230457286Y-171945475D01*
X230457281Y-171945467D01*
X230323204Y-171767920D01*
X230158787Y-171618035D01*
X230158785Y-171618033D01*
X229969629Y-171500913D01*
X229969623Y-171500911D01*
X229762165Y-171420541D01*
X229543468Y-171379659D01*
X229320982Y-171379659D01*
X229102285Y-171420541D01*
X228971089Y-171471366D01*
X228894826Y-171500911D01*
X228894820Y-171500913D01*
X228705664Y-171618033D01*
X228705662Y-171618035D01*
X228541245Y-171767920D01*
X228407168Y-171945467D01*
X228407163Y-171945475D01*
X228308000Y-172144620D01*
X228307994Y-172144635D01*
X228247110Y-172358621D01*
X228247109Y-172358623D01*
X228226582Y-172580158D01*
X219637868Y-172580158D01*
X219617340Y-172358623D01*
X219556454Y-172144631D01*
X219457286Y-171945476D01*
X219457286Y-171945475D01*
X219457281Y-171945467D01*
X219323204Y-171767920D01*
X219158787Y-171618035D01*
X219158785Y-171618033D01*
X218969629Y-171500913D01*
X218969623Y-171500911D01*
X218762165Y-171420541D01*
X218543468Y-171379659D01*
X218320982Y-171379659D01*
X218102285Y-171420541D01*
X217971089Y-171471366D01*
X217894826Y-171500911D01*
X217894820Y-171500913D01*
X217705664Y-171618033D01*
X217705662Y-171618035D01*
X217541245Y-171767920D01*
X217407168Y-171945467D01*
X217407163Y-171945475D01*
X217308000Y-172144620D01*
X217307994Y-172144635D01*
X217247110Y-172358621D01*
X217247109Y-172358623D01*
X217226582Y-172580158D01*
X210317867Y-172580158D01*
X210297339Y-172358623D01*
X210236453Y-172144631D01*
X210137285Y-171945476D01*
X210137285Y-171945475D01*
X210137280Y-171945467D01*
X210003203Y-171767920D01*
X209838786Y-171618035D01*
X209838784Y-171618033D01*
X209649628Y-171500913D01*
X209649622Y-171500911D01*
X209442164Y-171420541D01*
X209223467Y-171379659D01*
X209000981Y-171379659D01*
X208782284Y-171420541D01*
X208651088Y-171471366D01*
X208574825Y-171500911D01*
X208574819Y-171500913D01*
X208385663Y-171618033D01*
X208385661Y-171618035D01*
X208221244Y-171767920D01*
X208087167Y-171945467D01*
X208087162Y-171945475D01*
X207987999Y-172144620D01*
X207987993Y-172144635D01*
X207927109Y-172358621D01*
X207927108Y-172358623D01*
X207906581Y-172580158D01*
X199317867Y-172580158D01*
X199297339Y-172358623D01*
X199236453Y-172144631D01*
X199137285Y-171945476D01*
X199137285Y-171945475D01*
X199137280Y-171945467D01*
X199003203Y-171767920D01*
X198838786Y-171618035D01*
X198838784Y-171618033D01*
X198649628Y-171500913D01*
X198649622Y-171500911D01*
X198442164Y-171420541D01*
X198223467Y-171379659D01*
X198000981Y-171379659D01*
X197782284Y-171420541D01*
X197651088Y-171471366D01*
X197574825Y-171500911D01*
X197574819Y-171500913D01*
X197385663Y-171618033D01*
X197385661Y-171618035D01*
X197221244Y-171767920D01*
X197087167Y-171945467D01*
X197087162Y-171945475D01*
X196987999Y-172144620D01*
X196987993Y-172144635D01*
X196927109Y-172358621D01*
X196927108Y-172358623D01*
X196906581Y-172580158D01*
X189997868Y-172580158D01*
X189977340Y-172358624D01*
X189916454Y-172144632D01*
X189916449Y-172144621D01*
X189817286Y-171945476D01*
X189817281Y-171945468D01*
X189683204Y-171767921D01*
X189518787Y-171618036D01*
X189518785Y-171618034D01*
X189329629Y-171500914D01*
X189329623Y-171500912D01*
X189122165Y-171420542D01*
X188903468Y-171379660D01*
X188680982Y-171379660D01*
X188462285Y-171420542D01*
X188331089Y-171471367D01*
X188254826Y-171500912D01*
X188254820Y-171500914D01*
X188065664Y-171618034D01*
X188065662Y-171618036D01*
X187901245Y-171767921D01*
X187767168Y-171945468D01*
X187767163Y-171945476D01*
X187668000Y-172144621D01*
X187667994Y-172144636D01*
X187607110Y-172358622D01*
X187607109Y-172358624D01*
X187586582Y-172580159D01*
X178997868Y-172580159D01*
X178977340Y-172358624D01*
X178916454Y-172144632D01*
X178916449Y-172144621D01*
X178817286Y-171945476D01*
X178817281Y-171945468D01*
X178683204Y-171767921D01*
X178518787Y-171618036D01*
X178518785Y-171618034D01*
X178329629Y-171500914D01*
X178329623Y-171500912D01*
X178122165Y-171420542D01*
X177903468Y-171379660D01*
X177680982Y-171379660D01*
X177462285Y-171420542D01*
X177331089Y-171471367D01*
X177254826Y-171500912D01*
X177254820Y-171500914D01*
X177065664Y-171618034D01*
X177065662Y-171618036D01*
X176901245Y-171767921D01*
X176767168Y-171945468D01*
X176767163Y-171945476D01*
X176668000Y-172144621D01*
X176667994Y-172144636D01*
X176607110Y-172358622D01*
X176607109Y-172358624D01*
X176586582Y-172580159D01*
X169677867Y-172580159D01*
X169657339Y-172358624D01*
X169596453Y-172144632D01*
X169596448Y-172144621D01*
X169497285Y-171945476D01*
X169497280Y-171945468D01*
X169363203Y-171767921D01*
X169198786Y-171618036D01*
X169198784Y-171618034D01*
X169009628Y-171500914D01*
X169009622Y-171500912D01*
X168802164Y-171420542D01*
X168583467Y-171379660D01*
X168360981Y-171379660D01*
X168142284Y-171420542D01*
X168011088Y-171471367D01*
X167934825Y-171500912D01*
X167934819Y-171500914D01*
X167745663Y-171618034D01*
X167745661Y-171618036D01*
X167581244Y-171767921D01*
X167447167Y-171945468D01*
X167447162Y-171945476D01*
X167347999Y-172144621D01*
X167347993Y-172144636D01*
X167287109Y-172358622D01*
X167287108Y-172358624D01*
X167266581Y-172580159D01*
X158677867Y-172580159D01*
X158657339Y-172358624D01*
X158596453Y-172144632D01*
X158596448Y-172144621D01*
X158497285Y-171945476D01*
X158497280Y-171945468D01*
X158363203Y-171767921D01*
X158198786Y-171618036D01*
X158198784Y-171618034D01*
X158009628Y-171500914D01*
X158009622Y-171500912D01*
X157802164Y-171420542D01*
X157583467Y-171379660D01*
X157360981Y-171379660D01*
X157142284Y-171420542D01*
X157011088Y-171471367D01*
X156934825Y-171500912D01*
X156934819Y-171500914D01*
X156745663Y-171618034D01*
X156745661Y-171618036D01*
X156581244Y-171767921D01*
X156447167Y-171945468D01*
X156447162Y-171945476D01*
X156347999Y-172144621D01*
X156347993Y-172144636D01*
X156287109Y-172358622D01*
X156287108Y-172358624D01*
X156266581Y-172580159D01*
X149357868Y-172580159D01*
X149337340Y-172358623D01*
X149276454Y-172144631D01*
X149177286Y-171945476D01*
X149177286Y-171945475D01*
X149177281Y-171945467D01*
X149043204Y-171767920D01*
X148878787Y-171618035D01*
X148878785Y-171618033D01*
X148689629Y-171500913D01*
X148689623Y-171500911D01*
X148482165Y-171420541D01*
X148263468Y-171379659D01*
X148040982Y-171379659D01*
X147822285Y-171420541D01*
X147691089Y-171471366D01*
X147614826Y-171500911D01*
X147614820Y-171500913D01*
X147425664Y-171618033D01*
X147425662Y-171618035D01*
X147261245Y-171767920D01*
X147127168Y-171945467D01*
X147127163Y-171945475D01*
X147028000Y-172144620D01*
X147027994Y-172144635D01*
X146967110Y-172358621D01*
X146967109Y-172358623D01*
X146946582Y-172580158D01*
X138357868Y-172580158D01*
X138337340Y-172358623D01*
X138276454Y-172144631D01*
X138177286Y-171945476D01*
X138177286Y-171945475D01*
X138177281Y-171945467D01*
X138043204Y-171767920D01*
X137878787Y-171618035D01*
X137878785Y-171618033D01*
X137689629Y-171500913D01*
X137689623Y-171500911D01*
X137482165Y-171420541D01*
X137263468Y-171379659D01*
X137040982Y-171379659D01*
X136822285Y-171420541D01*
X136691089Y-171471366D01*
X136614826Y-171500911D01*
X136614820Y-171500913D01*
X136425664Y-171618033D01*
X136425662Y-171618035D01*
X136261245Y-171767920D01*
X136127168Y-171945467D01*
X136127163Y-171945475D01*
X136028000Y-172144620D01*
X136027994Y-172144635D01*
X135967110Y-172358621D01*
X135967109Y-172358623D01*
X135946582Y-172580158D01*
X134904500Y-172580158D01*
X134904500Y-160782294D01*
X137901725Y-160782294D01*
X137901725Y-164378029D01*
X137901726Y-164378035D01*
X137908133Y-164437642D01*
X137958427Y-164572487D01*
X137958431Y-164572494D01*
X138044677Y-164687703D01*
X138044680Y-164687706D01*
X138159889Y-164773952D01*
X138159896Y-164773956D01*
X138294742Y-164824250D01*
X138294741Y-164824250D01*
X138301669Y-164824994D01*
X138354352Y-164830659D01*
X141950097Y-164830658D01*
X142009708Y-164824250D01*
X142144556Y-164773955D01*
X142259771Y-164687705D01*
X142346021Y-164572490D01*
X142396316Y-164437642D01*
X142402725Y-164378032D01*
X142402724Y-160782295D01*
X158221724Y-160782295D01*
X158221724Y-164378030D01*
X158221725Y-164378036D01*
X158228132Y-164437643D01*
X158278426Y-164572488D01*
X158278430Y-164572495D01*
X158364676Y-164687704D01*
X158364679Y-164687707D01*
X158479888Y-164773953D01*
X158479895Y-164773957D01*
X158614741Y-164824251D01*
X158614740Y-164824251D01*
X158621668Y-164824995D01*
X158674351Y-164830660D01*
X162270096Y-164830659D01*
X162329707Y-164824251D01*
X162464555Y-164773956D01*
X162579770Y-164687706D01*
X162666020Y-164572491D01*
X162716315Y-164437643D01*
X162722724Y-164378033D01*
X162722723Y-160782295D01*
X178541725Y-160782295D01*
X178541725Y-164378030D01*
X178541726Y-164378036D01*
X178548133Y-164437643D01*
X178598427Y-164572488D01*
X178598431Y-164572495D01*
X178684677Y-164687704D01*
X178684680Y-164687707D01*
X178799889Y-164773953D01*
X178799896Y-164773957D01*
X178934742Y-164824251D01*
X178934741Y-164824251D01*
X178941669Y-164824995D01*
X178994352Y-164830660D01*
X182590097Y-164830659D01*
X182649708Y-164824251D01*
X182784556Y-164773956D01*
X182899771Y-164687706D01*
X182986021Y-164572491D01*
X183036316Y-164437643D01*
X183042725Y-164378033D01*
X183042724Y-160782294D01*
X198861724Y-160782294D01*
X198861724Y-164378029D01*
X198861725Y-164378035D01*
X198868132Y-164437642D01*
X198918426Y-164572487D01*
X198918430Y-164572494D01*
X199004676Y-164687703D01*
X199004679Y-164687706D01*
X199119888Y-164773952D01*
X199119895Y-164773956D01*
X199254741Y-164824250D01*
X199254740Y-164824250D01*
X199261668Y-164824994D01*
X199314351Y-164830659D01*
X202910096Y-164830658D01*
X202969707Y-164824250D01*
X203104555Y-164773955D01*
X203219770Y-164687705D01*
X203306020Y-164572490D01*
X203356315Y-164437642D01*
X203362724Y-164378032D01*
X203362723Y-160782294D01*
X219181725Y-160782294D01*
X219181725Y-164378029D01*
X219181726Y-164378035D01*
X219188133Y-164437642D01*
X219238427Y-164572487D01*
X219238431Y-164572494D01*
X219324677Y-164687703D01*
X219324680Y-164687706D01*
X219439889Y-164773952D01*
X219439896Y-164773956D01*
X219574742Y-164824250D01*
X219574741Y-164824250D01*
X219581669Y-164824994D01*
X219634352Y-164830659D01*
X223230097Y-164830658D01*
X223289708Y-164824250D01*
X223424556Y-164773955D01*
X223539771Y-164687705D01*
X223626021Y-164572490D01*
X223676316Y-164437642D01*
X223682725Y-164378032D01*
X223682724Y-160782295D01*
X239501724Y-160782295D01*
X239501724Y-164378030D01*
X239501725Y-164378036D01*
X239508132Y-164437643D01*
X239558426Y-164572488D01*
X239558430Y-164572495D01*
X239644676Y-164687704D01*
X239644679Y-164687707D01*
X239759888Y-164773953D01*
X239759895Y-164773957D01*
X239894741Y-164824251D01*
X239894740Y-164824251D01*
X239901668Y-164824995D01*
X239954351Y-164830660D01*
X243550096Y-164830659D01*
X243609707Y-164824251D01*
X243744555Y-164773956D01*
X243859770Y-164687706D01*
X243946020Y-164572491D01*
X243996315Y-164437643D01*
X244002724Y-164378033D01*
X244002723Y-160782295D01*
X259821724Y-160782295D01*
X259821724Y-164378030D01*
X259821725Y-164378036D01*
X259828132Y-164437643D01*
X259878426Y-164572488D01*
X259878430Y-164572495D01*
X259964676Y-164687704D01*
X259964679Y-164687707D01*
X260079888Y-164773953D01*
X260079895Y-164773957D01*
X260214741Y-164824251D01*
X260214740Y-164824251D01*
X260221668Y-164824995D01*
X260274351Y-164830660D01*
X263870096Y-164830659D01*
X263929707Y-164824251D01*
X264064555Y-164773956D01*
X264179770Y-164687706D01*
X264266020Y-164572491D01*
X264316315Y-164437643D01*
X264322724Y-164378033D01*
X264322723Y-160782288D01*
X264316315Y-160722677D01*
X264316314Y-160722675D01*
X264266021Y-160587831D01*
X264266017Y-160587824D01*
X264179771Y-160472615D01*
X264179768Y-160472612D01*
X264064559Y-160386366D01*
X264064552Y-160386362D01*
X263929706Y-160336068D01*
X263929707Y-160336068D01*
X263870107Y-160329661D01*
X263870105Y-160329660D01*
X263870097Y-160329660D01*
X263870088Y-160329660D01*
X260274353Y-160329660D01*
X260274347Y-160329661D01*
X260214740Y-160336068D01*
X260079895Y-160386362D01*
X260079888Y-160386366D01*
X259964679Y-160472612D01*
X259964676Y-160472615D01*
X259878430Y-160587824D01*
X259878426Y-160587831D01*
X259828132Y-160722677D01*
X259821725Y-160782275D01*
X259821725Y-160782283D01*
X259821724Y-160782295D01*
X244002723Y-160782295D01*
X244002723Y-160782288D01*
X243996315Y-160722677D01*
X243996314Y-160722675D01*
X243946021Y-160587831D01*
X243946017Y-160587824D01*
X243859771Y-160472615D01*
X243859768Y-160472612D01*
X243744559Y-160386366D01*
X243744552Y-160386362D01*
X243609706Y-160336068D01*
X243609707Y-160336068D01*
X243550107Y-160329661D01*
X243550105Y-160329660D01*
X243550097Y-160329660D01*
X243550088Y-160329660D01*
X239954353Y-160329660D01*
X239954347Y-160329661D01*
X239894740Y-160336068D01*
X239759895Y-160386362D01*
X239759888Y-160386366D01*
X239644679Y-160472612D01*
X239644676Y-160472615D01*
X239558430Y-160587824D01*
X239558426Y-160587831D01*
X239508132Y-160722677D01*
X239501725Y-160782275D01*
X239501725Y-160782283D01*
X239501724Y-160782295D01*
X223682724Y-160782295D01*
X223682724Y-160782287D01*
X223676316Y-160722676D01*
X223626021Y-160587828D01*
X223626020Y-160587827D01*
X223626018Y-160587823D01*
X223539772Y-160472614D01*
X223539769Y-160472611D01*
X223424560Y-160386365D01*
X223424553Y-160386361D01*
X223289707Y-160336067D01*
X223289708Y-160336067D01*
X223230108Y-160329660D01*
X223230106Y-160329659D01*
X223230098Y-160329659D01*
X223230089Y-160329659D01*
X219634354Y-160329659D01*
X219634348Y-160329660D01*
X219574741Y-160336067D01*
X219439896Y-160386361D01*
X219439889Y-160386365D01*
X219324680Y-160472611D01*
X219324677Y-160472614D01*
X219238431Y-160587823D01*
X219238427Y-160587830D01*
X219188133Y-160722676D01*
X219181726Y-160782275D01*
X219181726Y-160782283D01*
X219181725Y-160782294D01*
X203362723Y-160782294D01*
X203362723Y-160782287D01*
X203356315Y-160722676D01*
X203306020Y-160587828D01*
X203306019Y-160587827D01*
X203306017Y-160587823D01*
X203219771Y-160472614D01*
X203219768Y-160472611D01*
X203104559Y-160386365D01*
X203104552Y-160386361D01*
X202969706Y-160336067D01*
X202969707Y-160336067D01*
X202910107Y-160329660D01*
X202910105Y-160329659D01*
X202910097Y-160329659D01*
X202910088Y-160329659D01*
X199314353Y-160329659D01*
X199314347Y-160329660D01*
X199254740Y-160336067D01*
X199119895Y-160386361D01*
X199119888Y-160386365D01*
X199004679Y-160472611D01*
X199004676Y-160472614D01*
X198918430Y-160587823D01*
X198918426Y-160587830D01*
X198868132Y-160722676D01*
X198861725Y-160782275D01*
X198861725Y-160782283D01*
X198861724Y-160782294D01*
X183042724Y-160782294D01*
X183042724Y-160782288D01*
X183036316Y-160722677D01*
X183036315Y-160722675D01*
X182986022Y-160587831D01*
X182986018Y-160587824D01*
X182899772Y-160472615D01*
X182899769Y-160472612D01*
X182784560Y-160386366D01*
X182784553Y-160386362D01*
X182649707Y-160336068D01*
X182649708Y-160336068D01*
X182590108Y-160329661D01*
X182590106Y-160329660D01*
X182590098Y-160329660D01*
X182590089Y-160329660D01*
X178994354Y-160329660D01*
X178994348Y-160329661D01*
X178934741Y-160336068D01*
X178799896Y-160386362D01*
X178799889Y-160386366D01*
X178684680Y-160472612D01*
X178684677Y-160472615D01*
X178598431Y-160587824D01*
X178598427Y-160587831D01*
X178548133Y-160722677D01*
X178541726Y-160782275D01*
X178541726Y-160782283D01*
X178541725Y-160782295D01*
X162722723Y-160782295D01*
X162722723Y-160782288D01*
X162716315Y-160722677D01*
X162716314Y-160722675D01*
X162666021Y-160587831D01*
X162666017Y-160587824D01*
X162579771Y-160472615D01*
X162579768Y-160472612D01*
X162464559Y-160386366D01*
X162464552Y-160386362D01*
X162329706Y-160336068D01*
X162329707Y-160336068D01*
X162270107Y-160329661D01*
X162270105Y-160329660D01*
X162270097Y-160329660D01*
X162270088Y-160329660D01*
X158674353Y-160329660D01*
X158674347Y-160329661D01*
X158614740Y-160336068D01*
X158479895Y-160386362D01*
X158479888Y-160386366D01*
X158364679Y-160472612D01*
X158364676Y-160472615D01*
X158278430Y-160587824D01*
X158278426Y-160587831D01*
X158228132Y-160722677D01*
X158221725Y-160782275D01*
X158221725Y-160782283D01*
X158221724Y-160782295D01*
X142402724Y-160782295D01*
X142402724Y-160782287D01*
X142396316Y-160722676D01*
X142346021Y-160587828D01*
X142346020Y-160587827D01*
X142346018Y-160587823D01*
X142259772Y-160472614D01*
X142259769Y-160472611D01*
X142144560Y-160386365D01*
X142144553Y-160386361D01*
X142009707Y-160336067D01*
X142009708Y-160336067D01*
X141950108Y-160329660D01*
X141950106Y-160329659D01*
X141950098Y-160329659D01*
X141950089Y-160329659D01*
X138354354Y-160329659D01*
X138354348Y-160329660D01*
X138294741Y-160336067D01*
X138159896Y-160386361D01*
X138159889Y-160386365D01*
X138044680Y-160472611D01*
X138044677Y-160472614D01*
X137958431Y-160587823D01*
X137958427Y-160587830D01*
X137908133Y-160722676D01*
X137901726Y-160782275D01*
X137901726Y-160782283D01*
X137901725Y-160782294D01*
X134904500Y-160782294D01*
X134904500Y-154939997D01*
X150364652Y-154939997D01*
X150364652Y-154940002D01*
X150384028Y-155297368D01*
X150384029Y-155297385D01*
X150441926Y-155650539D01*
X150441932Y-155650565D01*
X150537672Y-155995392D01*
X150537674Y-155995399D01*
X150670142Y-156327870D01*
X150670151Y-156327888D01*
X150837784Y-156644077D01*
X150837790Y-156644086D01*
X151038634Y-156940309D01*
X151038641Y-156940319D01*
X151270331Y-157213085D01*
X151270332Y-157213086D01*
X151530163Y-157459211D01*
X151815081Y-157675800D01*
X152121747Y-157860315D01*
X152121749Y-157860316D01*
X152121751Y-157860317D01*
X152121755Y-157860319D01*
X152446552Y-158010585D01*
X152446565Y-158010591D01*
X152785726Y-158124868D01*
X153135254Y-158201805D01*
X153491052Y-158240500D01*
X153491058Y-158240500D01*
X153848942Y-158240500D01*
X153848948Y-158240500D01*
X154204746Y-158201805D01*
X154554274Y-158124868D01*
X154893435Y-158010591D01*
X155218253Y-157860315D01*
X155524919Y-157675800D01*
X155809837Y-157459211D01*
X156069668Y-157213086D01*
X156301365Y-156940311D01*
X156502211Y-156644085D01*
X156669853Y-156327880D01*
X156802324Y-155995403D01*
X156898071Y-155650552D01*
X156955972Y-155297371D01*
X156975348Y-154940000D01*
X156975348Y-154939997D01*
X251964652Y-154939997D01*
X251964652Y-154940002D01*
X251984028Y-155297368D01*
X251984029Y-155297385D01*
X252041926Y-155650539D01*
X252041932Y-155650565D01*
X252137672Y-155995392D01*
X252137674Y-155995399D01*
X252270142Y-156327870D01*
X252270151Y-156327888D01*
X252437784Y-156644077D01*
X252437790Y-156644086D01*
X252638634Y-156940309D01*
X252638641Y-156940319D01*
X252870331Y-157213085D01*
X252870332Y-157213086D01*
X253130163Y-157459211D01*
X253415081Y-157675800D01*
X253721747Y-157860315D01*
X253721749Y-157860316D01*
X253721751Y-157860317D01*
X253721755Y-157860319D01*
X254046552Y-158010585D01*
X254046565Y-158010591D01*
X254385726Y-158124868D01*
X254735254Y-158201805D01*
X255091052Y-158240500D01*
X255091058Y-158240500D01*
X255448942Y-158240500D01*
X255448948Y-158240500D01*
X255804746Y-158201805D01*
X256154274Y-158124868D01*
X256493435Y-158010591D01*
X256818253Y-157860315D01*
X257124919Y-157675800D01*
X257409837Y-157459211D01*
X257669668Y-157213086D01*
X257901365Y-156940311D01*
X258102211Y-156644085D01*
X258269853Y-156327880D01*
X258402324Y-155995403D01*
X258498071Y-155650552D01*
X258555972Y-155297371D01*
X258575348Y-154940000D01*
X258555972Y-154582629D01*
X258498071Y-154229448D01*
X258402324Y-153884597D01*
X258269853Y-153552120D01*
X258102211Y-153235915D01*
X257901365Y-152939689D01*
X257901361Y-152939684D01*
X257901358Y-152939680D01*
X257669668Y-152666914D01*
X257409837Y-152420789D01*
X257409830Y-152420783D01*
X257409827Y-152420781D01*
X257342245Y-152369407D01*
X257124919Y-152204200D01*
X256818253Y-152019685D01*
X256818252Y-152019684D01*
X256818248Y-152019682D01*
X256818244Y-152019680D01*
X256493447Y-151869414D01*
X256493441Y-151869411D01*
X256493435Y-151869409D01*
X256323854Y-151812270D01*
X256154273Y-151755131D01*
X255804744Y-151678194D01*
X255448949Y-151639500D01*
X255448948Y-151639500D01*
X255091052Y-151639500D01*
X255091050Y-151639500D01*
X254735255Y-151678194D01*
X254385726Y-151755131D01*
X254129970Y-151841306D01*
X254046565Y-151869409D01*
X254046563Y-151869410D01*
X254046552Y-151869414D01*
X253721755Y-152019680D01*
X253721751Y-152019682D01*
X253493367Y-152157096D01*
X253415081Y-152204200D01*
X253326768Y-152271333D01*
X253130172Y-152420781D01*
X253130163Y-152420789D01*
X252870331Y-152666914D01*
X252638641Y-152939680D01*
X252638634Y-152939690D01*
X252437790Y-153235913D01*
X252437784Y-153235922D01*
X252270151Y-153552111D01*
X252270142Y-153552129D01*
X252137674Y-153884600D01*
X252137672Y-153884607D01*
X252041932Y-154229434D01*
X252041926Y-154229460D01*
X251984029Y-154582614D01*
X251984028Y-154582631D01*
X251964652Y-154939997D01*
X156975348Y-154939997D01*
X156955972Y-154582629D01*
X156898071Y-154229448D01*
X156802324Y-153884597D01*
X156669853Y-153552120D01*
X156502211Y-153235915D01*
X156301365Y-152939689D01*
X156301361Y-152939684D01*
X156301358Y-152939680D01*
X156069668Y-152666914D01*
X155809837Y-152420789D01*
X155809830Y-152420783D01*
X155809827Y-152420781D01*
X155742245Y-152369407D01*
X155524919Y-152204200D01*
X155218253Y-152019685D01*
X155218252Y-152019684D01*
X155218248Y-152019682D01*
X155218244Y-152019680D01*
X154893447Y-151869414D01*
X154893441Y-151869411D01*
X154893435Y-151869409D01*
X154723854Y-151812270D01*
X154554273Y-151755131D01*
X154204744Y-151678194D01*
X153848949Y-151639500D01*
X153848948Y-151639500D01*
X153491052Y-151639500D01*
X153491050Y-151639500D01*
X153135255Y-151678194D01*
X152785726Y-151755131D01*
X152529970Y-151841306D01*
X152446565Y-151869409D01*
X152446563Y-151869410D01*
X152446552Y-151869414D01*
X152121755Y-152019680D01*
X152121751Y-152019682D01*
X151893367Y-152157096D01*
X151815081Y-152204200D01*
X151726768Y-152271333D01*
X151530172Y-152420781D01*
X151530163Y-152420789D01*
X151270331Y-152666914D01*
X151038641Y-152939680D01*
X151038634Y-152939690D01*
X150837790Y-153235913D01*
X150837784Y-153235922D01*
X150670151Y-153552111D01*
X150670142Y-153552129D01*
X150537674Y-153884600D01*
X150537672Y-153884607D01*
X150441932Y-154229434D01*
X150441926Y-154229460D01*
X150384029Y-154582614D01*
X150384028Y-154582631D01*
X150364652Y-154939997D01*
X134904500Y-154939997D01*
X134904500Y-148492135D01*
X135839500Y-148492135D01*
X135839500Y-149487870D01*
X135839501Y-149487876D01*
X135845908Y-149547483D01*
X135896202Y-149682328D01*
X135896206Y-149682335D01*
X135982452Y-149797544D01*
X135982455Y-149797547D01*
X136097664Y-149883793D01*
X136097671Y-149883797D01*
X136232517Y-149934091D01*
X136232516Y-149934091D01*
X136239444Y-149934835D01*
X136292127Y-149940500D01*
X138387872Y-149940499D01*
X138447483Y-149934091D01*
X138582331Y-149883796D01*
X138697546Y-149797546D01*
X138783796Y-149682331D01*
X138834091Y-149547483D01*
X138840500Y-149487873D01*
X138840499Y-148492128D01*
X138834091Y-148432517D01*
X138818419Y-148390499D01*
X138783797Y-148297671D01*
X138783793Y-148297664D01*
X138697547Y-148182455D01*
X138697544Y-148182452D01*
X138582335Y-148096206D01*
X138582328Y-148096202D01*
X138447482Y-148045908D01*
X138447483Y-148045908D01*
X138387883Y-148039501D01*
X138387881Y-148039500D01*
X138387873Y-148039500D01*
X138387864Y-148039500D01*
X136292129Y-148039500D01*
X136292123Y-148039501D01*
X136232516Y-148045908D01*
X136097671Y-148096202D01*
X136097664Y-148096206D01*
X135982455Y-148182452D01*
X135982452Y-148182455D01*
X135896206Y-148297664D01*
X135896202Y-148297671D01*
X135845908Y-148432517D01*
X135839501Y-148492116D01*
X135839501Y-148492123D01*
X135839500Y-148492135D01*
X134904500Y-148492135D01*
X134904500Y-144744702D01*
X140789500Y-144744702D01*
X140789500Y-146935292D01*
X140789501Y-146935298D01*
X140799718Y-147080027D01*
X140799718Y-147080031D01*
X140799719Y-147080034D01*
X140799720Y-147080038D01*
X140853834Y-147320314D01*
X140853835Y-147320319D01*
X140933581Y-147518462D01*
X140945795Y-147548809D01*
X141073216Y-147759589D01*
X141073219Y-147759592D01*
X141232798Y-147947201D01*
X141341309Y-148039500D01*
X141420411Y-148106784D01*
X141631191Y-148234205D01*
X141859683Y-148326165D01*
X142099966Y-148380281D01*
X142244705Y-148390500D01*
X144435294Y-148390499D01*
X144580034Y-148380281D01*
X144820317Y-148326165D01*
X145048809Y-148234205D01*
X145259589Y-148106784D01*
X145447201Y-147947201D01*
X145606784Y-147759589D01*
X145618627Y-147739999D01*
X268549357Y-147739999D01*
X268549357Y-147740000D01*
X268569884Y-147961535D01*
X268569885Y-147961537D01*
X268630769Y-148175523D01*
X268630775Y-148175538D01*
X268729938Y-148374683D01*
X268729943Y-148374691D01*
X268864020Y-148552238D01*
X269028437Y-148702123D01*
X269028439Y-148702125D01*
X269217595Y-148819245D01*
X269217596Y-148819245D01*
X269217599Y-148819247D01*
X269425060Y-148899618D01*
X269643757Y-148940500D01*
X269643759Y-148940500D01*
X269866241Y-148940500D01*
X269866243Y-148940500D01*
X270084940Y-148899618D01*
X270292401Y-148819247D01*
X270481562Y-148702124D01*
X270645981Y-148552236D01*
X270780058Y-148374689D01*
X270879229Y-148175528D01*
X270940115Y-147961536D01*
X270960643Y-147740000D01*
X270940115Y-147518464D01*
X270879229Y-147304472D01*
X270879224Y-147304461D01*
X270780061Y-147105316D01*
X270780056Y-147105308D01*
X270645979Y-146927761D01*
X270481562Y-146777876D01*
X270481560Y-146777874D01*
X270292404Y-146660754D01*
X270292398Y-146660752D01*
X270084940Y-146580382D01*
X269866243Y-146539500D01*
X269643757Y-146539500D01*
X269425060Y-146580382D01*
X269293864Y-146631207D01*
X269217601Y-146660752D01*
X269217595Y-146660754D01*
X269028439Y-146777874D01*
X269028437Y-146777876D01*
X268864020Y-146927761D01*
X268729943Y-147105308D01*
X268729938Y-147105316D01*
X268630775Y-147304461D01*
X268630769Y-147304476D01*
X268569885Y-147518462D01*
X268569884Y-147518464D01*
X268549357Y-147739999D01*
X145618627Y-147739999D01*
X145734205Y-147548809D01*
X145826165Y-147320317D01*
X145880281Y-147080034D01*
X145890500Y-146935295D01*
X145890499Y-144744706D01*
X145880281Y-144599966D01*
X145826165Y-144359683D01*
X145734205Y-144131191D01*
X145606784Y-143920411D01*
X145540930Y-143842990D01*
X145447201Y-143732798D01*
X145317654Y-143622606D01*
X145259589Y-143573216D01*
X145048809Y-143445795D01*
X144820318Y-143353835D01*
X144580036Y-143299719D01*
X144580029Y-143299718D01*
X144435296Y-143289500D01*
X142244707Y-143289500D01*
X142244701Y-143289501D01*
X142099972Y-143299718D01*
X142099966Y-143299718D01*
X142099966Y-143299719D01*
X142099963Y-143299719D01*
X142099961Y-143299720D01*
X141859685Y-143353834D01*
X141859680Y-143353835D01*
X141631190Y-143445795D01*
X141631185Y-143445798D01*
X141420417Y-143573212D01*
X141420407Y-143573219D01*
X141232798Y-143732798D01*
X141073219Y-143920407D01*
X141073212Y-143920417D01*
X140945798Y-144131185D01*
X140945795Y-144131190D01*
X140853835Y-144359680D01*
X140853835Y-144359682D01*
X140799719Y-144599963D01*
X140799718Y-144599970D01*
X140789500Y-144744702D01*
X134904500Y-144744702D01*
X134904500Y-142942135D01*
X257504500Y-142942135D01*
X257504500Y-146537870D01*
X257504501Y-146537876D01*
X257510908Y-146597483D01*
X257561202Y-146732328D01*
X257561206Y-146732335D01*
X257647452Y-146847544D01*
X257647455Y-146847547D01*
X257762664Y-146933793D01*
X257762671Y-146933797D01*
X257897517Y-146984091D01*
X257897516Y-146984091D01*
X257904444Y-146984835D01*
X257957127Y-146990500D01*
X261552872Y-146990499D01*
X261612483Y-146984091D01*
X261747331Y-146933796D01*
X261862546Y-146847546D01*
X261948796Y-146732331D01*
X261999091Y-146597483D01*
X262005500Y-146537873D01*
X262005499Y-142942128D01*
X261999091Y-142882517D01*
X261948796Y-142747669D01*
X261948795Y-142747668D01*
X261948793Y-142747664D01*
X261862547Y-142632455D01*
X261862544Y-142632452D01*
X261747335Y-142546206D01*
X261747328Y-142546202D01*
X261612482Y-142495908D01*
X261612483Y-142495908D01*
X261552883Y-142489501D01*
X261552881Y-142489500D01*
X261552873Y-142489500D01*
X261552864Y-142489500D01*
X257957129Y-142489500D01*
X257957123Y-142489501D01*
X257897516Y-142495908D01*
X257762671Y-142546202D01*
X257762664Y-142546206D01*
X257647455Y-142632452D01*
X257647452Y-142632455D01*
X257561206Y-142747664D01*
X257561202Y-142747671D01*
X257510908Y-142882517D01*
X257504501Y-142942116D01*
X257504501Y-142942123D01*
X257504500Y-142942135D01*
X134904500Y-142942135D01*
X134904500Y-136739999D01*
X268549357Y-136739999D01*
X268549357Y-136740000D01*
X268569884Y-136961535D01*
X268569885Y-136961537D01*
X268630769Y-137175523D01*
X268630775Y-137175538D01*
X268729938Y-137374683D01*
X268729943Y-137374691D01*
X268864020Y-137552238D01*
X269028437Y-137702123D01*
X269028439Y-137702125D01*
X269217595Y-137819245D01*
X269217596Y-137819245D01*
X269217599Y-137819247D01*
X269425060Y-137899618D01*
X269643757Y-137940500D01*
X269643759Y-137940500D01*
X269866241Y-137940500D01*
X269866243Y-137940500D01*
X270084940Y-137899618D01*
X270292401Y-137819247D01*
X270481562Y-137702124D01*
X270645981Y-137552236D01*
X270780058Y-137374689D01*
X270879229Y-137175528D01*
X270940115Y-136961536D01*
X270960643Y-136740000D01*
X270940115Y-136518464D01*
X270879229Y-136304472D01*
X270875781Y-136297547D01*
X270780061Y-136105316D01*
X270780056Y-136105308D01*
X270645979Y-135927761D01*
X270481562Y-135777876D01*
X270481560Y-135777874D01*
X270292404Y-135660754D01*
X270292398Y-135660752D01*
X270084940Y-135580382D01*
X269866243Y-135539500D01*
X269643757Y-135539500D01*
X269425060Y-135580382D01*
X269293864Y-135631207D01*
X269217601Y-135660752D01*
X269217595Y-135660754D01*
X269028439Y-135777874D01*
X269028437Y-135777876D01*
X268864020Y-135927761D01*
X268729943Y-136105308D01*
X268729938Y-136105316D01*
X268630775Y-136304461D01*
X268630769Y-136304476D01*
X268569885Y-136518462D01*
X268569884Y-136518464D01*
X268549357Y-136739999D01*
X134904500Y-136739999D01*
X134904500Y-134992135D01*
X135839500Y-134992135D01*
X135839500Y-135987870D01*
X135839501Y-135987876D01*
X135845908Y-136047483D01*
X135896202Y-136182328D01*
X135896206Y-136182335D01*
X135982452Y-136297544D01*
X135982455Y-136297547D01*
X136097664Y-136383793D01*
X136097671Y-136383797D01*
X136232517Y-136434091D01*
X136232516Y-136434091D01*
X136239444Y-136434835D01*
X136292127Y-136440500D01*
X138387872Y-136440499D01*
X138447483Y-136434091D01*
X138582331Y-136383796D01*
X138697546Y-136297546D01*
X138783796Y-136182331D01*
X138834091Y-136047483D01*
X138840500Y-135987873D01*
X138840499Y-134992128D01*
X138834091Y-134932517D01*
X138783796Y-134797669D01*
X138783795Y-134797668D01*
X138783793Y-134797664D01*
X138697547Y-134682455D01*
X138697544Y-134682452D01*
X138582335Y-134596206D01*
X138582328Y-134596202D01*
X138447482Y-134545908D01*
X138447483Y-134545908D01*
X138387883Y-134539501D01*
X138387881Y-134539500D01*
X138387873Y-134539500D01*
X138387864Y-134539500D01*
X136292129Y-134539500D01*
X136292123Y-134539501D01*
X136232516Y-134545908D01*
X136097671Y-134596202D01*
X136097664Y-134596206D01*
X135982455Y-134682452D01*
X135982452Y-134682455D01*
X135896206Y-134797664D01*
X135896202Y-134797671D01*
X135845908Y-134932517D01*
X135839501Y-134992116D01*
X135839501Y-134992123D01*
X135839500Y-134992135D01*
X134904500Y-134992135D01*
X134904500Y-129539997D01*
X150364652Y-129539997D01*
X150364652Y-129540002D01*
X150384028Y-129897368D01*
X150384029Y-129897385D01*
X150441926Y-130250539D01*
X150441932Y-130250565D01*
X150537672Y-130595392D01*
X150537674Y-130595399D01*
X150670142Y-130927870D01*
X150670151Y-130927888D01*
X150837784Y-131244077D01*
X150837790Y-131244086D01*
X151038634Y-131540309D01*
X151038641Y-131540319D01*
X151270331Y-131813085D01*
X151270332Y-131813086D01*
X151530163Y-132059211D01*
X151815081Y-132275800D01*
X152121747Y-132460315D01*
X152121749Y-132460316D01*
X152121751Y-132460317D01*
X152121755Y-132460319D01*
X152446552Y-132610585D01*
X152446565Y-132610591D01*
X152785726Y-132724868D01*
X153135254Y-132801805D01*
X153491052Y-132840500D01*
X153491058Y-132840500D01*
X153848942Y-132840500D01*
X153848948Y-132840500D01*
X154204746Y-132801805D01*
X154554274Y-132724868D01*
X154893435Y-132610591D01*
X155218253Y-132460315D01*
X155524919Y-132275800D01*
X155809837Y-132059211D01*
X156069668Y-131813086D01*
X156301365Y-131540311D01*
X156502211Y-131244085D01*
X156669853Y-130927880D01*
X156802324Y-130595403D01*
X156898071Y-130250552D01*
X156955972Y-129897371D01*
X156975348Y-129540000D01*
X156975348Y-129539997D01*
X251964652Y-129539997D01*
X251964652Y-129540002D01*
X251984028Y-129897368D01*
X251984029Y-129897385D01*
X252041926Y-130250539D01*
X252041932Y-130250565D01*
X252137672Y-130595392D01*
X252137674Y-130595399D01*
X252270142Y-130927870D01*
X252270151Y-130927888D01*
X252437784Y-131244077D01*
X252437790Y-131244086D01*
X252638634Y-131540309D01*
X252638641Y-131540319D01*
X252870331Y-131813085D01*
X252870332Y-131813086D01*
X253130163Y-132059211D01*
X253415081Y-132275800D01*
X253721747Y-132460315D01*
X253721749Y-132460316D01*
X253721751Y-132460317D01*
X253721755Y-132460319D01*
X254046552Y-132610585D01*
X254046565Y-132610591D01*
X254385726Y-132724868D01*
X254735254Y-132801805D01*
X255091052Y-132840500D01*
X255091058Y-132840500D01*
X255448942Y-132840500D01*
X255448948Y-132840500D01*
X255804746Y-132801805D01*
X256154274Y-132724868D01*
X256493435Y-132610591D01*
X256818253Y-132460315D01*
X257124919Y-132275800D01*
X257409837Y-132059211D01*
X257669668Y-131813086D01*
X257901365Y-131540311D01*
X258102211Y-131244085D01*
X258269853Y-130927880D01*
X258402324Y-130595403D01*
X258498071Y-130250552D01*
X258555972Y-129897371D01*
X258575348Y-129540000D01*
X258555972Y-129182629D01*
X258498071Y-128829448D01*
X258402324Y-128484597D01*
X258269853Y-128152120D01*
X258102211Y-127835915D01*
X257901365Y-127539689D01*
X257901361Y-127539684D01*
X257901358Y-127539680D01*
X257669668Y-127266914D01*
X257409837Y-127020789D01*
X257409830Y-127020783D01*
X257409827Y-127020781D01*
X257342245Y-126969407D01*
X257124919Y-126804200D01*
X256818253Y-126619685D01*
X256818252Y-126619684D01*
X256818248Y-126619682D01*
X256818244Y-126619680D01*
X256493447Y-126469414D01*
X256493441Y-126469411D01*
X256493435Y-126469409D01*
X256323854Y-126412270D01*
X256154273Y-126355131D01*
X255804744Y-126278194D01*
X255448949Y-126239500D01*
X255448948Y-126239500D01*
X255091052Y-126239500D01*
X255091050Y-126239500D01*
X254735255Y-126278194D01*
X254385726Y-126355131D01*
X254129970Y-126441306D01*
X254046565Y-126469409D01*
X254046563Y-126469410D01*
X254046552Y-126469414D01*
X253721755Y-126619680D01*
X253721751Y-126619682D01*
X253493367Y-126757096D01*
X253415081Y-126804200D01*
X253326768Y-126871333D01*
X253130172Y-127020781D01*
X253130163Y-127020789D01*
X252870331Y-127266914D01*
X252638641Y-127539680D01*
X252638634Y-127539690D01*
X252437790Y-127835913D01*
X252437784Y-127835922D01*
X252270151Y-128152111D01*
X252270142Y-128152129D01*
X252137674Y-128484600D01*
X252137672Y-128484607D01*
X252041932Y-128829434D01*
X252041926Y-128829460D01*
X251984029Y-129182614D01*
X251984028Y-129182631D01*
X251964652Y-129539997D01*
X156975348Y-129539997D01*
X156955972Y-129182629D01*
X156898071Y-128829448D01*
X156802324Y-128484597D01*
X156669853Y-128152120D01*
X156502211Y-127835915D01*
X156301365Y-127539689D01*
X156301361Y-127539684D01*
X156301358Y-127539680D01*
X156069668Y-127266914D01*
X155809837Y-127020789D01*
X155809830Y-127020783D01*
X155809827Y-127020781D01*
X155742245Y-126969407D01*
X155524919Y-126804200D01*
X155218253Y-126619685D01*
X155218252Y-126619684D01*
X155218248Y-126619682D01*
X155218244Y-126619680D01*
X154893447Y-126469414D01*
X154893441Y-126469411D01*
X154893435Y-126469409D01*
X154723854Y-126412270D01*
X154554273Y-126355131D01*
X154204744Y-126278194D01*
X153848949Y-126239500D01*
X153848948Y-126239500D01*
X153491052Y-126239500D01*
X153491050Y-126239500D01*
X153135255Y-126278194D01*
X152785726Y-126355131D01*
X152529970Y-126441306D01*
X152446565Y-126469409D01*
X152446563Y-126469410D01*
X152446552Y-126469414D01*
X152121755Y-126619680D01*
X152121751Y-126619682D01*
X151893367Y-126757096D01*
X151815081Y-126804200D01*
X151726768Y-126871333D01*
X151530172Y-127020781D01*
X151530163Y-127020789D01*
X151270331Y-127266914D01*
X151038641Y-127539680D01*
X151038634Y-127539690D01*
X150837790Y-127835913D01*
X150837784Y-127835922D01*
X150670151Y-128152111D01*
X150670142Y-128152129D01*
X150537674Y-128484600D01*
X150537672Y-128484607D01*
X150441932Y-128829434D01*
X150441926Y-128829460D01*
X150384029Y-129182614D01*
X150384028Y-129182631D01*
X150364652Y-129539997D01*
X134904500Y-129539997D01*
X134904500Y-119668890D01*
X142954396Y-119668890D01*
X142954396Y-123264625D01*
X142954397Y-123264631D01*
X142960804Y-123324238D01*
X143011098Y-123459083D01*
X143011102Y-123459090D01*
X143097348Y-123574299D01*
X143097351Y-123574302D01*
X143212560Y-123660548D01*
X143212567Y-123660552D01*
X143347413Y-123710846D01*
X143347412Y-123710846D01*
X143354340Y-123711590D01*
X143407023Y-123717255D01*
X147002768Y-123717254D01*
X147062379Y-123710846D01*
X147197227Y-123660551D01*
X147312442Y-123574301D01*
X147398692Y-123459086D01*
X147448987Y-123324238D01*
X147455396Y-123264628D01*
X147455395Y-119668890D01*
X163274396Y-119668890D01*
X163274396Y-123264625D01*
X163274397Y-123264631D01*
X163280804Y-123324238D01*
X163331098Y-123459083D01*
X163331102Y-123459090D01*
X163417348Y-123574299D01*
X163417351Y-123574302D01*
X163532560Y-123660548D01*
X163532567Y-123660552D01*
X163667413Y-123710846D01*
X163667412Y-123710846D01*
X163674340Y-123711590D01*
X163727023Y-123717255D01*
X167322768Y-123717254D01*
X167382379Y-123710846D01*
X167517227Y-123660551D01*
X167632442Y-123574301D01*
X167718692Y-123459086D01*
X167768987Y-123324238D01*
X167775396Y-123264628D01*
X167775395Y-119668889D01*
X183594395Y-119668889D01*
X183594395Y-123264624D01*
X183594396Y-123264630D01*
X183600803Y-123324237D01*
X183651097Y-123459082D01*
X183651101Y-123459089D01*
X183737347Y-123574298D01*
X183737350Y-123574301D01*
X183852559Y-123660547D01*
X183852566Y-123660551D01*
X183987412Y-123710845D01*
X183987411Y-123710845D01*
X183994339Y-123711589D01*
X184047022Y-123717254D01*
X187642767Y-123717253D01*
X187702378Y-123710845D01*
X187837226Y-123660550D01*
X187952441Y-123574300D01*
X188038691Y-123459085D01*
X188088986Y-123324237D01*
X188095395Y-123264627D01*
X188095394Y-119668889D01*
X203914396Y-119668889D01*
X203914396Y-123264624D01*
X203914397Y-123264630D01*
X203920804Y-123324237D01*
X203971098Y-123459082D01*
X203971102Y-123459089D01*
X204057348Y-123574298D01*
X204057351Y-123574301D01*
X204172560Y-123660547D01*
X204172567Y-123660551D01*
X204307413Y-123710845D01*
X204307412Y-123710845D01*
X204314340Y-123711589D01*
X204367023Y-123717254D01*
X207962768Y-123717253D01*
X208022379Y-123710845D01*
X208157227Y-123660550D01*
X208272442Y-123574300D01*
X208358692Y-123459085D01*
X208408987Y-123324237D01*
X208415396Y-123264627D01*
X208415395Y-119668890D01*
X224234395Y-119668890D01*
X224234395Y-123264625D01*
X224234396Y-123264631D01*
X224240803Y-123324238D01*
X224291097Y-123459083D01*
X224291101Y-123459090D01*
X224377347Y-123574299D01*
X224377350Y-123574302D01*
X224492559Y-123660548D01*
X224492566Y-123660552D01*
X224627412Y-123710846D01*
X224627411Y-123710846D01*
X224634339Y-123711590D01*
X224687022Y-123717255D01*
X228282767Y-123717254D01*
X228342378Y-123710846D01*
X228477226Y-123660551D01*
X228592441Y-123574301D01*
X228678691Y-123459086D01*
X228728986Y-123324238D01*
X228735395Y-123264628D01*
X228735394Y-119668890D01*
X244554396Y-119668890D01*
X244554396Y-123264625D01*
X244554397Y-123264631D01*
X244560804Y-123324238D01*
X244611098Y-123459083D01*
X244611102Y-123459090D01*
X244697348Y-123574299D01*
X244697351Y-123574302D01*
X244812560Y-123660548D01*
X244812567Y-123660552D01*
X244947413Y-123710846D01*
X244947412Y-123710846D01*
X244954340Y-123711590D01*
X245007023Y-123717255D01*
X248602768Y-123717254D01*
X248662379Y-123710846D01*
X248797227Y-123660551D01*
X248912442Y-123574301D01*
X248998692Y-123459086D01*
X249048987Y-123324238D01*
X249055396Y-123264628D01*
X249055395Y-119668889D01*
X264874395Y-119668889D01*
X264874395Y-123264624D01*
X264874396Y-123264630D01*
X264880803Y-123324237D01*
X264931097Y-123459082D01*
X264931101Y-123459089D01*
X265017347Y-123574298D01*
X265017350Y-123574301D01*
X265132559Y-123660547D01*
X265132566Y-123660551D01*
X265267412Y-123710845D01*
X265267411Y-123710845D01*
X265274339Y-123711589D01*
X265327022Y-123717254D01*
X268922767Y-123717253D01*
X268982378Y-123710845D01*
X269117226Y-123660550D01*
X269232441Y-123574300D01*
X269318691Y-123459085D01*
X269368986Y-123324237D01*
X269375395Y-123264627D01*
X269375394Y-119668882D01*
X269368986Y-119609271D01*
X269318691Y-119474423D01*
X269318690Y-119474422D01*
X269318688Y-119474418D01*
X269232442Y-119359209D01*
X269232439Y-119359206D01*
X269117230Y-119272960D01*
X269117223Y-119272956D01*
X268982377Y-119222662D01*
X268982378Y-119222662D01*
X268922778Y-119216255D01*
X268922776Y-119216254D01*
X268922768Y-119216254D01*
X268922759Y-119216254D01*
X265327024Y-119216254D01*
X265327018Y-119216255D01*
X265267411Y-119222662D01*
X265132566Y-119272956D01*
X265132559Y-119272960D01*
X265017350Y-119359206D01*
X265017347Y-119359209D01*
X264931101Y-119474418D01*
X264931097Y-119474425D01*
X264880803Y-119609271D01*
X264874396Y-119668870D01*
X264874396Y-119668878D01*
X264874395Y-119668889D01*
X249055395Y-119668889D01*
X249055395Y-119668883D01*
X249048987Y-119609272D01*
X249048986Y-119609270D01*
X248998693Y-119474426D01*
X248998689Y-119474419D01*
X248912443Y-119359210D01*
X248912440Y-119359207D01*
X248797231Y-119272961D01*
X248797224Y-119272957D01*
X248662378Y-119222663D01*
X248662379Y-119222663D01*
X248602779Y-119216256D01*
X248602777Y-119216255D01*
X248602769Y-119216255D01*
X248602760Y-119216255D01*
X245007025Y-119216255D01*
X245007019Y-119216256D01*
X244947412Y-119222663D01*
X244812567Y-119272957D01*
X244812560Y-119272961D01*
X244697351Y-119359207D01*
X244697348Y-119359210D01*
X244611102Y-119474419D01*
X244611098Y-119474426D01*
X244560804Y-119609272D01*
X244554397Y-119668870D01*
X244554397Y-119668878D01*
X244554396Y-119668890D01*
X228735394Y-119668890D01*
X228735394Y-119668883D01*
X228728986Y-119609272D01*
X228728985Y-119609270D01*
X228678692Y-119474426D01*
X228678688Y-119474419D01*
X228592442Y-119359210D01*
X228592439Y-119359207D01*
X228477230Y-119272961D01*
X228477223Y-119272957D01*
X228342377Y-119222663D01*
X228342378Y-119222663D01*
X228282778Y-119216256D01*
X228282776Y-119216255D01*
X228282768Y-119216255D01*
X228282759Y-119216255D01*
X224687024Y-119216255D01*
X224687018Y-119216256D01*
X224627411Y-119222663D01*
X224492566Y-119272957D01*
X224492559Y-119272961D01*
X224377350Y-119359207D01*
X224377347Y-119359210D01*
X224291101Y-119474419D01*
X224291097Y-119474426D01*
X224240803Y-119609272D01*
X224234396Y-119668870D01*
X224234396Y-119668878D01*
X224234395Y-119668890D01*
X208415395Y-119668890D01*
X208415395Y-119668882D01*
X208408987Y-119609271D01*
X208358692Y-119474423D01*
X208358691Y-119474422D01*
X208358689Y-119474418D01*
X208272443Y-119359209D01*
X208272440Y-119359206D01*
X208157231Y-119272960D01*
X208157224Y-119272956D01*
X208022378Y-119222662D01*
X208022379Y-119222662D01*
X207962779Y-119216255D01*
X207962777Y-119216254D01*
X207962769Y-119216254D01*
X207962760Y-119216254D01*
X204367025Y-119216254D01*
X204367019Y-119216255D01*
X204307412Y-119222662D01*
X204172567Y-119272956D01*
X204172560Y-119272960D01*
X204057351Y-119359206D01*
X204057348Y-119359209D01*
X203971102Y-119474418D01*
X203971098Y-119474425D01*
X203920804Y-119609271D01*
X203914397Y-119668870D01*
X203914397Y-119668878D01*
X203914396Y-119668889D01*
X188095394Y-119668889D01*
X188095394Y-119668882D01*
X188088986Y-119609271D01*
X188038691Y-119474423D01*
X188038690Y-119474422D01*
X188038688Y-119474418D01*
X187952442Y-119359209D01*
X187952439Y-119359206D01*
X187837230Y-119272960D01*
X187837223Y-119272956D01*
X187702377Y-119222662D01*
X187702378Y-119222662D01*
X187642778Y-119216255D01*
X187642776Y-119216254D01*
X187642768Y-119216254D01*
X187642759Y-119216254D01*
X184047024Y-119216254D01*
X184047018Y-119216255D01*
X183987411Y-119222662D01*
X183852566Y-119272956D01*
X183852559Y-119272960D01*
X183737350Y-119359206D01*
X183737347Y-119359209D01*
X183651101Y-119474418D01*
X183651097Y-119474425D01*
X183600803Y-119609271D01*
X183594396Y-119668870D01*
X183594396Y-119668878D01*
X183594395Y-119668889D01*
X167775395Y-119668889D01*
X167775395Y-119668883D01*
X167768987Y-119609272D01*
X167768986Y-119609270D01*
X167718693Y-119474426D01*
X167718689Y-119474419D01*
X167632443Y-119359210D01*
X167632440Y-119359207D01*
X167517231Y-119272961D01*
X167517224Y-119272957D01*
X167382378Y-119222663D01*
X167382379Y-119222663D01*
X167322779Y-119216256D01*
X167322777Y-119216255D01*
X167322769Y-119216255D01*
X167322760Y-119216255D01*
X163727025Y-119216255D01*
X163727019Y-119216256D01*
X163667412Y-119222663D01*
X163532567Y-119272957D01*
X163532560Y-119272961D01*
X163417351Y-119359207D01*
X163417348Y-119359210D01*
X163331102Y-119474419D01*
X163331098Y-119474426D01*
X163280804Y-119609272D01*
X163274397Y-119668870D01*
X163274397Y-119668878D01*
X163274396Y-119668890D01*
X147455395Y-119668890D01*
X147455395Y-119668883D01*
X147448987Y-119609272D01*
X147448986Y-119609270D01*
X147398693Y-119474426D01*
X147398689Y-119474419D01*
X147312443Y-119359210D01*
X147312440Y-119359207D01*
X147197231Y-119272961D01*
X147197224Y-119272957D01*
X147062378Y-119222663D01*
X147062379Y-119222663D01*
X147002779Y-119216256D01*
X147002777Y-119216255D01*
X147002769Y-119216255D01*
X147002760Y-119216255D01*
X143407025Y-119216255D01*
X143407019Y-119216256D01*
X143347412Y-119222663D01*
X143212567Y-119272957D01*
X143212560Y-119272961D01*
X143097351Y-119359207D01*
X143097348Y-119359210D01*
X143011102Y-119474419D01*
X143011098Y-119474426D01*
X142960804Y-119609272D01*
X142954397Y-119668870D01*
X142954397Y-119668878D01*
X142954396Y-119668890D01*
X134904500Y-119668890D01*
X134904500Y-111466754D01*
X135999253Y-111466754D01*
X135999253Y-111466755D01*
X136019780Y-111688290D01*
X136019781Y-111688292D01*
X136080665Y-111902278D01*
X136080671Y-111902293D01*
X136179834Y-112101438D01*
X136179839Y-112101446D01*
X136313916Y-112278993D01*
X136478333Y-112428878D01*
X136478335Y-112428880D01*
X136667491Y-112546000D01*
X136667492Y-112546000D01*
X136667495Y-112546002D01*
X136874956Y-112626373D01*
X137093653Y-112667255D01*
X137093655Y-112667255D01*
X137316137Y-112667255D01*
X137316139Y-112667255D01*
X137534836Y-112626373D01*
X137742297Y-112546002D01*
X137931458Y-112428879D01*
X138095877Y-112278991D01*
X138229954Y-112101444D01*
X138329125Y-111902283D01*
X138390011Y-111688291D01*
X138410539Y-111466755D01*
X138410539Y-111466754D01*
X146999253Y-111466754D01*
X146999253Y-111466755D01*
X147019780Y-111688290D01*
X147019781Y-111688292D01*
X147080665Y-111902278D01*
X147080671Y-111902293D01*
X147179834Y-112101438D01*
X147179839Y-112101446D01*
X147313916Y-112278993D01*
X147478333Y-112428878D01*
X147478335Y-112428880D01*
X147667491Y-112546000D01*
X147667492Y-112546000D01*
X147667495Y-112546002D01*
X147874956Y-112626373D01*
X148093653Y-112667255D01*
X148093655Y-112667255D01*
X148316137Y-112667255D01*
X148316139Y-112667255D01*
X148534836Y-112626373D01*
X148742297Y-112546002D01*
X148931458Y-112428879D01*
X149095877Y-112278991D01*
X149229954Y-112101444D01*
X149329125Y-111902283D01*
X149390011Y-111688291D01*
X149410539Y-111466755D01*
X149410539Y-111466754D01*
X156319253Y-111466754D01*
X156319253Y-111466755D01*
X156339780Y-111688290D01*
X156339781Y-111688292D01*
X156400665Y-111902278D01*
X156400671Y-111902293D01*
X156499834Y-112101438D01*
X156499839Y-112101446D01*
X156633916Y-112278993D01*
X156798333Y-112428878D01*
X156798335Y-112428880D01*
X156987491Y-112546000D01*
X156987492Y-112546000D01*
X156987495Y-112546002D01*
X157194956Y-112626373D01*
X157413653Y-112667255D01*
X157413655Y-112667255D01*
X157636137Y-112667255D01*
X157636139Y-112667255D01*
X157854836Y-112626373D01*
X158062297Y-112546002D01*
X158251458Y-112428879D01*
X158415877Y-112278991D01*
X158549954Y-112101444D01*
X158649125Y-111902283D01*
X158710011Y-111688291D01*
X158730539Y-111466755D01*
X158730539Y-111466754D01*
X167319253Y-111466754D01*
X167319253Y-111466755D01*
X167339780Y-111688290D01*
X167339781Y-111688292D01*
X167400665Y-111902278D01*
X167400671Y-111902293D01*
X167499834Y-112101438D01*
X167499839Y-112101446D01*
X167633916Y-112278993D01*
X167798333Y-112428878D01*
X167798335Y-112428880D01*
X167987491Y-112546000D01*
X167987492Y-112546000D01*
X167987495Y-112546002D01*
X168194956Y-112626373D01*
X168413653Y-112667255D01*
X168413655Y-112667255D01*
X168636137Y-112667255D01*
X168636139Y-112667255D01*
X168854836Y-112626373D01*
X169062297Y-112546002D01*
X169251458Y-112428879D01*
X169415877Y-112278991D01*
X169549954Y-112101444D01*
X169649125Y-111902283D01*
X169710011Y-111688291D01*
X169730539Y-111466755D01*
X169730539Y-111466753D01*
X176639252Y-111466753D01*
X176639252Y-111466754D01*
X176659779Y-111688289D01*
X176659780Y-111688291D01*
X176720664Y-111902277D01*
X176720670Y-111902292D01*
X176819833Y-112101437D01*
X176819838Y-112101445D01*
X176953915Y-112278992D01*
X177118332Y-112428877D01*
X177118334Y-112428879D01*
X177307490Y-112545999D01*
X177307491Y-112545999D01*
X177307494Y-112546001D01*
X177514955Y-112626372D01*
X177733652Y-112667254D01*
X177733654Y-112667254D01*
X177956136Y-112667254D01*
X177956138Y-112667254D01*
X178174835Y-112626372D01*
X178382296Y-112546001D01*
X178571457Y-112428878D01*
X178735876Y-112278990D01*
X178869953Y-112101443D01*
X178969124Y-111902282D01*
X179030010Y-111688290D01*
X179050538Y-111466754D01*
X179050538Y-111466753D01*
X187639252Y-111466753D01*
X187639252Y-111466754D01*
X187659779Y-111688289D01*
X187659780Y-111688291D01*
X187720664Y-111902277D01*
X187720670Y-111902292D01*
X187819833Y-112101437D01*
X187819838Y-112101445D01*
X187953915Y-112278992D01*
X188118332Y-112428877D01*
X188118334Y-112428879D01*
X188307490Y-112545999D01*
X188307491Y-112545999D01*
X188307494Y-112546001D01*
X188514955Y-112626372D01*
X188733652Y-112667254D01*
X188733654Y-112667254D01*
X188956136Y-112667254D01*
X188956138Y-112667254D01*
X189174835Y-112626372D01*
X189382296Y-112546001D01*
X189571457Y-112428878D01*
X189735876Y-112278990D01*
X189869953Y-112101443D01*
X189969124Y-111902282D01*
X190030010Y-111688290D01*
X190050538Y-111466754D01*
X190050538Y-111466753D01*
X196959253Y-111466753D01*
X196959253Y-111466754D01*
X196979780Y-111688289D01*
X196979781Y-111688291D01*
X197040665Y-111902277D01*
X197040671Y-111902292D01*
X197139834Y-112101437D01*
X197139839Y-112101445D01*
X197273916Y-112278992D01*
X197438333Y-112428877D01*
X197438335Y-112428879D01*
X197627491Y-112545999D01*
X197627492Y-112545999D01*
X197627495Y-112546001D01*
X197834956Y-112626372D01*
X198053653Y-112667254D01*
X198053655Y-112667254D01*
X198276137Y-112667254D01*
X198276139Y-112667254D01*
X198494836Y-112626372D01*
X198702297Y-112546001D01*
X198891458Y-112428878D01*
X199055877Y-112278990D01*
X199189954Y-112101443D01*
X199289125Y-111902282D01*
X199350011Y-111688290D01*
X199370539Y-111466754D01*
X199370539Y-111466753D01*
X207959253Y-111466753D01*
X207959253Y-111466754D01*
X207979780Y-111688289D01*
X207979781Y-111688291D01*
X208040665Y-111902277D01*
X208040671Y-111902292D01*
X208139834Y-112101437D01*
X208139839Y-112101445D01*
X208273916Y-112278992D01*
X208438333Y-112428877D01*
X208438335Y-112428879D01*
X208627491Y-112545999D01*
X208627492Y-112545999D01*
X208627495Y-112546001D01*
X208834956Y-112626372D01*
X209053653Y-112667254D01*
X209053655Y-112667254D01*
X209276137Y-112667254D01*
X209276139Y-112667254D01*
X209494836Y-112626372D01*
X209702297Y-112546001D01*
X209891458Y-112428878D01*
X210055877Y-112278990D01*
X210189954Y-112101443D01*
X210289125Y-111902282D01*
X210350011Y-111688290D01*
X210370539Y-111466754D01*
X217279252Y-111466754D01*
X217279252Y-111466755D01*
X217299779Y-111688290D01*
X217299780Y-111688292D01*
X217360664Y-111902278D01*
X217360670Y-111902293D01*
X217459833Y-112101438D01*
X217459838Y-112101446D01*
X217593915Y-112278993D01*
X217758332Y-112428878D01*
X217758334Y-112428880D01*
X217947490Y-112546000D01*
X217947491Y-112546000D01*
X217947494Y-112546002D01*
X218154955Y-112626373D01*
X218373652Y-112667255D01*
X218373654Y-112667255D01*
X218596136Y-112667255D01*
X218596138Y-112667255D01*
X218814835Y-112626373D01*
X219022296Y-112546002D01*
X219211457Y-112428879D01*
X219375876Y-112278991D01*
X219509953Y-112101444D01*
X219609124Y-111902283D01*
X219670010Y-111688291D01*
X219690538Y-111466755D01*
X219690538Y-111466754D01*
X228279252Y-111466754D01*
X228279252Y-111466755D01*
X228299779Y-111688290D01*
X228299780Y-111688292D01*
X228360664Y-111902278D01*
X228360670Y-111902293D01*
X228459833Y-112101438D01*
X228459838Y-112101446D01*
X228593915Y-112278993D01*
X228758332Y-112428878D01*
X228758334Y-112428880D01*
X228947490Y-112546000D01*
X228947491Y-112546000D01*
X228947494Y-112546002D01*
X229154955Y-112626373D01*
X229373652Y-112667255D01*
X229373654Y-112667255D01*
X229596136Y-112667255D01*
X229596138Y-112667255D01*
X229814835Y-112626373D01*
X230022296Y-112546002D01*
X230211457Y-112428879D01*
X230375876Y-112278991D01*
X230509953Y-112101444D01*
X230609124Y-111902283D01*
X230670010Y-111688291D01*
X230690538Y-111466755D01*
X230690538Y-111466754D01*
X237599253Y-111466754D01*
X237599253Y-111466755D01*
X237619780Y-111688290D01*
X237619781Y-111688292D01*
X237680665Y-111902278D01*
X237680671Y-111902293D01*
X237779834Y-112101438D01*
X237779839Y-112101446D01*
X237913916Y-112278993D01*
X238078333Y-112428878D01*
X238078335Y-112428880D01*
X238267491Y-112546000D01*
X238267492Y-112546000D01*
X238267495Y-112546002D01*
X238474956Y-112626373D01*
X238693653Y-112667255D01*
X238693655Y-112667255D01*
X238916137Y-112667255D01*
X238916139Y-112667255D01*
X239134836Y-112626373D01*
X239342297Y-112546002D01*
X239531458Y-112428879D01*
X239695877Y-112278991D01*
X239829954Y-112101444D01*
X239929125Y-111902283D01*
X239990011Y-111688291D01*
X240010539Y-111466755D01*
X240010539Y-111466754D01*
X248599253Y-111466754D01*
X248599253Y-111466755D01*
X248619780Y-111688290D01*
X248619781Y-111688292D01*
X248680665Y-111902278D01*
X248680671Y-111902293D01*
X248779834Y-112101438D01*
X248779839Y-112101446D01*
X248913916Y-112278993D01*
X249078333Y-112428878D01*
X249078335Y-112428880D01*
X249267491Y-112546000D01*
X249267492Y-112546000D01*
X249267495Y-112546002D01*
X249474956Y-112626373D01*
X249693653Y-112667255D01*
X249693655Y-112667255D01*
X249916137Y-112667255D01*
X249916139Y-112667255D01*
X250134836Y-112626373D01*
X250342297Y-112546002D01*
X250531458Y-112428879D01*
X250695877Y-112278991D01*
X250829954Y-112101444D01*
X250929125Y-111902283D01*
X250990011Y-111688291D01*
X251010539Y-111466755D01*
X251010539Y-111466753D01*
X257919252Y-111466753D01*
X257919252Y-111466754D01*
X257939779Y-111688289D01*
X257939780Y-111688291D01*
X258000664Y-111902277D01*
X258000670Y-111902292D01*
X258099833Y-112101437D01*
X258099838Y-112101445D01*
X258233915Y-112278992D01*
X258398332Y-112428877D01*
X258398334Y-112428879D01*
X258587490Y-112545999D01*
X258587491Y-112545999D01*
X258587494Y-112546001D01*
X258794955Y-112626372D01*
X259013652Y-112667254D01*
X259013654Y-112667254D01*
X259236136Y-112667254D01*
X259236138Y-112667254D01*
X259454835Y-112626372D01*
X259662296Y-112546001D01*
X259851457Y-112428878D01*
X260015876Y-112278990D01*
X260149953Y-112101443D01*
X260249124Y-111902282D01*
X260310010Y-111688290D01*
X260330538Y-111466754D01*
X260330538Y-111466753D01*
X268919252Y-111466753D01*
X268919252Y-111466754D01*
X268939779Y-111688289D01*
X268939780Y-111688291D01*
X269000664Y-111902277D01*
X269000670Y-111902292D01*
X269099833Y-112101437D01*
X269099838Y-112101445D01*
X269233915Y-112278992D01*
X269398332Y-112428877D01*
X269398334Y-112428879D01*
X269587490Y-112545999D01*
X269587491Y-112545999D01*
X269587494Y-112546001D01*
X269794955Y-112626372D01*
X270013652Y-112667254D01*
X270013654Y-112667254D01*
X270236136Y-112667254D01*
X270236138Y-112667254D01*
X270454835Y-112626372D01*
X270662296Y-112546001D01*
X270851457Y-112428878D01*
X271015876Y-112278990D01*
X271149953Y-112101443D01*
X271249124Y-111902282D01*
X271310010Y-111688290D01*
X271330538Y-111466754D01*
X271310010Y-111245218D01*
X271249124Y-111031226D01*
X271149956Y-110832071D01*
X271149956Y-110832070D01*
X271149951Y-110832062D01*
X271015874Y-110654515D01*
X270851457Y-110504630D01*
X270851455Y-110504628D01*
X270662299Y-110387508D01*
X270662293Y-110387506D01*
X270454835Y-110307136D01*
X270236138Y-110266254D01*
X270013652Y-110266254D01*
X269794955Y-110307136D01*
X269663759Y-110357961D01*
X269587496Y-110387506D01*
X269587490Y-110387508D01*
X269398334Y-110504628D01*
X269398332Y-110504630D01*
X269233915Y-110654515D01*
X269099838Y-110832062D01*
X269099833Y-110832070D01*
X269000670Y-111031215D01*
X269000664Y-111031230D01*
X268939780Y-111245216D01*
X268939779Y-111245218D01*
X268919252Y-111466753D01*
X260330538Y-111466753D01*
X260310010Y-111245218D01*
X260249124Y-111031226D01*
X260149956Y-110832071D01*
X260149956Y-110832070D01*
X260149951Y-110832062D01*
X260015874Y-110654515D01*
X259851457Y-110504630D01*
X259851455Y-110504628D01*
X259662299Y-110387508D01*
X259662293Y-110387506D01*
X259454835Y-110307136D01*
X259236138Y-110266254D01*
X259013652Y-110266254D01*
X258794955Y-110307136D01*
X258663759Y-110357961D01*
X258587496Y-110387506D01*
X258587490Y-110387508D01*
X258398334Y-110504628D01*
X258398332Y-110504630D01*
X258233915Y-110654515D01*
X258099838Y-110832062D01*
X258099833Y-110832070D01*
X258000670Y-111031215D01*
X258000664Y-111031230D01*
X257939780Y-111245216D01*
X257939779Y-111245218D01*
X257919252Y-111466753D01*
X251010539Y-111466753D01*
X250990011Y-111245219D01*
X250929125Y-111031227D01*
X250929120Y-111031216D01*
X250829957Y-110832071D01*
X250829952Y-110832063D01*
X250695875Y-110654516D01*
X250531458Y-110504631D01*
X250531456Y-110504629D01*
X250342300Y-110387509D01*
X250342294Y-110387507D01*
X250134836Y-110307137D01*
X249916139Y-110266255D01*
X249693653Y-110266255D01*
X249474956Y-110307137D01*
X249343760Y-110357962D01*
X249267497Y-110387507D01*
X249267491Y-110387509D01*
X249078335Y-110504629D01*
X249078333Y-110504631D01*
X248913916Y-110654516D01*
X248779839Y-110832063D01*
X248779834Y-110832071D01*
X248680671Y-111031216D01*
X248680665Y-111031231D01*
X248619781Y-111245217D01*
X248619780Y-111245219D01*
X248599253Y-111466754D01*
X240010539Y-111466754D01*
X239990011Y-111245219D01*
X239929125Y-111031227D01*
X239929120Y-111031216D01*
X239829957Y-110832071D01*
X239829952Y-110832063D01*
X239695875Y-110654516D01*
X239531458Y-110504631D01*
X239531456Y-110504629D01*
X239342300Y-110387509D01*
X239342294Y-110387507D01*
X239134836Y-110307137D01*
X238916139Y-110266255D01*
X238693653Y-110266255D01*
X238474956Y-110307137D01*
X238343760Y-110357962D01*
X238267497Y-110387507D01*
X238267491Y-110387509D01*
X238078335Y-110504629D01*
X238078333Y-110504631D01*
X237913916Y-110654516D01*
X237779839Y-110832063D01*
X237779834Y-110832071D01*
X237680671Y-111031216D01*
X237680665Y-111031231D01*
X237619781Y-111245217D01*
X237619780Y-111245219D01*
X237599253Y-111466754D01*
X230690538Y-111466754D01*
X230670010Y-111245219D01*
X230609124Y-111031227D01*
X230609119Y-111031216D01*
X230509956Y-110832071D01*
X230509951Y-110832063D01*
X230375874Y-110654516D01*
X230211457Y-110504631D01*
X230211455Y-110504629D01*
X230022299Y-110387509D01*
X230022293Y-110387507D01*
X229814835Y-110307137D01*
X229596138Y-110266255D01*
X229373652Y-110266255D01*
X229154955Y-110307137D01*
X229023759Y-110357962D01*
X228947496Y-110387507D01*
X228947490Y-110387509D01*
X228758334Y-110504629D01*
X228758332Y-110504631D01*
X228593915Y-110654516D01*
X228459838Y-110832063D01*
X228459833Y-110832071D01*
X228360670Y-111031216D01*
X228360664Y-111031231D01*
X228299780Y-111245217D01*
X228299779Y-111245219D01*
X228279252Y-111466754D01*
X219690538Y-111466754D01*
X219670010Y-111245219D01*
X219609124Y-111031227D01*
X219609119Y-111031216D01*
X219509956Y-110832071D01*
X219509951Y-110832063D01*
X219375874Y-110654516D01*
X219211457Y-110504631D01*
X219211455Y-110504629D01*
X219022299Y-110387509D01*
X219022293Y-110387507D01*
X218814835Y-110307137D01*
X218596138Y-110266255D01*
X218373652Y-110266255D01*
X218154955Y-110307137D01*
X218023759Y-110357962D01*
X217947496Y-110387507D01*
X217947490Y-110387509D01*
X217758334Y-110504629D01*
X217758332Y-110504631D01*
X217593915Y-110654516D01*
X217459838Y-110832063D01*
X217459833Y-110832071D01*
X217360670Y-111031216D01*
X217360664Y-111031231D01*
X217299780Y-111245217D01*
X217299779Y-111245219D01*
X217279252Y-111466754D01*
X210370539Y-111466754D01*
X210350011Y-111245218D01*
X210289125Y-111031226D01*
X210189957Y-110832071D01*
X210189957Y-110832070D01*
X210189952Y-110832062D01*
X210055875Y-110654515D01*
X209891458Y-110504630D01*
X209891456Y-110504628D01*
X209702300Y-110387508D01*
X209702294Y-110387506D01*
X209494836Y-110307136D01*
X209276139Y-110266254D01*
X209053653Y-110266254D01*
X208834956Y-110307136D01*
X208703760Y-110357961D01*
X208627497Y-110387506D01*
X208627491Y-110387508D01*
X208438335Y-110504628D01*
X208438333Y-110504630D01*
X208273916Y-110654515D01*
X208139839Y-110832062D01*
X208139834Y-110832070D01*
X208040671Y-111031215D01*
X208040665Y-111031230D01*
X207979781Y-111245216D01*
X207979780Y-111245218D01*
X207959253Y-111466753D01*
X199370539Y-111466753D01*
X199350011Y-111245218D01*
X199289125Y-111031226D01*
X199189957Y-110832071D01*
X199189957Y-110832070D01*
X199189952Y-110832062D01*
X199055875Y-110654515D01*
X198891458Y-110504630D01*
X198891456Y-110504628D01*
X198702300Y-110387508D01*
X198702294Y-110387506D01*
X198494836Y-110307136D01*
X198276139Y-110266254D01*
X198053653Y-110266254D01*
X197834956Y-110307136D01*
X197703760Y-110357961D01*
X197627497Y-110387506D01*
X197627491Y-110387508D01*
X197438335Y-110504628D01*
X197438333Y-110504630D01*
X197273916Y-110654515D01*
X197139839Y-110832062D01*
X197139834Y-110832070D01*
X197040671Y-111031215D01*
X197040665Y-111031230D01*
X196979781Y-111245216D01*
X196979780Y-111245218D01*
X196959253Y-111466753D01*
X190050538Y-111466753D01*
X190030010Y-111245218D01*
X189969124Y-111031226D01*
X189869956Y-110832071D01*
X189869956Y-110832070D01*
X189869951Y-110832062D01*
X189735874Y-110654515D01*
X189571457Y-110504630D01*
X189571455Y-110504628D01*
X189382299Y-110387508D01*
X189382293Y-110387506D01*
X189174835Y-110307136D01*
X188956138Y-110266254D01*
X188733652Y-110266254D01*
X188514955Y-110307136D01*
X188383759Y-110357961D01*
X188307496Y-110387506D01*
X188307490Y-110387508D01*
X188118334Y-110504628D01*
X188118332Y-110504630D01*
X187953915Y-110654515D01*
X187819838Y-110832062D01*
X187819833Y-110832070D01*
X187720670Y-111031215D01*
X187720664Y-111031230D01*
X187659780Y-111245216D01*
X187659779Y-111245218D01*
X187639252Y-111466753D01*
X179050538Y-111466753D01*
X179030010Y-111245218D01*
X178969124Y-111031226D01*
X178869956Y-110832071D01*
X178869956Y-110832070D01*
X178869951Y-110832062D01*
X178735874Y-110654515D01*
X178571457Y-110504630D01*
X178571455Y-110504628D01*
X178382299Y-110387508D01*
X178382293Y-110387506D01*
X178174835Y-110307136D01*
X177956138Y-110266254D01*
X177733652Y-110266254D01*
X177514955Y-110307136D01*
X177383759Y-110357961D01*
X177307496Y-110387506D01*
X177307490Y-110387508D01*
X177118334Y-110504628D01*
X177118332Y-110504630D01*
X176953915Y-110654515D01*
X176819838Y-110832062D01*
X176819833Y-110832070D01*
X176720670Y-111031215D01*
X176720664Y-111031230D01*
X176659780Y-111245216D01*
X176659779Y-111245218D01*
X176639252Y-111466753D01*
X169730539Y-111466753D01*
X169710011Y-111245219D01*
X169649125Y-111031227D01*
X169649120Y-111031216D01*
X169549957Y-110832071D01*
X169549952Y-110832063D01*
X169415875Y-110654516D01*
X169251458Y-110504631D01*
X169251456Y-110504629D01*
X169062300Y-110387509D01*
X169062294Y-110387507D01*
X168854836Y-110307137D01*
X168636139Y-110266255D01*
X168413653Y-110266255D01*
X168194956Y-110307137D01*
X168063760Y-110357962D01*
X167987497Y-110387507D01*
X167987491Y-110387509D01*
X167798335Y-110504629D01*
X167798333Y-110504631D01*
X167633916Y-110654516D01*
X167499839Y-110832063D01*
X167499834Y-110832071D01*
X167400671Y-111031216D01*
X167400665Y-111031231D01*
X167339781Y-111245217D01*
X167339780Y-111245219D01*
X167319253Y-111466754D01*
X158730539Y-111466754D01*
X158710011Y-111245219D01*
X158649125Y-111031227D01*
X158649120Y-111031216D01*
X158549957Y-110832071D01*
X158549952Y-110832063D01*
X158415875Y-110654516D01*
X158251458Y-110504631D01*
X158251456Y-110504629D01*
X158062300Y-110387509D01*
X158062294Y-110387507D01*
X157854836Y-110307137D01*
X157636139Y-110266255D01*
X157413653Y-110266255D01*
X157194956Y-110307137D01*
X157063760Y-110357962D01*
X156987497Y-110387507D01*
X156987491Y-110387509D01*
X156798335Y-110504629D01*
X156798333Y-110504631D01*
X156633916Y-110654516D01*
X156499839Y-110832063D01*
X156499834Y-110832071D01*
X156400671Y-111031216D01*
X156400665Y-111031231D01*
X156339781Y-111245217D01*
X156339780Y-111245219D01*
X156319253Y-111466754D01*
X149410539Y-111466754D01*
X149390011Y-111245219D01*
X149329125Y-111031227D01*
X149329120Y-111031216D01*
X149229957Y-110832071D01*
X149229952Y-110832063D01*
X149095875Y-110654516D01*
X148931458Y-110504631D01*
X148931456Y-110504629D01*
X148742300Y-110387509D01*
X148742294Y-110387507D01*
X148534836Y-110307137D01*
X148316139Y-110266255D01*
X148093653Y-110266255D01*
X147874956Y-110307137D01*
X147743760Y-110357962D01*
X147667497Y-110387507D01*
X147667491Y-110387509D01*
X147478335Y-110504629D01*
X147478333Y-110504631D01*
X147313916Y-110654516D01*
X147179839Y-110832063D01*
X147179834Y-110832071D01*
X147080671Y-111031216D01*
X147080665Y-111031231D01*
X147019781Y-111245217D01*
X147019780Y-111245219D01*
X146999253Y-111466754D01*
X138410539Y-111466754D01*
X138390011Y-111245219D01*
X138329125Y-111031227D01*
X138329120Y-111031216D01*
X138229957Y-110832071D01*
X138229952Y-110832063D01*
X138095875Y-110654516D01*
X137931458Y-110504631D01*
X137931456Y-110504629D01*
X137742300Y-110387509D01*
X137742294Y-110387507D01*
X137534836Y-110307137D01*
X137316139Y-110266255D01*
X137093653Y-110266255D01*
X136874956Y-110307137D01*
X136743760Y-110357962D01*
X136667497Y-110387507D01*
X136667491Y-110387509D01*
X136478335Y-110504629D01*
X136478333Y-110504631D01*
X136313916Y-110654516D01*
X136179839Y-110832063D01*
X136179834Y-110832071D01*
X136080671Y-111031216D01*
X136080665Y-111031231D01*
X136019781Y-111245217D01*
X136019780Y-111245219D01*
X135999253Y-111466754D01*
X134904500Y-111466754D01*
X134904500Y-109432315D01*
X134924185Y-109365276D01*
X134976989Y-109319521D01*
X135028500Y-109308315D01*
X272209500Y-109308315D01*
X272276539Y-109328000D01*
G37*
%TD.AperFunction*%
%TD*%
M02*
