%TF.GenerationSoftware,KiCad,Pcbnew,8.0.2-1*%
%TF.CreationDate,2024-09-06T21:09:21+10:00*%
%TF.ProjectId,ae-bbc-pcb,61652d62-6263-42d7-9063-622e6b696361,rev?*%
%TF.SameCoordinates,Original*%
%TF.FileFunction,Legend,Top*%
%TF.FilePolarity,Positive*%
%FSLAX46Y46*%
G04 Gerber Fmt 4.6, Leading zero omitted, Abs format (unit mm)*
G04 Created by KiCad (PCBNEW 8.0.2-1) date 2024-09-06 21:09:21*
%MOMM*%
%LPD*%
G01*
G04 APERTURE LIST*
G04 Aperture macros list*
%AMRoundRect*
0 Rectangle with rounded corners*
0 $1 Rounding radius*
0 $2 $3 $4 $5 $6 $7 $8 $9 X,Y pos of 4 corners*
0 Add a 4 corners polygon primitive as box body*
4,1,4,$2,$3,$4,$5,$6,$7,$8,$9,$2,$3,0*
0 Add four circle primitives for the rounded corners*
1,1,$1+$1,$2,$3*
1,1,$1+$1,$4,$5*
1,1,$1+$1,$6,$7*
1,1,$1+$1,$8,$9*
0 Add four rect primitives between the rounded corners*
20,1,$1+$1,$2,$3,$4,$5,0*
20,1,$1+$1,$4,$5,$6,$7,0*
20,1,$1+$1,$6,$7,$8,$9,0*
20,1,$1+$1,$8,$9,$2,$3,0*%
G04 Aperture macros list end*
%ADD10C,0.300000*%
%ADD11C,0.150000*%
%ADD12C,0.120000*%
%ADD13C,0.000000*%
%ADD14R,2.000000X0.900000*%
%ADD15RoundRect,1.025000X1.025000X-1.025000X1.025000X1.025000X-1.025000X1.025000X-1.025000X-1.025000X0*%
%ADD16C,4.100000*%
%ADD17C,1.400000*%
%ADD18R,3.500000X3.500000*%
%ADD19C,3.500000*%
%ADD20C,5.600000*%
G04 APERTURE END LIST*
D10*
G36*
X153290436Y-143021407D02*
G01*
X153292672Y-143367298D01*
X153247310Y-143461137D01*
X153158309Y-143507134D01*
X153061797Y-143508554D01*
X152969095Y-143463741D01*
X152923364Y-143375255D01*
X152921021Y-143012862D01*
X152922389Y-143008761D01*
X152920855Y-142987184D01*
X152920758Y-142972121D01*
X153264424Y-142971074D01*
X153290436Y-143021407D01*
G37*
G36*
X150363664Y-141859109D02*
G01*
X150414338Y-141907835D01*
X150473158Y-142021646D01*
X150475011Y-142201168D01*
X150420388Y-142314166D01*
X150371663Y-142364837D01*
X150258152Y-142423502D01*
X149829008Y-142425839D01*
X149715331Y-142370888D01*
X149664659Y-142322163D01*
X149605838Y-142208350D01*
X149603985Y-142028830D01*
X149658610Y-141915831D01*
X149707334Y-141865159D01*
X149820844Y-141806495D01*
X150249989Y-141804158D01*
X150363664Y-141859109D01*
G37*
G36*
X153290484Y-140354832D02*
G01*
X153292572Y-140617506D01*
X153237790Y-140730833D01*
X153189065Y-140781504D01*
X153075554Y-140840169D01*
X152646410Y-140842506D01*
X152532733Y-140787555D01*
X152482061Y-140738830D01*
X152423316Y-140625164D01*
X152421228Y-140362492D01*
X152448384Y-140306317D01*
X153264569Y-140304690D01*
X153290484Y-140354832D01*
G37*
G36*
X152676593Y-139258793D02*
G01*
X152563260Y-139259262D01*
X152469095Y-139213742D01*
X152423316Y-139125164D01*
X152421228Y-138862492D01*
X152466491Y-138768860D01*
X152555491Y-138722863D01*
X152567543Y-138722686D01*
X152676593Y-139258793D01*
G37*
G36*
X154368011Y-147334442D02*
G01*
X148528388Y-147334442D01*
X148528388Y-146239998D01*
X151540234Y-146239998D01*
X151542695Y-146407352D01*
X151541411Y-146425425D01*
X151543068Y-146432715D01*
X151543116Y-146435929D01*
X151544631Y-146439586D01*
X151547931Y-146454099D01*
X151626449Y-146682144D01*
X151626449Y-146685928D01*
X151634167Y-146704562D01*
X151643253Y-146730950D01*
X151646783Y-146735020D01*
X151648846Y-146740000D01*
X151667501Y-146762731D01*
X151835523Y-146927137D01*
X151848267Y-146941831D01*
X151854640Y-146945843D01*
X151856899Y-146948053D01*
X151860560Y-146949569D01*
X151873152Y-146957496D01*
X152032054Y-147034309D01*
X152042829Y-147042293D01*
X152064827Y-147050151D01*
X152067283Y-147051339D01*
X152068365Y-147051415D01*
X152070521Y-147052186D01*
X152395843Y-147130850D01*
X152410970Y-147137116D01*
X152429167Y-147138908D01*
X152432943Y-147139821D01*
X152435130Y-147139495D01*
X152440234Y-147139998D01*
X152681951Y-147137503D01*
X152697525Y-147139821D01*
X152715539Y-147137156D01*
X152719498Y-147137116D01*
X152721542Y-147136268D01*
X152726614Y-147135519D01*
X153048592Y-147052375D01*
X153063185Y-147051339D01*
X153085131Y-147042940D01*
X153087639Y-147042293D01*
X153088510Y-147041647D01*
X153090649Y-147040829D01*
X153256409Y-146955160D01*
X153273569Y-146948053D01*
X153279363Y-146943297D01*
X153282201Y-146941831D01*
X153284795Y-146938839D01*
X153296300Y-146929398D01*
X153445631Y-146776782D01*
X153448868Y-146775164D01*
X153461765Y-146760293D01*
X153481622Y-146740000D01*
X153483684Y-146735020D01*
X153487215Y-146730950D01*
X153499204Y-146704099D01*
X153579758Y-146454260D01*
X153587352Y-146435929D01*
X153588092Y-146428414D01*
X153589056Y-146425425D01*
X153588775Y-146421476D01*
X153590234Y-146406665D01*
X153587772Y-146239301D01*
X153589056Y-146221238D01*
X153587399Y-146213951D01*
X153587352Y-146210734D01*
X153585835Y-146207073D01*
X153582537Y-146192564D01*
X153504018Y-145964515D01*
X153504018Y-145960734D01*
X153496303Y-145942108D01*
X153487215Y-145915713D01*
X153483683Y-145911641D01*
X153481621Y-145906662D01*
X153462966Y-145883931D01*
X153356902Y-145781944D01*
X153302829Y-145759547D01*
X153244303Y-145759547D01*
X153190231Y-145781945D01*
X153148846Y-145823330D01*
X153126449Y-145877403D01*
X153126449Y-145935929D01*
X153148847Y-145990001D01*
X153167502Y-146012732D01*
X153225193Y-146068206D01*
X153290496Y-146257870D01*
X153292247Y-146376859D01*
X153229049Y-146572863D01*
X153107162Y-146697431D01*
X152980587Y-146762848D01*
X152681468Y-146840088D01*
X152467593Y-146842295D01*
X152169010Y-146770097D01*
X152033197Y-146704444D01*
X151905699Y-146579690D01*
X151839971Y-146388792D01*
X151838220Y-146269803D01*
X151901607Y-146073211D01*
X151981621Y-145990001D01*
X152004018Y-145935929D01*
X152004019Y-145877403D01*
X151981622Y-145823331D01*
X151940237Y-145781945D01*
X151886165Y-145759548D01*
X151827639Y-145759547D01*
X151773566Y-145781944D01*
X151750835Y-145800599D01*
X151683639Y-145870479D01*
X151681600Y-145871499D01*
X151671857Y-145882732D01*
X151648847Y-145906662D01*
X151646784Y-145911641D01*
X151643253Y-145915713D01*
X151631264Y-145942564D01*
X151550705Y-146192412D01*
X151543116Y-146210734D01*
X151542376Y-146218243D01*
X151541411Y-146221238D01*
X151541692Y-146225192D01*
X151540234Y-146239998D01*
X148528388Y-146239998D01*
X148528388Y-144239999D01*
X148722832Y-144239999D01*
X148725714Y-145102595D01*
X148725714Y-145102596D01*
X148748112Y-145156668D01*
X148789496Y-145198052D01*
X148843568Y-145220450D01*
X148872832Y-145223332D01*
X150652096Y-145220450D01*
X150706168Y-145198052D01*
X150747552Y-145156668D01*
X150759675Y-145127401D01*
X151543116Y-145127401D01*
X151543116Y-145185929D01*
X151565514Y-145240001D01*
X151606898Y-145281385D01*
X151660970Y-145303783D01*
X151690234Y-145306665D01*
X153469498Y-145303783D01*
X153523570Y-145281385D01*
X153564954Y-145240001D01*
X153587352Y-145185929D01*
X153587352Y-145127401D01*
X153564954Y-145073329D01*
X153523570Y-145031945D01*
X153469498Y-145009547D01*
X153440234Y-145006665D01*
X152502190Y-145008184D01*
X152482061Y-144988829D01*
X152423240Y-144875016D01*
X152421387Y-144695496D01*
X152466491Y-144602192D01*
X152554766Y-144556569D01*
X153469498Y-144553783D01*
X153523570Y-144531385D01*
X153564954Y-144490001D01*
X153587352Y-144435929D01*
X153587352Y-144377401D01*
X153564954Y-144323329D01*
X153523570Y-144281945D01*
X153469498Y-144259547D01*
X153440234Y-144256665D01*
X152546958Y-144259386D01*
X152542328Y-144257843D01*
X152519428Y-144259470D01*
X152494303Y-144259547D01*
X152489322Y-144261610D01*
X152483948Y-144261992D01*
X152456485Y-144272501D01*
X152297201Y-144354821D01*
X152282618Y-144359683D01*
X152274981Y-144366305D01*
X152264933Y-144371499D01*
X152252610Y-144385707D01*
X152238402Y-144398030D01*
X152229078Y-144412841D01*
X152226587Y-144415714D01*
X152225818Y-144418020D01*
X152222737Y-144422915D01*
X152151129Y-144571046D01*
X152148847Y-144573329D01*
X152141787Y-144590372D01*
X152128893Y-144617046D01*
X152128510Y-144622423D01*
X152126449Y-144627401D01*
X152123567Y-144656665D01*
X152125917Y-144884387D01*
X152124745Y-144887904D01*
X152126158Y-144907801D01*
X152126449Y-144935929D01*
X152128510Y-144940906D01*
X152128893Y-144946284D01*
X152139403Y-144973747D01*
X152157489Y-145008742D01*
X151660970Y-145009547D01*
X151606898Y-145031945D01*
X151565514Y-145073329D01*
X151543116Y-145127401D01*
X150759675Y-145127401D01*
X150769950Y-145102596D01*
X150769950Y-145044068D01*
X150747552Y-144989996D01*
X150706168Y-144948612D01*
X150652096Y-144926214D01*
X150622832Y-144923332D01*
X149855465Y-144924574D01*
X149853283Y-144460735D01*
X149830885Y-144406663D01*
X149789501Y-144365279D01*
X149735429Y-144342881D01*
X149676901Y-144342881D01*
X149622829Y-144365279D01*
X149581445Y-144406663D01*
X149559047Y-144460735D01*
X149556165Y-144489999D01*
X149558211Y-144925056D01*
X149022339Y-144925924D01*
X149019950Y-144210735D01*
X148997552Y-144156663D01*
X148956168Y-144115279D01*
X148902096Y-144092881D01*
X148843568Y-144092881D01*
X148789496Y-144115279D01*
X148748112Y-144156663D01*
X148725714Y-144210735D01*
X148722832Y-144239999D01*
X148528388Y-144239999D01*
X148528388Y-143073332D01*
X149306165Y-143073332D01*
X149308298Y-143218371D01*
X149307343Y-143221238D01*
X149308600Y-143238938D01*
X149309047Y-143269263D01*
X149311110Y-143274243D01*
X149311492Y-143279618D01*
X149322001Y-143307082D01*
X149391211Y-143440997D01*
X149372829Y-143448612D01*
X149331445Y-143489996D01*
X149309047Y-143544068D01*
X149309047Y-143602596D01*
X149331445Y-143656668D01*
X149372829Y-143698052D01*
X149426901Y-143720450D01*
X149456165Y-143723332D01*
X150652096Y-143720450D01*
X150706168Y-143698052D01*
X150747552Y-143656668D01*
X150769950Y-143602596D01*
X150769950Y-143544068D01*
X150747552Y-143489996D01*
X150706168Y-143448612D01*
X150652096Y-143426214D01*
X150622832Y-143423332D01*
X149827784Y-143425247D01*
X149715331Y-143370888D01*
X149664659Y-143322162D01*
X149605695Y-143208073D01*
X149603713Y-143073332D01*
X152123567Y-143073332D01*
X152126036Y-143384029D01*
X152124745Y-143387904D01*
X152126233Y-143408858D01*
X152126449Y-143435929D01*
X152128510Y-143440906D01*
X152128893Y-143446284D01*
X152139403Y-143473747D01*
X152238402Y-143665300D01*
X152282618Y-143703647D01*
X152338140Y-143722154D01*
X152396520Y-143718006D01*
X152448869Y-143691831D01*
X152487216Y-143647616D01*
X152505723Y-143592094D01*
X152501575Y-143533713D01*
X152491065Y-143506250D01*
X152423316Y-143375163D01*
X152421228Y-143112491D01*
X152466491Y-143018859D01*
X152554766Y-142973236D01*
X152598805Y-142973102D01*
X152623769Y-143021407D01*
X152626112Y-143383802D01*
X152624745Y-143387904D01*
X152626278Y-143409480D01*
X152626449Y-143435929D01*
X152628510Y-143440906D01*
X152628893Y-143446284D01*
X152639403Y-143473747D01*
X152721726Y-143633033D01*
X152726587Y-143647616D01*
X152733208Y-143655250D01*
X152738402Y-143665300D01*
X152752610Y-143677622D01*
X152764933Y-143691831D01*
X152779742Y-143701153D01*
X152782618Y-143703647D01*
X152784927Y-143704416D01*
X152789819Y-143707496D01*
X152937947Y-143779101D01*
X152940231Y-143781385D01*
X152957286Y-143788449D01*
X152983948Y-143801338D01*
X152989322Y-143801719D01*
X152994303Y-143803783D01*
X153023567Y-143806665D01*
X153168605Y-143804531D01*
X153171472Y-143805487D01*
X153189177Y-143804228D01*
X153219498Y-143803783D01*
X153224476Y-143801720D01*
X153229852Y-143801339D01*
X153257316Y-143790829D01*
X153416599Y-143708507D01*
X153431185Y-143703646D01*
X153438820Y-143697023D01*
X153448868Y-143691831D01*
X153461191Y-143677622D01*
X153475400Y-143665299D01*
X153484721Y-143650490D01*
X153487215Y-143647616D01*
X153487984Y-143645307D01*
X153491065Y-143640414D01*
X153562671Y-143492283D01*
X153564954Y-143490001D01*
X153572015Y-143472952D01*
X153584908Y-143446283D01*
X153585289Y-143440907D01*
X153587352Y-143435929D01*
X153590234Y-143406665D01*
X153587688Y-143012862D01*
X153589056Y-143008761D01*
X153587522Y-142987184D01*
X153587352Y-142960735D01*
X153585289Y-142955756D01*
X153584908Y-142950381D01*
X153574398Y-142922917D01*
X153565419Y-142905544D01*
X153587352Y-142852596D01*
X153587352Y-142794068D01*
X153564954Y-142739996D01*
X153523570Y-142698612D01*
X153469498Y-142676214D01*
X153440234Y-142673332D01*
X152712117Y-142675550D01*
X152708996Y-142674510D01*
X152693557Y-142675606D01*
X152546958Y-142676053D01*
X152542328Y-142674510D01*
X152519428Y-142676137D01*
X152494303Y-142676214D01*
X152489322Y-142678277D01*
X152483948Y-142678659D01*
X152456485Y-142689168D01*
X152297201Y-142771488D01*
X152282618Y-142776350D01*
X152274981Y-142782972D01*
X152264933Y-142788166D01*
X152252610Y-142802374D01*
X152238402Y-142814697D01*
X152229078Y-142829508D01*
X152226587Y-142832381D01*
X152225818Y-142834687D01*
X152222737Y-142839582D01*
X152151129Y-142987713D01*
X152148847Y-142989996D01*
X152141787Y-143007039D01*
X152128893Y-143033713D01*
X152128510Y-143039090D01*
X152126449Y-143044068D01*
X152123567Y-143073332D01*
X149603713Y-143073332D01*
X149603283Y-143044068D01*
X149580885Y-142989996D01*
X149539501Y-142948612D01*
X149485429Y-142926214D01*
X149426901Y-142926214D01*
X149372829Y-142948612D01*
X149331445Y-142989996D01*
X149309047Y-143044068D01*
X149306165Y-143073332D01*
X148528388Y-143073332D01*
X148528388Y-141989999D01*
X149306165Y-141989999D01*
X149308515Y-142217721D01*
X149307343Y-142221238D01*
X149308756Y-142241135D01*
X149309047Y-142269263D01*
X149311108Y-142274240D01*
X149311491Y-142279618D01*
X149322001Y-142307081D01*
X149407672Y-142472847D01*
X149414778Y-142490001D01*
X149419532Y-142495793D01*
X149421000Y-142498634D01*
X149423993Y-142501230D01*
X149433433Y-142512732D01*
X149520009Y-142595981D01*
X149530865Y-142608498D01*
X149537123Y-142612437D01*
X149539497Y-142614720D01*
X149543158Y-142616236D01*
X149555750Y-142624163D01*
X149703880Y-142695769D01*
X149706163Y-142698052D01*
X149723211Y-142705113D01*
X149749881Y-142718006D01*
X149755256Y-142718387D01*
X149760235Y-142720450D01*
X149789499Y-142723332D01*
X150266479Y-142720734D01*
X150270737Y-142722154D01*
X150292724Y-142720591D01*
X150318763Y-142720450D01*
X150323740Y-142718388D01*
X150329118Y-142718006D01*
X150356581Y-142707496D01*
X150522342Y-142621826D01*
X150539500Y-142614720D01*
X150545294Y-142609964D01*
X150548132Y-142608498D01*
X150550725Y-142605507D01*
X150562230Y-142596066D01*
X150645480Y-142509489D01*
X150657998Y-142498633D01*
X150661937Y-142492374D01*
X150664219Y-142490002D01*
X150665734Y-142486342D01*
X150673663Y-142473748D01*
X150745269Y-142325617D01*
X150747552Y-142323335D01*
X150754613Y-142306286D01*
X150767506Y-142279617D01*
X150767887Y-142274241D01*
X150769950Y-142269263D01*
X150772832Y-142239999D01*
X150770481Y-142012277D01*
X150771654Y-142008761D01*
X150770240Y-141988864D01*
X150769950Y-141960735D01*
X150767887Y-141955756D01*
X150767506Y-141950381D01*
X150756996Y-141922917D01*
X150671324Y-141757150D01*
X150664219Y-141739996D01*
X150659464Y-141734202D01*
X150657998Y-141731365D01*
X150655006Y-141728770D01*
X150645564Y-141717265D01*
X150558986Y-141634015D01*
X150548132Y-141621500D01*
X150541873Y-141617560D01*
X150539500Y-141615278D01*
X150535839Y-141613761D01*
X150523247Y-141605835D01*
X150375117Y-141534228D01*
X150372835Y-141531946D01*
X150355792Y-141524886D01*
X150329118Y-141511992D01*
X150323740Y-141511609D01*
X150318763Y-141509548D01*
X150289499Y-141506666D01*
X149812518Y-141509263D01*
X149808261Y-141507844D01*
X149786274Y-141509406D01*
X149760235Y-141509548D01*
X149755256Y-141511610D01*
X149749881Y-141511992D01*
X149722417Y-141522502D01*
X149556656Y-141608170D01*
X149539497Y-141615278D01*
X149533702Y-141620033D01*
X149530865Y-141621500D01*
X149528270Y-141624491D01*
X149516766Y-141633933D01*
X149433520Y-141720505D01*
X149421000Y-141731364D01*
X149417058Y-141737625D01*
X149414778Y-141739997D01*
X149413262Y-141743655D01*
X149405335Y-141756249D01*
X149333727Y-141904380D01*
X149331445Y-141906663D01*
X149324385Y-141923706D01*
X149311491Y-141950380D01*
X149311108Y-141955757D01*
X149309047Y-141960735D01*
X149306165Y-141989999D01*
X148528388Y-141989999D01*
X148528388Y-141489999D01*
X152123567Y-141489999D01*
X152125700Y-141635038D01*
X152124745Y-141637905D01*
X152126002Y-141655605D01*
X152126449Y-141685930D01*
X152128512Y-141690910D01*
X152128894Y-141696285D01*
X152139403Y-141723749D01*
X152208613Y-141857664D01*
X152190231Y-141865279D01*
X152148847Y-141906663D01*
X152126449Y-141960735D01*
X152126449Y-142019263D01*
X152148847Y-142073335D01*
X152190231Y-142114719D01*
X152244303Y-142137117D01*
X152273567Y-142139999D01*
X153469498Y-142137117D01*
X153523570Y-142114719D01*
X153564954Y-142073335D01*
X153587352Y-142019263D01*
X153587352Y-141960735D01*
X153564954Y-141906663D01*
X153523570Y-141865279D01*
X153469498Y-141842881D01*
X153440234Y-141839999D01*
X152645186Y-141841914D01*
X152532733Y-141787555D01*
X152482061Y-141738829D01*
X152423097Y-141624740D01*
X152420685Y-141460735D01*
X152398287Y-141406663D01*
X152356903Y-141365279D01*
X152302831Y-141342881D01*
X152244303Y-141342881D01*
X152190231Y-141365279D01*
X152148847Y-141406663D01*
X152126449Y-141460735D01*
X152123567Y-141489999D01*
X148528388Y-141489999D01*
X148528388Y-139656666D01*
X149306165Y-139656666D01*
X149308515Y-139884388D01*
X149307343Y-139887905D01*
X149308756Y-139907802D01*
X149309047Y-139935930D01*
X149311108Y-139940907D01*
X149311491Y-139946285D01*
X149322001Y-139973748D01*
X149404324Y-140133034D01*
X149409185Y-140147617D01*
X149415806Y-140155251D01*
X149416098Y-140155817D01*
X149411676Y-140162842D01*
X149409185Y-140165715D01*
X149408416Y-140168021D01*
X149405335Y-140172916D01*
X149333727Y-140321047D01*
X149331445Y-140323330D01*
X149324385Y-140340373D01*
X149311491Y-140367047D01*
X149311108Y-140372424D01*
X149309047Y-140377402D01*
X149306165Y-140406666D01*
X149308515Y-140634388D01*
X149307343Y-140637905D01*
X149308756Y-140657802D01*
X149309047Y-140685930D01*
X149311108Y-140690907D01*
X149311491Y-140696285D01*
X149322001Y-140723748D01*
X149359149Y-140795625D01*
X149331445Y-140823330D01*
X149309047Y-140877402D01*
X149309047Y-140935930D01*
X149331445Y-140990002D01*
X149372829Y-141031386D01*
X149426901Y-141053784D01*
X149456165Y-141056666D01*
X150652096Y-141053784D01*
X150706168Y-141031386D01*
X150747552Y-140990002D01*
X150769950Y-140935930D01*
X150769950Y-140877402D01*
X150747552Y-140823330D01*
X150706168Y-140781946D01*
X150652096Y-140759548D01*
X150622832Y-140756666D01*
X149685557Y-140758924D01*
X149664659Y-140738830D01*
X149605838Y-140625017D01*
X149603985Y-140445497D01*
X149649089Y-140352193D01*
X149704930Y-140323333D01*
X152123567Y-140323333D01*
X152126036Y-140634030D01*
X152124745Y-140637905D01*
X152126233Y-140658859D01*
X152126449Y-140685930D01*
X152128510Y-140690907D01*
X152128893Y-140696285D01*
X152139403Y-140723748D01*
X152225074Y-140889514D01*
X152232180Y-140906668D01*
X152236934Y-140912460D01*
X152238402Y-140915301D01*
X152241395Y-140917897D01*
X152250835Y-140929399D01*
X152337411Y-141012648D01*
X152348267Y-141025165D01*
X152354525Y-141029104D01*
X152356899Y-141031387D01*
X152360560Y-141032903D01*
X152373152Y-141040830D01*
X152521282Y-141112436D01*
X152523565Y-141114719D01*
X152540613Y-141121780D01*
X152567283Y-141134673D01*
X152572658Y-141135054D01*
X152577637Y-141137117D01*
X152606901Y-141139999D01*
X153083881Y-141137401D01*
X153088139Y-141138821D01*
X153110126Y-141137258D01*
X153136165Y-141137117D01*
X153141142Y-141135055D01*
X153146520Y-141134673D01*
X153173983Y-141124163D01*
X153339744Y-141038493D01*
X153356902Y-141031387D01*
X153362696Y-141026631D01*
X153365534Y-141025165D01*
X153368127Y-141022174D01*
X153379632Y-141012733D01*
X153462882Y-140926156D01*
X153475400Y-140915300D01*
X153479339Y-140909041D01*
X153481621Y-140906669D01*
X153483136Y-140903009D01*
X153491065Y-140890415D01*
X153562671Y-140742284D01*
X153564954Y-140740002D01*
X153572015Y-140722953D01*
X153584908Y-140696284D01*
X153585289Y-140690908D01*
X153587352Y-140685930D01*
X153590234Y-140656666D01*
X153587764Y-140345969D01*
X153589056Y-140342095D01*
X153587567Y-140321140D01*
X153587431Y-140304047D01*
X153650235Y-140303922D01*
X153764401Y-140359109D01*
X153815073Y-140407834D01*
X153873893Y-140521646D01*
X153875746Y-140701168D01*
X153795560Y-140867048D01*
X153791412Y-140925428D01*
X153809920Y-140980950D01*
X153848267Y-141025165D01*
X153900616Y-141051340D01*
X153958996Y-141055488D01*
X154014518Y-141036980D01*
X154058733Y-140998633D01*
X154074398Y-140973748D01*
X154146004Y-140825617D01*
X154148287Y-140823335D01*
X154155348Y-140806286D01*
X154168241Y-140779617D01*
X154168622Y-140774241D01*
X154170685Y-140769263D01*
X154173567Y-140739999D01*
X154171216Y-140512276D01*
X154172389Y-140508760D01*
X154170975Y-140488868D01*
X154170685Y-140460735D01*
X154168621Y-140455754D01*
X154168240Y-140450380D01*
X154157731Y-140422917D01*
X154072059Y-140257151D01*
X154064955Y-140239998D01*
X154060200Y-140234205D01*
X154058733Y-140231365D01*
X154055739Y-140228768D01*
X154046300Y-140217267D01*
X153959724Y-140134017D01*
X153948868Y-140121500D01*
X153942609Y-140117560D01*
X153940237Y-140115279D01*
X153936577Y-140113763D01*
X153923983Y-140105835D01*
X153775852Y-140034228D01*
X153773570Y-140031946D01*
X153756521Y-140024884D01*
X153729852Y-140011992D01*
X153724476Y-140011610D01*
X153719498Y-140009548D01*
X153690234Y-140006666D01*
X152358907Y-140009319D01*
X152338140Y-140007844D01*
X152333561Y-140009370D01*
X152244303Y-140009548D01*
X152190231Y-140031946D01*
X152148847Y-140073330D01*
X152126449Y-140127402D01*
X152126449Y-140185930D01*
X152148845Y-140239999D01*
X152141787Y-140257040D01*
X152128893Y-140283714D01*
X152128510Y-140289091D01*
X152126449Y-140294069D01*
X152123567Y-140323333D01*
X149704930Y-140323333D01*
X149737364Y-140306570D01*
X150652096Y-140303784D01*
X150706168Y-140281386D01*
X150747552Y-140240002D01*
X150769950Y-140185930D01*
X150769950Y-140127402D01*
X150747552Y-140073330D01*
X150706168Y-140031946D01*
X150652096Y-140009548D01*
X150622832Y-140006666D01*
X149746014Y-140009337D01*
X149651693Y-139963742D01*
X149605838Y-139875017D01*
X149603985Y-139695497D01*
X149649089Y-139602193D01*
X149737364Y-139556570D01*
X150652096Y-139553784D01*
X150706168Y-139531386D01*
X150747552Y-139490002D01*
X150769950Y-139435930D01*
X150769950Y-139377402D01*
X150747552Y-139323330D01*
X150706168Y-139281946D01*
X150652096Y-139259548D01*
X150622832Y-139256666D01*
X149729556Y-139259387D01*
X149724926Y-139257844D01*
X149702026Y-139259471D01*
X149676901Y-139259548D01*
X149671920Y-139261611D01*
X149666546Y-139261993D01*
X149639083Y-139272502D01*
X149479799Y-139354822D01*
X149465216Y-139359684D01*
X149457579Y-139366306D01*
X149447531Y-139371500D01*
X149435208Y-139385708D01*
X149421000Y-139398031D01*
X149411676Y-139412842D01*
X149409185Y-139415715D01*
X149408416Y-139418021D01*
X149405335Y-139422916D01*
X149333727Y-139571047D01*
X149331445Y-139573330D01*
X149324385Y-139590373D01*
X149311491Y-139617047D01*
X149311108Y-139622424D01*
X149309047Y-139627402D01*
X149306165Y-139656666D01*
X148528388Y-139656666D01*
X148528388Y-138823333D01*
X152123567Y-138823333D01*
X152126036Y-139134030D01*
X152124745Y-139137905D01*
X152126233Y-139158859D01*
X152126449Y-139185930D01*
X152128510Y-139190907D01*
X152128893Y-139196285D01*
X152139403Y-139223748D01*
X152221726Y-139383034D01*
X152226587Y-139397617D01*
X152233208Y-139405251D01*
X152238402Y-139415301D01*
X152252610Y-139427623D01*
X152264933Y-139441832D01*
X152279742Y-139451154D01*
X152282618Y-139453648D01*
X152284927Y-139454417D01*
X152289819Y-139457497D01*
X152437947Y-139529102D01*
X152440231Y-139531386D01*
X152457286Y-139538450D01*
X152483948Y-139551339D01*
X152489322Y-139551720D01*
X152494303Y-139553784D01*
X152523567Y-139556666D01*
X152850220Y-139555313D01*
X152857058Y-139556666D01*
X152864109Y-139555255D01*
X153167012Y-139554001D01*
X153171472Y-139555488D01*
X153193966Y-139553889D01*
X153219498Y-139553784D01*
X153224476Y-139551721D01*
X153229852Y-139551340D01*
X153257316Y-139540830D01*
X153416599Y-139458508D01*
X153431185Y-139453647D01*
X153438820Y-139447024D01*
X153448868Y-139441832D01*
X153461191Y-139427623D01*
X153475400Y-139415300D01*
X153484721Y-139400491D01*
X153487215Y-139397617D01*
X153487984Y-139395308D01*
X153491065Y-139390415D01*
X153562671Y-139242284D01*
X153564954Y-139240002D01*
X153572015Y-139222953D01*
X153584908Y-139196284D01*
X153585289Y-139190908D01*
X153587352Y-139185930D01*
X153590234Y-139156666D01*
X153587764Y-138845969D01*
X153589056Y-138842095D01*
X153587567Y-138821140D01*
X153587352Y-138794069D01*
X153585289Y-138789090D01*
X153584908Y-138783715D01*
X153574398Y-138756251D01*
X153475400Y-138564699D01*
X153431185Y-138526352D01*
X153375663Y-138507844D01*
X153317283Y-138511992D01*
X153264934Y-138538167D01*
X153226587Y-138582382D01*
X153208079Y-138637904D01*
X153212227Y-138696284D01*
X153222737Y-138723748D01*
X153290484Y-138854832D01*
X153292572Y-139117506D01*
X153247310Y-139211138D01*
X153158967Y-139256795D01*
X152979637Y-139257538D01*
X152837352Y-138558044D01*
X152837352Y-138544069D01*
X152831766Y-138530584D01*
X152828756Y-138515785D01*
X152820577Y-138503573D01*
X152814954Y-138489997D01*
X152804451Y-138479494D01*
X152796188Y-138467156D01*
X152783962Y-138459005D01*
X152773570Y-138448613D01*
X152759849Y-138442929D01*
X152747492Y-138434691D01*
X152733075Y-138431839D01*
X152719498Y-138426215D01*
X152690234Y-138423333D01*
X152690087Y-138423335D01*
X152690077Y-138423333D01*
X152690064Y-138423335D01*
X152545194Y-138425466D01*
X152542328Y-138424511D01*
X152524627Y-138425768D01*
X152494303Y-138426215D01*
X152489322Y-138428278D01*
X152483948Y-138428660D01*
X152456485Y-138439169D01*
X152297201Y-138521489D01*
X152282618Y-138526351D01*
X152274981Y-138532973D01*
X152264933Y-138538167D01*
X152252610Y-138552375D01*
X152238402Y-138564698D01*
X152229078Y-138579509D01*
X152226587Y-138582382D01*
X152225818Y-138584688D01*
X152222737Y-138589583D01*
X152151129Y-138737714D01*
X152148847Y-138739997D01*
X152141787Y-138757040D01*
X152128893Y-138783714D01*
X152128510Y-138789091D01*
X152126449Y-138794069D01*
X152123567Y-138823333D01*
X148528388Y-138823333D01*
X148528388Y-137323333D01*
X152123567Y-137323333D01*
X152125700Y-137468372D01*
X152124745Y-137471239D01*
X152126002Y-137488939D01*
X152126449Y-137519264D01*
X152128512Y-137524244D01*
X152128894Y-137529619D01*
X152139403Y-137557083D01*
X152208613Y-137690998D01*
X152190231Y-137698613D01*
X152148847Y-137739997D01*
X152126449Y-137794069D01*
X152126449Y-137852597D01*
X152148847Y-137906669D01*
X152190231Y-137948053D01*
X152244303Y-137970451D01*
X152273567Y-137973333D01*
X153469498Y-137970451D01*
X153523570Y-137948053D01*
X153564954Y-137906669D01*
X153587352Y-137852597D01*
X153587352Y-137794069D01*
X153564954Y-137739997D01*
X153523570Y-137698613D01*
X153469498Y-137676215D01*
X153440234Y-137673333D01*
X152645186Y-137675248D01*
X152532733Y-137620889D01*
X152482061Y-137572163D01*
X152423097Y-137458074D01*
X152420685Y-137294069D01*
X152398287Y-137239997D01*
X152356903Y-137198613D01*
X152302831Y-137176215D01*
X152244303Y-137176215D01*
X152190231Y-137198613D01*
X152148847Y-137239997D01*
X152126449Y-137294069D01*
X152123567Y-137323333D01*
X148528388Y-137323333D01*
X148528388Y-136981771D01*
X154368011Y-136981771D01*
X154368011Y-147334442D01*
G37*
X223505430Y-152043048D02*
X223505430Y-151209715D01*
X224005430Y-152209715D02*
X222255430Y-151626382D01*
X222255430Y-151626382D02*
X224005430Y-151043048D01*
X223088763Y-150459715D02*
X223088763Y-149876382D01*
X224005430Y-149626382D02*
X224005430Y-150459715D01*
X224005430Y-150459715D02*
X222255430Y-150459715D01*
X222255430Y-150459715D02*
X222255430Y-149626382D01*
X223338763Y-148876382D02*
X223338763Y-147543049D01*
X223088763Y-146126382D02*
X223172097Y-145876382D01*
X223172097Y-145876382D02*
X223255430Y-145793048D01*
X223255430Y-145793048D02*
X223422097Y-145709715D01*
X223422097Y-145709715D02*
X223672097Y-145709715D01*
X223672097Y-145709715D02*
X223838763Y-145793048D01*
X223838763Y-145793048D02*
X223922097Y-145876382D01*
X223922097Y-145876382D02*
X224005430Y-146043048D01*
X224005430Y-146043048D02*
X224005430Y-146709715D01*
X224005430Y-146709715D02*
X222255430Y-146709715D01*
X222255430Y-146709715D02*
X222255430Y-146126382D01*
X222255430Y-146126382D02*
X222338763Y-145959715D01*
X222338763Y-145959715D02*
X222422097Y-145876382D01*
X222422097Y-145876382D02*
X222588763Y-145793048D01*
X222588763Y-145793048D02*
X222755430Y-145793048D01*
X222755430Y-145793048D02*
X222922097Y-145876382D01*
X222922097Y-145876382D02*
X223005430Y-145959715D01*
X223005430Y-145959715D02*
X223088763Y-146126382D01*
X223088763Y-146126382D02*
X223088763Y-146709715D01*
X223088763Y-144376382D02*
X223172097Y-144126382D01*
X223172097Y-144126382D02*
X223255430Y-144043048D01*
X223255430Y-144043048D02*
X223422097Y-143959715D01*
X223422097Y-143959715D02*
X223672097Y-143959715D01*
X223672097Y-143959715D02*
X223838763Y-144043048D01*
X223838763Y-144043048D02*
X223922097Y-144126382D01*
X223922097Y-144126382D02*
X224005430Y-144293048D01*
X224005430Y-144293048D02*
X224005430Y-144959715D01*
X224005430Y-144959715D02*
X222255430Y-144959715D01*
X222255430Y-144959715D02*
X222255430Y-144376382D01*
X222255430Y-144376382D02*
X222338763Y-144209715D01*
X222338763Y-144209715D02*
X222422097Y-144126382D01*
X222422097Y-144126382D02*
X222588763Y-144043048D01*
X222588763Y-144043048D02*
X222755430Y-144043048D01*
X222755430Y-144043048D02*
X222922097Y-144126382D01*
X222922097Y-144126382D02*
X223005430Y-144209715D01*
X223005430Y-144209715D02*
X223088763Y-144376382D01*
X223088763Y-144376382D02*
X223088763Y-144959715D01*
X223838763Y-142209715D02*
X223922097Y-142293048D01*
X223922097Y-142293048D02*
X224005430Y-142543048D01*
X224005430Y-142543048D02*
X224005430Y-142709715D01*
X224005430Y-142709715D02*
X223922097Y-142959715D01*
X223922097Y-142959715D02*
X223755430Y-143126382D01*
X223755430Y-143126382D02*
X223588763Y-143209715D01*
X223588763Y-143209715D02*
X223255430Y-143293048D01*
X223255430Y-143293048D02*
X223005430Y-143293048D01*
X223005430Y-143293048D02*
X222672097Y-143209715D01*
X222672097Y-143209715D02*
X222505430Y-143126382D01*
X222505430Y-143126382D02*
X222338763Y-142959715D01*
X222338763Y-142959715D02*
X222255430Y-142709715D01*
X222255430Y-142709715D02*
X222255430Y-142543048D01*
X222255430Y-142543048D02*
X222338763Y-142293048D01*
X222338763Y-142293048D02*
X222422097Y-142209715D01*
X223338763Y-141459715D02*
X223338763Y-140126382D01*
X224005430Y-139293048D02*
X222255430Y-139293048D01*
X222255430Y-139293048D02*
X222255430Y-138876381D01*
X222255430Y-138876381D02*
X222338763Y-138626381D01*
X222338763Y-138626381D02*
X222505430Y-138459715D01*
X222505430Y-138459715D02*
X222672097Y-138376381D01*
X222672097Y-138376381D02*
X223005430Y-138293048D01*
X223005430Y-138293048D02*
X223255430Y-138293048D01*
X223255430Y-138293048D02*
X223588763Y-138376381D01*
X223588763Y-138376381D02*
X223755430Y-138459715D01*
X223755430Y-138459715D02*
X223922097Y-138626381D01*
X223922097Y-138626381D02*
X224005430Y-138876381D01*
X224005430Y-138876381D02*
X224005430Y-139293048D01*
X222838763Y-136376382D02*
X224005430Y-135959715D01*
X224005430Y-135959715D02*
X222838763Y-135543048D01*
X222255430Y-134543049D02*
X222255430Y-134376382D01*
X222255430Y-134376382D02*
X222338763Y-134209715D01*
X222338763Y-134209715D02*
X222422097Y-134126382D01*
X222422097Y-134126382D02*
X222588763Y-134043049D01*
X222588763Y-134043049D02*
X222922097Y-133959715D01*
X222922097Y-133959715D02*
X223338763Y-133959715D01*
X223338763Y-133959715D02*
X223672097Y-134043049D01*
X223672097Y-134043049D02*
X223838763Y-134126382D01*
X223838763Y-134126382D02*
X223922097Y-134209715D01*
X223922097Y-134209715D02*
X224005430Y-134376382D01*
X224005430Y-134376382D02*
X224005430Y-134543049D01*
X224005430Y-134543049D02*
X223922097Y-134709715D01*
X223922097Y-134709715D02*
X223838763Y-134793049D01*
X223838763Y-134793049D02*
X223672097Y-134876382D01*
X223672097Y-134876382D02*
X223338763Y-134959715D01*
X223338763Y-134959715D02*
X222922097Y-134959715D01*
X222922097Y-134959715D02*
X222588763Y-134876382D01*
X222588763Y-134876382D02*
X222422097Y-134793049D01*
X222422097Y-134793049D02*
X222338763Y-134709715D01*
X222338763Y-134709715D02*
X222255430Y-134543049D01*
X223838763Y-133209715D02*
X223922097Y-133126382D01*
X223922097Y-133126382D02*
X224005430Y-133209715D01*
X224005430Y-133209715D02*
X223922097Y-133293048D01*
X223922097Y-133293048D02*
X223838763Y-133209715D01*
X223838763Y-133209715D02*
X224005430Y-133209715D01*
X224005430Y-131459715D02*
X224005430Y-132459715D01*
X224005430Y-131959715D02*
X222255430Y-131959715D01*
X222255430Y-131959715D02*
X222505430Y-132126382D01*
X222505430Y-132126382D02*
X222672097Y-132293049D01*
X222672097Y-132293049D02*
X222755430Y-132459715D01*
X227489499Y-157043046D02*
X227406165Y-157126379D01*
X227406165Y-157126379D02*
X227156165Y-157293046D01*
X227156165Y-157293046D02*
X226989499Y-157376379D01*
X226989499Y-157376379D02*
X226739499Y-157459713D01*
X226739499Y-157459713D02*
X226322832Y-157543046D01*
X226322832Y-157543046D02*
X225989499Y-157543046D01*
X225989499Y-157543046D02*
X225572832Y-157459713D01*
X225572832Y-157459713D02*
X225322832Y-157376379D01*
X225322832Y-157376379D02*
X225156165Y-157293046D01*
X225156165Y-157293046D02*
X224906165Y-157126379D01*
X224906165Y-157126379D02*
X224822832Y-157043046D01*
X225906165Y-155793046D02*
X225989499Y-155543046D01*
X225989499Y-155543046D02*
X226072832Y-155459712D01*
X226072832Y-155459712D02*
X226239499Y-155376379D01*
X226239499Y-155376379D02*
X226489499Y-155376379D01*
X226489499Y-155376379D02*
X226656165Y-155459712D01*
X226656165Y-155459712D02*
X226739499Y-155543046D01*
X226739499Y-155543046D02*
X226822832Y-155709712D01*
X226822832Y-155709712D02*
X226822832Y-156376379D01*
X226822832Y-156376379D02*
X225072832Y-156376379D01*
X225072832Y-156376379D02*
X225072832Y-155793046D01*
X225072832Y-155793046D02*
X225156165Y-155626379D01*
X225156165Y-155626379D02*
X225239499Y-155543046D01*
X225239499Y-155543046D02*
X225406165Y-155459712D01*
X225406165Y-155459712D02*
X225572832Y-155459712D01*
X225572832Y-155459712D02*
X225739499Y-155543046D01*
X225739499Y-155543046D02*
X225822832Y-155626379D01*
X225822832Y-155626379D02*
X225906165Y-155793046D01*
X225906165Y-155793046D02*
X225906165Y-156376379D01*
X226822832Y-154626379D02*
X225656165Y-154626379D01*
X225072832Y-154626379D02*
X225156165Y-154709712D01*
X225156165Y-154709712D02*
X225239499Y-154626379D01*
X225239499Y-154626379D02*
X225156165Y-154543046D01*
X225156165Y-154543046D02*
X225072832Y-154626379D01*
X225072832Y-154626379D02*
X225239499Y-154626379D01*
X225656165Y-153043046D02*
X227072832Y-153043046D01*
X227072832Y-153043046D02*
X227239499Y-153126379D01*
X227239499Y-153126379D02*
X227322832Y-153209713D01*
X227322832Y-153209713D02*
X227406165Y-153376379D01*
X227406165Y-153376379D02*
X227406165Y-153626379D01*
X227406165Y-153626379D02*
X227322832Y-153793046D01*
X226739499Y-153043046D02*
X226822832Y-153209713D01*
X226822832Y-153209713D02*
X226822832Y-153543046D01*
X226822832Y-153543046D02*
X226739499Y-153709713D01*
X226739499Y-153709713D02*
X226656165Y-153793046D01*
X226656165Y-153793046D02*
X226489499Y-153876379D01*
X226489499Y-153876379D02*
X225989499Y-153876379D01*
X225989499Y-153876379D02*
X225822832Y-153793046D01*
X225822832Y-153793046D02*
X225739499Y-153709713D01*
X225739499Y-153709713D02*
X225656165Y-153543046D01*
X225656165Y-153543046D02*
X225656165Y-153209713D01*
X225656165Y-153209713D02*
X225739499Y-153043046D01*
X225906165Y-150293047D02*
X225989499Y-150043047D01*
X225989499Y-150043047D02*
X226072832Y-149959713D01*
X226072832Y-149959713D02*
X226239499Y-149876380D01*
X226239499Y-149876380D02*
X226489499Y-149876380D01*
X226489499Y-149876380D02*
X226656165Y-149959713D01*
X226656165Y-149959713D02*
X226739499Y-150043047D01*
X226739499Y-150043047D02*
X226822832Y-150209713D01*
X226822832Y-150209713D02*
X226822832Y-150876380D01*
X226822832Y-150876380D02*
X225072832Y-150876380D01*
X225072832Y-150876380D02*
X225072832Y-150293047D01*
X225072832Y-150293047D02*
X225156165Y-150126380D01*
X225156165Y-150126380D02*
X225239499Y-150043047D01*
X225239499Y-150043047D02*
X225406165Y-149959713D01*
X225406165Y-149959713D02*
X225572832Y-149959713D01*
X225572832Y-149959713D02*
X225739499Y-150043047D01*
X225739499Y-150043047D02*
X225822832Y-150126380D01*
X225822832Y-150126380D02*
X225906165Y-150293047D01*
X225906165Y-150293047D02*
X225906165Y-150876380D01*
X226739499Y-148459713D02*
X226822832Y-148626380D01*
X226822832Y-148626380D02*
X226822832Y-148959713D01*
X226822832Y-148959713D02*
X226739499Y-149126380D01*
X226739499Y-149126380D02*
X226572832Y-149209713D01*
X226572832Y-149209713D02*
X225906165Y-149209713D01*
X225906165Y-149209713D02*
X225739499Y-149126380D01*
X225739499Y-149126380D02*
X225656165Y-148959713D01*
X225656165Y-148959713D02*
X225656165Y-148626380D01*
X225656165Y-148626380D02*
X225739499Y-148459713D01*
X225739499Y-148459713D02*
X225906165Y-148376380D01*
X225906165Y-148376380D02*
X226072832Y-148376380D01*
X226072832Y-148376380D02*
X226239499Y-149209713D01*
X226822832Y-146876380D02*
X225906165Y-146876380D01*
X225906165Y-146876380D02*
X225739499Y-146959713D01*
X225739499Y-146959713D02*
X225656165Y-147126380D01*
X225656165Y-147126380D02*
X225656165Y-147459713D01*
X225656165Y-147459713D02*
X225739499Y-147626380D01*
X226739499Y-146876380D02*
X226822832Y-147043047D01*
X226822832Y-147043047D02*
X226822832Y-147459713D01*
X226822832Y-147459713D02*
X226739499Y-147626380D01*
X226739499Y-147626380D02*
X226572832Y-147709713D01*
X226572832Y-147709713D02*
X226406165Y-147709713D01*
X226406165Y-147709713D02*
X226239499Y-147626380D01*
X226239499Y-147626380D02*
X226156165Y-147459713D01*
X226156165Y-147459713D02*
X226156165Y-147043047D01*
X226156165Y-147043047D02*
X226072832Y-146876380D01*
X225656165Y-145293047D02*
X226822832Y-145293047D01*
X225656165Y-146043047D02*
X226572832Y-146043047D01*
X226572832Y-146043047D02*
X226739499Y-145959714D01*
X226739499Y-145959714D02*
X226822832Y-145793047D01*
X226822832Y-145793047D02*
X226822832Y-145543047D01*
X226822832Y-145543047D02*
X226739499Y-145376380D01*
X226739499Y-145376380D02*
X226656165Y-145293047D01*
X225656165Y-144709714D02*
X225656165Y-144043047D01*
X225072832Y-144459714D02*
X226572832Y-144459714D01*
X226572832Y-144459714D02*
X226739499Y-144376381D01*
X226739499Y-144376381D02*
X226822832Y-144209714D01*
X226822832Y-144209714D02*
X226822832Y-144043047D01*
X226822832Y-143459714D02*
X225656165Y-143459714D01*
X225072832Y-143459714D02*
X225156165Y-143543047D01*
X225156165Y-143543047D02*
X225239499Y-143459714D01*
X225239499Y-143459714D02*
X225156165Y-143376381D01*
X225156165Y-143376381D02*
X225072832Y-143459714D01*
X225072832Y-143459714D02*
X225239499Y-143459714D01*
X225656165Y-142876381D02*
X225656165Y-142209714D01*
X226822832Y-142626381D02*
X225322832Y-142626381D01*
X225322832Y-142626381D02*
X225156165Y-142543048D01*
X225156165Y-142543048D02*
X225072832Y-142376381D01*
X225072832Y-142376381D02*
X225072832Y-142209714D01*
X225656165Y-140876381D02*
X226822832Y-140876381D01*
X225656165Y-141626381D02*
X226572832Y-141626381D01*
X226572832Y-141626381D02*
X226739499Y-141543048D01*
X226739499Y-141543048D02*
X226822832Y-141376381D01*
X226822832Y-141376381D02*
X226822832Y-141126381D01*
X226822832Y-141126381D02*
X226739499Y-140959714D01*
X226739499Y-140959714D02*
X226656165Y-140876381D01*
X226822832Y-139793048D02*
X226739499Y-139959715D01*
X226739499Y-139959715D02*
X226572832Y-140043048D01*
X226572832Y-140043048D02*
X225072832Y-140043048D01*
X226656165Y-136793048D02*
X226739499Y-136876381D01*
X226739499Y-136876381D02*
X226822832Y-137126381D01*
X226822832Y-137126381D02*
X226822832Y-137293048D01*
X226822832Y-137293048D02*
X226739499Y-137543048D01*
X226739499Y-137543048D02*
X226572832Y-137709715D01*
X226572832Y-137709715D02*
X226406165Y-137793048D01*
X226406165Y-137793048D02*
X226072832Y-137876381D01*
X226072832Y-137876381D02*
X225822832Y-137876381D01*
X225822832Y-137876381D02*
X225489499Y-137793048D01*
X225489499Y-137793048D02*
X225322832Y-137709715D01*
X225322832Y-137709715D02*
X225156165Y-137543048D01*
X225156165Y-137543048D02*
X225072832Y-137293048D01*
X225072832Y-137293048D02*
X225072832Y-137126381D01*
X225072832Y-137126381D02*
X225156165Y-136876381D01*
X225156165Y-136876381D02*
X225239499Y-136793048D01*
X226822832Y-136043048D02*
X225072832Y-136043048D01*
X226822832Y-135293048D02*
X225906165Y-135293048D01*
X225906165Y-135293048D02*
X225739499Y-135376381D01*
X225739499Y-135376381D02*
X225656165Y-135543048D01*
X225656165Y-135543048D02*
X225656165Y-135793048D01*
X225656165Y-135793048D02*
X225739499Y-135959715D01*
X225739499Y-135959715D02*
X225822832Y-136043048D01*
X226822832Y-133709715D02*
X225906165Y-133709715D01*
X225906165Y-133709715D02*
X225739499Y-133793048D01*
X225739499Y-133793048D02*
X225656165Y-133959715D01*
X225656165Y-133959715D02*
X225656165Y-134293048D01*
X225656165Y-134293048D02*
X225739499Y-134459715D01*
X226739499Y-133709715D02*
X226822832Y-133876382D01*
X226822832Y-133876382D02*
X226822832Y-134293048D01*
X226822832Y-134293048D02*
X226739499Y-134459715D01*
X226739499Y-134459715D02*
X226572832Y-134543048D01*
X226572832Y-134543048D02*
X226406165Y-134543048D01*
X226406165Y-134543048D02*
X226239499Y-134459715D01*
X226239499Y-134459715D02*
X226156165Y-134293048D01*
X226156165Y-134293048D02*
X226156165Y-133876382D01*
X226156165Y-133876382D02*
X226072832Y-133709715D01*
X226822832Y-132876382D02*
X225656165Y-132876382D01*
X225989499Y-132876382D02*
X225822832Y-132793049D01*
X225822832Y-132793049D02*
X225739499Y-132709715D01*
X225739499Y-132709715D02*
X225656165Y-132543049D01*
X225656165Y-132543049D02*
X225656165Y-132376382D01*
X225656165Y-131043049D02*
X227072832Y-131043049D01*
X227072832Y-131043049D02*
X227239499Y-131126382D01*
X227239499Y-131126382D02*
X227322832Y-131209716D01*
X227322832Y-131209716D02*
X227406165Y-131376382D01*
X227406165Y-131376382D02*
X227406165Y-131626382D01*
X227406165Y-131626382D02*
X227322832Y-131793049D01*
X226739499Y-131043049D02*
X226822832Y-131209716D01*
X226822832Y-131209716D02*
X226822832Y-131543049D01*
X226822832Y-131543049D02*
X226739499Y-131709716D01*
X226739499Y-131709716D02*
X226656165Y-131793049D01*
X226656165Y-131793049D02*
X226489499Y-131876382D01*
X226489499Y-131876382D02*
X225989499Y-131876382D01*
X225989499Y-131876382D02*
X225822832Y-131793049D01*
X225822832Y-131793049D02*
X225739499Y-131709716D01*
X225739499Y-131709716D02*
X225656165Y-131543049D01*
X225656165Y-131543049D02*
X225656165Y-131209716D01*
X225656165Y-131209716D02*
X225739499Y-131043049D01*
X226739499Y-129543049D02*
X226822832Y-129709716D01*
X226822832Y-129709716D02*
X226822832Y-130043049D01*
X226822832Y-130043049D02*
X226739499Y-130209716D01*
X226739499Y-130209716D02*
X226572832Y-130293049D01*
X226572832Y-130293049D02*
X225906165Y-130293049D01*
X225906165Y-130293049D02*
X225739499Y-130209716D01*
X225739499Y-130209716D02*
X225656165Y-130043049D01*
X225656165Y-130043049D02*
X225656165Y-129709716D01*
X225656165Y-129709716D02*
X225739499Y-129543049D01*
X225739499Y-129543049D02*
X225906165Y-129459716D01*
X225906165Y-129459716D02*
X226072832Y-129459716D01*
X226072832Y-129459716D02*
X226239499Y-130293049D01*
X226822832Y-128709716D02*
X225656165Y-128709716D01*
X225989499Y-128709716D02*
X225822832Y-128626383D01*
X225822832Y-128626383D02*
X225739499Y-128543049D01*
X225739499Y-128543049D02*
X225656165Y-128376383D01*
X225656165Y-128376383D02*
X225656165Y-128209716D01*
X227489499Y-127793050D02*
X227406165Y-127709716D01*
X227406165Y-127709716D02*
X227156165Y-127543050D01*
X227156165Y-127543050D02*
X226989499Y-127459716D01*
X226989499Y-127459716D02*
X226739499Y-127376383D01*
X226739499Y-127376383D02*
X226322832Y-127293050D01*
X226322832Y-127293050D02*
X225989499Y-127293050D01*
X225989499Y-127293050D02*
X225572832Y-127376383D01*
X225572832Y-127376383D02*
X225322832Y-127459716D01*
X225322832Y-127459716D02*
X225156165Y-127543050D01*
X225156165Y-127543050D02*
X224906165Y-127709716D01*
X224906165Y-127709716D02*
X224822832Y-127793050D01*
X230306901Y-148876381D02*
X230223567Y-148959714D01*
X230223567Y-148959714D02*
X229973567Y-149126381D01*
X229973567Y-149126381D02*
X229806901Y-149209714D01*
X229806901Y-149209714D02*
X229556901Y-149293048D01*
X229556901Y-149293048D02*
X229140234Y-149376381D01*
X229140234Y-149376381D02*
X228806901Y-149376381D01*
X228806901Y-149376381D02*
X228390234Y-149293048D01*
X228390234Y-149293048D02*
X228140234Y-149209714D01*
X228140234Y-149209714D02*
X227973567Y-149126381D01*
X227973567Y-149126381D02*
X227723567Y-148959714D01*
X227723567Y-148959714D02*
X227640234Y-148876381D01*
X229640234Y-148209714D02*
X227890234Y-148209714D01*
X227890234Y-148209714D02*
X227890234Y-147793047D01*
X227890234Y-147793047D02*
X227973567Y-147543047D01*
X227973567Y-147543047D02*
X228140234Y-147376381D01*
X228140234Y-147376381D02*
X228306901Y-147293047D01*
X228306901Y-147293047D02*
X228640234Y-147209714D01*
X228640234Y-147209714D02*
X228890234Y-147209714D01*
X228890234Y-147209714D02*
X229223567Y-147293047D01*
X229223567Y-147293047D02*
X229390234Y-147376381D01*
X229390234Y-147376381D02*
X229556901Y-147543047D01*
X229556901Y-147543047D02*
X229640234Y-147793047D01*
X229640234Y-147793047D02*
X229640234Y-148209714D01*
X229640234Y-146459714D02*
X228473567Y-146459714D01*
X227890234Y-146459714D02*
X227973567Y-146543047D01*
X227973567Y-146543047D02*
X228056901Y-146459714D01*
X228056901Y-146459714D02*
X227973567Y-146376381D01*
X227973567Y-146376381D02*
X227890234Y-146459714D01*
X227890234Y-146459714D02*
X228056901Y-146459714D01*
X229556901Y-145709714D02*
X229640234Y-145543048D01*
X229640234Y-145543048D02*
X229640234Y-145209714D01*
X229640234Y-145209714D02*
X229556901Y-145043048D01*
X229556901Y-145043048D02*
X229390234Y-144959714D01*
X229390234Y-144959714D02*
X229306901Y-144959714D01*
X229306901Y-144959714D02*
X229140234Y-145043048D01*
X229140234Y-145043048D02*
X229056901Y-145209714D01*
X229056901Y-145209714D02*
X229056901Y-145459714D01*
X229056901Y-145459714D02*
X228973567Y-145626381D01*
X228973567Y-145626381D02*
X228806901Y-145709714D01*
X228806901Y-145709714D02*
X228723567Y-145709714D01*
X228723567Y-145709714D02*
X228556901Y-145626381D01*
X228556901Y-145626381D02*
X228473567Y-145459714D01*
X228473567Y-145459714D02*
X228473567Y-145209714D01*
X228473567Y-145209714D02*
X228556901Y-145043048D01*
X228473567Y-144459714D02*
X228473567Y-143793047D01*
X227890234Y-144209714D02*
X229390234Y-144209714D01*
X229390234Y-144209714D02*
X229556901Y-144126381D01*
X229556901Y-144126381D02*
X229640234Y-143959714D01*
X229640234Y-143959714D02*
X229640234Y-143793047D01*
X229640234Y-143209714D02*
X228473567Y-143209714D01*
X228806901Y-143209714D02*
X228640234Y-143126381D01*
X228640234Y-143126381D02*
X228556901Y-143043047D01*
X228556901Y-143043047D02*
X228473567Y-142876381D01*
X228473567Y-142876381D02*
X228473567Y-142709714D01*
X229640234Y-142126381D02*
X228473567Y-142126381D01*
X227890234Y-142126381D02*
X227973567Y-142209714D01*
X227973567Y-142209714D02*
X228056901Y-142126381D01*
X228056901Y-142126381D02*
X227973567Y-142043048D01*
X227973567Y-142043048D02*
X227890234Y-142126381D01*
X227890234Y-142126381D02*
X228056901Y-142126381D01*
X229640234Y-141293048D02*
X227890234Y-141293048D01*
X228556901Y-141293048D02*
X228473567Y-141126381D01*
X228473567Y-141126381D02*
X228473567Y-140793048D01*
X228473567Y-140793048D02*
X228556901Y-140626381D01*
X228556901Y-140626381D02*
X228640234Y-140543048D01*
X228640234Y-140543048D02*
X228806901Y-140459715D01*
X228806901Y-140459715D02*
X229306901Y-140459715D01*
X229306901Y-140459715D02*
X229473567Y-140543048D01*
X229473567Y-140543048D02*
X229556901Y-140626381D01*
X229556901Y-140626381D02*
X229640234Y-140793048D01*
X229640234Y-140793048D02*
X229640234Y-141126381D01*
X229640234Y-141126381D02*
X229556901Y-141293048D01*
X228473567Y-138959715D02*
X229640234Y-138959715D01*
X228473567Y-139709715D02*
X229390234Y-139709715D01*
X229390234Y-139709715D02*
X229556901Y-139626382D01*
X229556901Y-139626382D02*
X229640234Y-139459715D01*
X229640234Y-139459715D02*
X229640234Y-139209715D01*
X229640234Y-139209715D02*
X229556901Y-139043048D01*
X229556901Y-139043048D02*
X229473567Y-138959715D01*
X228473567Y-138376382D02*
X228473567Y-137709715D01*
X227890234Y-138126382D02*
X229390234Y-138126382D01*
X229390234Y-138126382D02*
X229556901Y-138043049D01*
X229556901Y-138043049D02*
X229640234Y-137876382D01*
X229640234Y-137876382D02*
X229640234Y-137709715D01*
X229640234Y-136876382D02*
X229556901Y-137043049D01*
X229556901Y-137043049D02*
X229473567Y-137126382D01*
X229473567Y-137126382D02*
X229306901Y-137209715D01*
X229306901Y-137209715D02*
X228806901Y-137209715D01*
X228806901Y-137209715D02*
X228640234Y-137126382D01*
X228640234Y-137126382D02*
X228556901Y-137043049D01*
X228556901Y-137043049D02*
X228473567Y-136876382D01*
X228473567Y-136876382D02*
X228473567Y-136626382D01*
X228473567Y-136626382D02*
X228556901Y-136459715D01*
X228556901Y-136459715D02*
X228640234Y-136376382D01*
X228640234Y-136376382D02*
X228806901Y-136293049D01*
X228806901Y-136293049D02*
X229306901Y-136293049D01*
X229306901Y-136293049D02*
X229473567Y-136376382D01*
X229473567Y-136376382D02*
X229556901Y-136459715D01*
X229556901Y-136459715D02*
X229640234Y-136626382D01*
X229640234Y-136626382D02*
X229640234Y-136876382D01*
X229640234Y-135543049D02*
X228473567Y-135543049D01*
X228806901Y-135543049D02*
X228640234Y-135459716D01*
X228640234Y-135459716D02*
X228556901Y-135376382D01*
X228556901Y-135376382D02*
X228473567Y-135209716D01*
X228473567Y-135209716D02*
X228473567Y-135043049D01*
X230306901Y-134626383D02*
X230223567Y-134543049D01*
X230223567Y-134543049D02*
X229973567Y-134376383D01*
X229973567Y-134376383D02*
X229806901Y-134293049D01*
X229806901Y-134293049D02*
X229556901Y-134209716D01*
X229556901Y-134209716D02*
X229140234Y-134126383D01*
X229140234Y-134126383D02*
X228806901Y-134126383D01*
X228806901Y-134126383D02*
X228390234Y-134209716D01*
X228390234Y-134209716D02*
X228140234Y-134293049D01*
X228140234Y-134293049D02*
X227973567Y-134376383D01*
X227973567Y-134376383D02*
X227723567Y-134543049D01*
X227723567Y-134543049D02*
X227640234Y-134626383D01*
D11*
X125294819Y-142573333D02*
X126009104Y-142573333D01*
X126009104Y-142573333D02*
X126151961Y-142620952D01*
X126151961Y-142620952D02*
X126247200Y-142716190D01*
X126247200Y-142716190D02*
X126294819Y-142859047D01*
X126294819Y-142859047D02*
X126294819Y-142954285D01*
X126294819Y-141573333D02*
X126294819Y-142144761D01*
X126294819Y-141859047D02*
X125294819Y-141859047D01*
X125294819Y-141859047D02*
X125437676Y-141954285D01*
X125437676Y-141954285D02*
X125532914Y-142049523D01*
X125532914Y-142049523D02*
X125580533Y-142144761D01*
X145954700Y-149211428D02*
X145954700Y-148068571D01*
X145954700Y-136911429D02*
X145954700Y-135768572D01*
X146526128Y-136340000D02*
X145383271Y-136340000D01*
X142371562Y-106421574D02*
X142371562Y-107135859D01*
X142371562Y-107135859D02*
X142323943Y-107278716D01*
X142323943Y-107278716D02*
X142228705Y-107373955D01*
X142228705Y-107373955D02*
X142085848Y-107421574D01*
X142085848Y-107421574D02*
X141990610Y-107421574D01*
X143276324Y-106754907D02*
X143276324Y-107421574D01*
X143038229Y-106373955D02*
X142800134Y-107088240D01*
X142800134Y-107088240D02*
X143419181Y-107088240D01*
X147633467Y-121581455D02*
X148776325Y-121581455D01*
X136633467Y-121581455D02*
X137776325Y-121581455D01*
X137204896Y-122152883D02*
X137204896Y-121010026D01*
X263815371Y-106421573D02*
X263815371Y-107135858D01*
X263815371Y-107135858D02*
X263767752Y-107278715D01*
X263767752Y-107278715D02*
X263672514Y-107373954D01*
X263672514Y-107373954D02*
X263529657Y-107421573D01*
X263529657Y-107421573D02*
X263434419Y-107421573D01*
X264815371Y-107421573D02*
X264243943Y-107421573D01*
X264529657Y-107421573D02*
X264529657Y-106421573D01*
X264529657Y-106421573D02*
X264434419Y-106564430D01*
X264434419Y-106564430D02*
X264339181Y-106659668D01*
X264339181Y-106659668D02*
X264243943Y-106707287D01*
X265672514Y-106421573D02*
X265482038Y-106421573D01*
X265482038Y-106421573D02*
X265386800Y-106469192D01*
X265386800Y-106469192D02*
X265339181Y-106516811D01*
X265339181Y-106516811D02*
X265243943Y-106659668D01*
X265243943Y-106659668D02*
X265196324Y-106850144D01*
X265196324Y-106850144D02*
X265196324Y-107231096D01*
X265196324Y-107231096D02*
X265243943Y-107326334D01*
X265243943Y-107326334D02*
X265291562Y-107373954D01*
X265291562Y-107373954D02*
X265386800Y-107421573D01*
X265386800Y-107421573D02*
X265577276Y-107421573D01*
X265577276Y-107421573D02*
X265672514Y-107373954D01*
X265672514Y-107373954D02*
X265720133Y-107326334D01*
X265720133Y-107326334D02*
X265767752Y-107231096D01*
X265767752Y-107231096D02*
X265767752Y-106993001D01*
X265767752Y-106993001D02*
X265720133Y-106897763D01*
X265720133Y-106897763D02*
X265672514Y-106850144D01*
X265672514Y-106850144D02*
X265577276Y-106802525D01*
X265577276Y-106802525D02*
X265386800Y-106802525D01*
X265386800Y-106802525D02*
X265291562Y-106850144D01*
X265291562Y-106850144D02*
X265243943Y-106897763D01*
X265243943Y-106897763D02*
X265196324Y-106993001D01*
X269553466Y-121581454D02*
X270696324Y-121581454D01*
X258553466Y-121581454D02*
X259696324Y-121581454D01*
X259124895Y-122152882D02*
X259124895Y-121010025D01*
X263762700Y-176534979D02*
X263762700Y-177249264D01*
X263762700Y-177249264D02*
X263715081Y-177392121D01*
X263715081Y-177392121D02*
X263619843Y-177487360D01*
X263619843Y-177487360D02*
X263476986Y-177534979D01*
X263476986Y-177534979D02*
X263381748Y-177534979D01*
X264762700Y-177534979D02*
X264191272Y-177534979D01*
X264476986Y-177534979D02*
X264476986Y-176534979D01*
X264476986Y-176534979D02*
X264381748Y-176677836D01*
X264381748Y-176677836D02*
X264286510Y-176773074D01*
X264286510Y-176773074D02*
X264191272Y-176820693D01*
X265667462Y-176534979D02*
X265191272Y-176534979D01*
X265191272Y-176534979D02*
X265143653Y-177011169D01*
X265143653Y-177011169D02*
X265191272Y-176963550D01*
X265191272Y-176963550D02*
X265286510Y-176915931D01*
X265286510Y-176915931D02*
X265524605Y-176915931D01*
X265524605Y-176915931D02*
X265619843Y-176963550D01*
X265619843Y-176963550D02*
X265667462Y-177011169D01*
X265667462Y-177011169D02*
X265715081Y-177106407D01*
X265715081Y-177106407D02*
X265715081Y-177344502D01*
X265715081Y-177344502D02*
X265667462Y-177439740D01*
X265667462Y-177439740D02*
X265619843Y-177487360D01*
X265619843Y-177487360D02*
X265524605Y-177534979D01*
X265524605Y-177534979D02*
X265286510Y-177534979D01*
X265286510Y-177534979D02*
X265191272Y-177487360D01*
X265191272Y-177487360D02*
X265143653Y-177439740D01*
X258500795Y-162694860D02*
X259643653Y-162694860D01*
X269500795Y-162694860D02*
X270643653Y-162694860D01*
X270072224Y-163266288D02*
X270072224Y-162123431D01*
X243495372Y-106421574D02*
X243495372Y-107135859D01*
X243495372Y-107135859D02*
X243447753Y-107278716D01*
X243447753Y-107278716D02*
X243352515Y-107373955D01*
X243352515Y-107373955D02*
X243209658Y-107421574D01*
X243209658Y-107421574D02*
X243114420Y-107421574D01*
X244495372Y-107421574D02*
X243923944Y-107421574D01*
X244209658Y-107421574D02*
X244209658Y-106421574D01*
X244209658Y-106421574D02*
X244114420Y-106564431D01*
X244114420Y-106564431D02*
X244019182Y-106659669D01*
X244019182Y-106659669D02*
X243923944Y-106707288D01*
X245352515Y-106754907D02*
X245352515Y-107421574D01*
X245114420Y-106373955D02*
X244876325Y-107088240D01*
X244876325Y-107088240D02*
X245495372Y-107088240D01*
X249233467Y-121581455D02*
X250376325Y-121581455D01*
X238233467Y-121581455D02*
X239376325Y-121581455D01*
X238804896Y-122152883D02*
X238804896Y-121010026D01*
X243442700Y-176534979D02*
X243442700Y-177249264D01*
X243442700Y-177249264D02*
X243395081Y-177392121D01*
X243395081Y-177392121D02*
X243299843Y-177487360D01*
X243299843Y-177487360D02*
X243156986Y-177534979D01*
X243156986Y-177534979D02*
X243061748Y-177534979D01*
X244442700Y-177534979D02*
X243871272Y-177534979D01*
X244156986Y-177534979D02*
X244156986Y-176534979D01*
X244156986Y-176534979D02*
X244061748Y-176677836D01*
X244061748Y-176677836D02*
X243966510Y-176773074D01*
X243966510Y-176773074D02*
X243871272Y-176820693D01*
X244776034Y-176534979D02*
X245395081Y-176534979D01*
X245395081Y-176534979D02*
X245061748Y-176915931D01*
X245061748Y-176915931D02*
X245204605Y-176915931D01*
X245204605Y-176915931D02*
X245299843Y-176963550D01*
X245299843Y-176963550D02*
X245347462Y-177011169D01*
X245347462Y-177011169D02*
X245395081Y-177106407D01*
X245395081Y-177106407D02*
X245395081Y-177344502D01*
X245395081Y-177344502D02*
X245347462Y-177439740D01*
X245347462Y-177439740D02*
X245299843Y-177487360D01*
X245299843Y-177487360D02*
X245204605Y-177534979D01*
X245204605Y-177534979D02*
X244918891Y-177534979D01*
X244918891Y-177534979D02*
X244823653Y-177487360D01*
X244823653Y-177487360D02*
X244776034Y-177439740D01*
X238180795Y-162694860D02*
X239323653Y-162694860D01*
X249180795Y-162694860D02*
X250323653Y-162694860D01*
X249752224Y-163266288D02*
X249752224Y-162123431D01*
X223175371Y-106421574D02*
X223175371Y-107135859D01*
X223175371Y-107135859D02*
X223127752Y-107278716D01*
X223127752Y-107278716D02*
X223032514Y-107373955D01*
X223032514Y-107373955D02*
X222889657Y-107421574D01*
X222889657Y-107421574D02*
X222794419Y-107421574D01*
X224175371Y-107421574D02*
X223603943Y-107421574D01*
X223889657Y-107421574D02*
X223889657Y-106421574D01*
X223889657Y-106421574D02*
X223794419Y-106564431D01*
X223794419Y-106564431D02*
X223699181Y-106659669D01*
X223699181Y-106659669D02*
X223603943Y-106707288D01*
X224556324Y-106516812D02*
X224603943Y-106469193D01*
X224603943Y-106469193D02*
X224699181Y-106421574D01*
X224699181Y-106421574D02*
X224937276Y-106421574D01*
X224937276Y-106421574D02*
X225032514Y-106469193D01*
X225032514Y-106469193D02*
X225080133Y-106516812D01*
X225080133Y-106516812D02*
X225127752Y-106612050D01*
X225127752Y-106612050D02*
X225127752Y-106707288D01*
X225127752Y-106707288D02*
X225080133Y-106850145D01*
X225080133Y-106850145D02*
X224508705Y-107421574D01*
X224508705Y-107421574D02*
X225127752Y-107421574D01*
X228913466Y-121581455D02*
X230056324Y-121581455D01*
X217913466Y-121581455D02*
X219056324Y-121581455D01*
X218484895Y-122152883D02*
X218484895Y-121010026D01*
X223122701Y-176534978D02*
X223122701Y-177249263D01*
X223122701Y-177249263D02*
X223075082Y-177392120D01*
X223075082Y-177392120D02*
X222979844Y-177487359D01*
X222979844Y-177487359D02*
X222836987Y-177534978D01*
X222836987Y-177534978D02*
X222741749Y-177534978D01*
X224122701Y-177534978D02*
X223551273Y-177534978D01*
X223836987Y-177534978D02*
X223836987Y-176534978D01*
X223836987Y-176534978D02*
X223741749Y-176677835D01*
X223741749Y-176677835D02*
X223646511Y-176773073D01*
X223646511Y-176773073D02*
X223551273Y-176820692D01*
X225075082Y-177534978D02*
X224503654Y-177534978D01*
X224789368Y-177534978D02*
X224789368Y-176534978D01*
X224789368Y-176534978D02*
X224694130Y-176677835D01*
X224694130Y-176677835D02*
X224598892Y-176773073D01*
X224598892Y-176773073D02*
X224503654Y-176820692D01*
X217860796Y-162694859D02*
X219003654Y-162694859D01*
X228860796Y-162694859D02*
X230003654Y-162694859D01*
X229432225Y-163266287D02*
X229432225Y-162123430D01*
X202855372Y-106421573D02*
X202855372Y-107135858D01*
X202855372Y-107135858D02*
X202807753Y-107278715D01*
X202807753Y-107278715D02*
X202712515Y-107373954D01*
X202712515Y-107373954D02*
X202569658Y-107421573D01*
X202569658Y-107421573D02*
X202474420Y-107421573D01*
X203855372Y-107421573D02*
X203283944Y-107421573D01*
X203569658Y-107421573D02*
X203569658Y-106421573D01*
X203569658Y-106421573D02*
X203474420Y-106564430D01*
X203474420Y-106564430D02*
X203379182Y-106659668D01*
X203379182Y-106659668D02*
X203283944Y-106707287D01*
X204474420Y-106421573D02*
X204569658Y-106421573D01*
X204569658Y-106421573D02*
X204664896Y-106469192D01*
X204664896Y-106469192D02*
X204712515Y-106516811D01*
X204712515Y-106516811D02*
X204760134Y-106612049D01*
X204760134Y-106612049D02*
X204807753Y-106802525D01*
X204807753Y-106802525D02*
X204807753Y-107040620D01*
X204807753Y-107040620D02*
X204760134Y-107231096D01*
X204760134Y-107231096D02*
X204712515Y-107326334D01*
X204712515Y-107326334D02*
X204664896Y-107373954D01*
X204664896Y-107373954D02*
X204569658Y-107421573D01*
X204569658Y-107421573D02*
X204474420Y-107421573D01*
X204474420Y-107421573D02*
X204379182Y-107373954D01*
X204379182Y-107373954D02*
X204331563Y-107326334D01*
X204331563Y-107326334D02*
X204283944Y-107231096D01*
X204283944Y-107231096D02*
X204236325Y-107040620D01*
X204236325Y-107040620D02*
X204236325Y-106802525D01*
X204236325Y-106802525D02*
X204283944Y-106612049D01*
X204283944Y-106612049D02*
X204331563Y-106516811D01*
X204331563Y-106516811D02*
X204379182Y-106469192D01*
X204379182Y-106469192D02*
X204474420Y-106421573D01*
X208593467Y-121581454D02*
X209736325Y-121581454D01*
X197593467Y-121581454D02*
X198736325Y-121581454D01*
X198164896Y-122152882D02*
X198164896Y-121010025D01*
X203278890Y-176534978D02*
X203278890Y-177249263D01*
X203278890Y-177249263D02*
X203231271Y-177392120D01*
X203231271Y-177392120D02*
X203136033Y-177487359D01*
X203136033Y-177487359D02*
X202993176Y-177534978D01*
X202993176Y-177534978D02*
X202897938Y-177534978D01*
X203802700Y-177534978D02*
X203993176Y-177534978D01*
X203993176Y-177534978D02*
X204088414Y-177487359D01*
X204088414Y-177487359D02*
X204136033Y-177439739D01*
X204136033Y-177439739D02*
X204231271Y-177296882D01*
X204231271Y-177296882D02*
X204278890Y-177106406D01*
X204278890Y-177106406D02*
X204278890Y-176725454D01*
X204278890Y-176725454D02*
X204231271Y-176630216D01*
X204231271Y-176630216D02*
X204183652Y-176582597D01*
X204183652Y-176582597D02*
X204088414Y-176534978D01*
X204088414Y-176534978D02*
X203897938Y-176534978D01*
X203897938Y-176534978D02*
X203802700Y-176582597D01*
X203802700Y-176582597D02*
X203755081Y-176630216D01*
X203755081Y-176630216D02*
X203707462Y-176725454D01*
X203707462Y-176725454D02*
X203707462Y-176963549D01*
X203707462Y-176963549D02*
X203755081Y-177058787D01*
X203755081Y-177058787D02*
X203802700Y-177106406D01*
X203802700Y-177106406D02*
X203897938Y-177154025D01*
X203897938Y-177154025D02*
X204088414Y-177154025D01*
X204088414Y-177154025D02*
X204183652Y-177106406D01*
X204183652Y-177106406D02*
X204231271Y-177058787D01*
X204231271Y-177058787D02*
X204278890Y-176963549D01*
X197540795Y-162694859D02*
X198683653Y-162694859D01*
X208540795Y-162694859D02*
X209683653Y-162694859D01*
X209112224Y-163266287D02*
X209112224Y-162123430D01*
X183011561Y-106421573D02*
X183011561Y-107135858D01*
X183011561Y-107135858D02*
X182963942Y-107278715D01*
X182963942Y-107278715D02*
X182868704Y-107373954D01*
X182868704Y-107373954D02*
X182725847Y-107421573D01*
X182725847Y-107421573D02*
X182630609Y-107421573D01*
X183630609Y-106850144D02*
X183535371Y-106802525D01*
X183535371Y-106802525D02*
X183487752Y-106754906D01*
X183487752Y-106754906D02*
X183440133Y-106659668D01*
X183440133Y-106659668D02*
X183440133Y-106612049D01*
X183440133Y-106612049D02*
X183487752Y-106516811D01*
X183487752Y-106516811D02*
X183535371Y-106469192D01*
X183535371Y-106469192D02*
X183630609Y-106421573D01*
X183630609Y-106421573D02*
X183821085Y-106421573D01*
X183821085Y-106421573D02*
X183916323Y-106469192D01*
X183916323Y-106469192D02*
X183963942Y-106516811D01*
X183963942Y-106516811D02*
X184011561Y-106612049D01*
X184011561Y-106612049D02*
X184011561Y-106659668D01*
X184011561Y-106659668D02*
X183963942Y-106754906D01*
X183963942Y-106754906D02*
X183916323Y-106802525D01*
X183916323Y-106802525D02*
X183821085Y-106850144D01*
X183821085Y-106850144D02*
X183630609Y-106850144D01*
X183630609Y-106850144D02*
X183535371Y-106897763D01*
X183535371Y-106897763D02*
X183487752Y-106945382D01*
X183487752Y-106945382D02*
X183440133Y-107040620D01*
X183440133Y-107040620D02*
X183440133Y-107231096D01*
X183440133Y-107231096D02*
X183487752Y-107326334D01*
X183487752Y-107326334D02*
X183535371Y-107373954D01*
X183535371Y-107373954D02*
X183630609Y-107421573D01*
X183630609Y-107421573D02*
X183821085Y-107421573D01*
X183821085Y-107421573D02*
X183916323Y-107373954D01*
X183916323Y-107373954D02*
X183963942Y-107326334D01*
X183963942Y-107326334D02*
X184011561Y-107231096D01*
X184011561Y-107231096D02*
X184011561Y-107040620D01*
X184011561Y-107040620D02*
X183963942Y-106945382D01*
X183963942Y-106945382D02*
X183916323Y-106897763D01*
X183916323Y-106897763D02*
X183821085Y-106850144D01*
X188273466Y-121581454D02*
X189416324Y-121581454D01*
X177273466Y-121581454D02*
X178416324Y-121581454D01*
X177844895Y-122152882D02*
X177844895Y-121010025D01*
X182958891Y-176534979D02*
X182958891Y-177249264D01*
X182958891Y-177249264D02*
X182911272Y-177392121D01*
X182911272Y-177392121D02*
X182816034Y-177487360D01*
X182816034Y-177487360D02*
X182673177Y-177534979D01*
X182673177Y-177534979D02*
X182577939Y-177534979D01*
X183339844Y-176534979D02*
X184006510Y-176534979D01*
X184006510Y-176534979D02*
X183577939Y-177534979D01*
X177220796Y-162694860D02*
X178363654Y-162694860D01*
X188220796Y-162694860D02*
X189363654Y-162694860D01*
X188792225Y-163266288D02*
X188792225Y-162123431D01*
X162691562Y-106421574D02*
X162691562Y-107135859D01*
X162691562Y-107135859D02*
X162643943Y-107278716D01*
X162643943Y-107278716D02*
X162548705Y-107373955D01*
X162548705Y-107373955D02*
X162405848Y-107421574D01*
X162405848Y-107421574D02*
X162310610Y-107421574D01*
X163596324Y-106421574D02*
X163405848Y-106421574D01*
X163405848Y-106421574D02*
X163310610Y-106469193D01*
X163310610Y-106469193D02*
X163262991Y-106516812D01*
X163262991Y-106516812D02*
X163167753Y-106659669D01*
X163167753Y-106659669D02*
X163120134Y-106850145D01*
X163120134Y-106850145D02*
X163120134Y-107231097D01*
X163120134Y-107231097D02*
X163167753Y-107326335D01*
X163167753Y-107326335D02*
X163215372Y-107373955D01*
X163215372Y-107373955D02*
X163310610Y-107421574D01*
X163310610Y-107421574D02*
X163501086Y-107421574D01*
X163501086Y-107421574D02*
X163596324Y-107373955D01*
X163596324Y-107373955D02*
X163643943Y-107326335D01*
X163643943Y-107326335D02*
X163691562Y-107231097D01*
X163691562Y-107231097D02*
X163691562Y-106993002D01*
X163691562Y-106993002D02*
X163643943Y-106897764D01*
X163643943Y-106897764D02*
X163596324Y-106850145D01*
X163596324Y-106850145D02*
X163501086Y-106802526D01*
X163501086Y-106802526D02*
X163310610Y-106802526D01*
X163310610Y-106802526D02*
X163215372Y-106850145D01*
X163215372Y-106850145D02*
X163167753Y-106897764D01*
X163167753Y-106897764D02*
X163120134Y-106993002D01*
X167953467Y-121581455D02*
X169096325Y-121581455D01*
X156953467Y-121581455D02*
X158096325Y-121581455D01*
X157524896Y-122152883D02*
X157524896Y-121010026D01*
X162638890Y-176534979D02*
X162638890Y-177249264D01*
X162638890Y-177249264D02*
X162591271Y-177392121D01*
X162591271Y-177392121D02*
X162496033Y-177487360D01*
X162496033Y-177487360D02*
X162353176Y-177534979D01*
X162353176Y-177534979D02*
X162257938Y-177534979D01*
X163591271Y-176534979D02*
X163115081Y-176534979D01*
X163115081Y-176534979D02*
X163067462Y-177011169D01*
X163067462Y-177011169D02*
X163115081Y-176963550D01*
X163115081Y-176963550D02*
X163210319Y-176915931D01*
X163210319Y-176915931D02*
X163448414Y-176915931D01*
X163448414Y-176915931D02*
X163543652Y-176963550D01*
X163543652Y-176963550D02*
X163591271Y-177011169D01*
X163591271Y-177011169D02*
X163638890Y-177106407D01*
X163638890Y-177106407D02*
X163638890Y-177344502D01*
X163638890Y-177344502D02*
X163591271Y-177439740D01*
X163591271Y-177439740D02*
X163543652Y-177487360D01*
X163543652Y-177487360D02*
X163448414Y-177534979D01*
X163448414Y-177534979D02*
X163210319Y-177534979D01*
X163210319Y-177534979D02*
X163115081Y-177487360D01*
X163115081Y-177487360D02*
X163067462Y-177439740D01*
X156900795Y-162694860D02*
X158043653Y-162694860D01*
X167900795Y-162694860D02*
X169043653Y-162694860D01*
X168472224Y-163266288D02*
X168472224Y-162123431D01*
X142318891Y-176534978D02*
X142318891Y-177249263D01*
X142318891Y-177249263D02*
X142271272Y-177392120D01*
X142271272Y-177392120D02*
X142176034Y-177487359D01*
X142176034Y-177487359D02*
X142033177Y-177534978D01*
X142033177Y-177534978D02*
X141937939Y-177534978D01*
X142699844Y-176534978D02*
X143318891Y-176534978D01*
X143318891Y-176534978D02*
X142985558Y-176915930D01*
X142985558Y-176915930D02*
X143128415Y-176915930D01*
X143128415Y-176915930D02*
X143223653Y-176963549D01*
X143223653Y-176963549D02*
X143271272Y-177011168D01*
X143271272Y-177011168D02*
X143318891Y-177106406D01*
X143318891Y-177106406D02*
X143318891Y-177344501D01*
X143318891Y-177344501D02*
X143271272Y-177439739D01*
X143271272Y-177439739D02*
X143223653Y-177487359D01*
X143223653Y-177487359D02*
X143128415Y-177534978D01*
X143128415Y-177534978D02*
X142842701Y-177534978D01*
X142842701Y-177534978D02*
X142747463Y-177487359D01*
X142747463Y-177487359D02*
X142699844Y-177439739D01*
X136580796Y-162694859D02*
X137723654Y-162694859D01*
X147580796Y-162694859D02*
X148723654Y-162694859D01*
X148152225Y-163266287D02*
X148152225Y-162123430D01*
X273709819Y-142573333D02*
X274424104Y-142573333D01*
X274424104Y-142573333D02*
X274566961Y-142620952D01*
X274566961Y-142620952D02*
X274662200Y-142716190D01*
X274662200Y-142716190D02*
X274709819Y-142859047D01*
X274709819Y-142859047D02*
X274709819Y-142954285D01*
X273805057Y-142144761D02*
X273757438Y-142097142D01*
X273757438Y-142097142D02*
X273709819Y-142001904D01*
X273709819Y-142001904D02*
X273709819Y-141763809D01*
X273709819Y-141763809D02*
X273757438Y-141668571D01*
X273757438Y-141668571D02*
X273805057Y-141620952D01*
X273805057Y-141620952D02*
X273900295Y-141573333D01*
X273900295Y-141573333D02*
X273995533Y-141573333D01*
X273995533Y-141573333D02*
X274138390Y-141620952D01*
X274138390Y-141620952D02*
X274709819Y-142192380D01*
X274709819Y-142192380D02*
X274709819Y-141573333D01*
X259869700Y-148311428D02*
X259869700Y-147168571D01*
X259869700Y-137311428D02*
X259869700Y-136168571D01*
X260441128Y-136739999D02*
X259298271Y-136739999D01*
X254508095Y-126194819D02*
X254508095Y-125194819D01*
X254508095Y-125671009D02*
X255079523Y-125671009D01*
X255079523Y-126194819D02*
X255079523Y-125194819D01*
X255508095Y-125290057D02*
X255555714Y-125242438D01*
X255555714Y-125242438D02*
X255650952Y-125194819D01*
X255650952Y-125194819D02*
X255889047Y-125194819D01*
X255889047Y-125194819D02*
X255984285Y-125242438D01*
X255984285Y-125242438D02*
X256031904Y-125290057D01*
X256031904Y-125290057D02*
X256079523Y-125385295D01*
X256079523Y-125385295D02*
X256079523Y-125480533D01*
X256079523Y-125480533D02*
X256031904Y-125623390D01*
X256031904Y-125623390D02*
X255460476Y-126194819D01*
X255460476Y-126194819D02*
X256079523Y-126194819D01*
X254508095Y-151594819D02*
X254508095Y-150594819D01*
X254508095Y-151071009D02*
X255079523Y-151071009D01*
X255079523Y-151594819D02*
X255079523Y-150594819D01*
X255984285Y-150928152D02*
X255984285Y-151594819D01*
X255746190Y-150547200D02*
X255508095Y-151261485D01*
X255508095Y-151261485D02*
X256127142Y-151261485D01*
X152908095Y-126194819D02*
X152908095Y-125194819D01*
X152908095Y-125671009D02*
X153479523Y-125671009D01*
X153479523Y-126194819D02*
X153479523Y-125194819D01*
X154479523Y-126194819D02*
X153908095Y-126194819D01*
X154193809Y-126194819D02*
X154193809Y-125194819D01*
X154193809Y-125194819D02*
X154098571Y-125337676D01*
X154098571Y-125337676D02*
X154003333Y-125432914D01*
X154003333Y-125432914D02*
X153908095Y-125480533D01*
X152908095Y-151594819D02*
X152908095Y-150594819D01*
X152908095Y-151071009D02*
X153479523Y-151071009D01*
X153479523Y-151594819D02*
X153479523Y-150594819D01*
X153860476Y-150594819D02*
X154479523Y-150594819D01*
X154479523Y-150594819D02*
X154146190Y-150975771D01*
X154146190Y-150975771D02*
X154289047Y-150975771D01*
X154289047Y-150975771D02*
X154384285Y-151023390D01*
X154384285Y-151023390D02*
X154431904Y-151071009D01*
X154431904Y-151071009D02*
X154479523Y-151166247D01*
X154479523Y-151166247D02*
X154479523Y-151404342D01*
X154479523Y-151404342D02*
X154431904Y-151499580D01*
X154431904Y-151499580D02*
X154384285Y-151547200D01*
X154384285Y-151547200D02*
X154289047Y-151594819D01*
X154289047Y-151594819D02*
X154003333Y-151594819D01*
X154003333Y-151594819D02*
X153908095Y-151547200D01*
X153908095Y-151547200D02*
X153860476Y-151499580D01*
D12*
%TO.C,J1*%
X126879999Y-150100000D02*
X141190000Y-150099999D01*
X126879999Y-150100000D02*
X126880000Y-134380000D01*
X145300000Y-143530000D02*
X145300000Y-139790000D01*
X126880000Y-134380000D02*
X141190000Y-134380000D01*
X144712958Y-148106806D02*
G75*
G02*
X141190000Y-150099999I-3522955J2116802D01*
G01*
X141190000Y-134380000D02*
G75*
G02*
X145120413Y-137288352I0J-4110000D01*
G01*
%TO.C,J4*%
X137054896Y-110356755D02*
X137644896Y-110356755D01*
X137054896Y-112576755D02*
X137644896Y-112576755D01*
X137644896Y-108256755D02*
X137644896Y-110356755D01*
X137644896Y-108256755D02*
X147764896Y-108256755D01*
X137644896Y-112576755D02*
X137644896Y-117476755D01*
X137644896Y-117476755D02*
X147764896Y-117476755D01*
X147764896Y-108256755D02*
X147764896Y-110356755D01*
X147764896Y-110356755D02*
X148354896Y-110356755D01*
X147764896Y-112576755D02*
X147764896Y-117476755D01*
X147764896Y-112576755D02*
X148354896Y-112576755D01*
X137054896Y-112576755D02*
G75*
G02*
X137054896Y-110356755I0J1110000D01*
G01*
X148354896Y-110356755D02*
G75*
G02*
X148354896Y-112576755I0J-1110000D01*
G01*
%TO.C,J16*%
X258974895Y-110356754D02*
X259564895Y-110356754D01*
X258974895Y-112576754D02*
X259564895Y-112576754D01*
X259564895Y-108256754D02*
X259564895Y-110356754D01*
X259564895Y-108256754D02*
X269684895Y-108256754D01*
X259564895Y-112576754D02*
X259564895Y-117476754D01*
X259564895Y-117476754D02*
X269684895Y-117476754D01*
X269684895Y-108256754D02*
X269684895Y-110356754D01*
X269684895Y-110356754D02*
X270274895Y-110356754D01*
X269684895Y-112576754D02*
X269684895Y-117476754D01*
X269684895Y-112576754D02*
X270274895Y-112576754D01*
X258974895Y-112576754D02*
G75*
G02*
X258974895Y-110356754I0J1110000D01*
G01*
X270274895Y-110356754D02*
G75*
G02*
X270274895Y-112576754I0J-1110000D01*
G01*
%TO.C,J15*%
X270222224Y-173690160D02*
X269632224Y-173690160D01*
X270222224Y-171470160D02*
X269632224Y-171470160D01*
X269632224Y-175790160D02*
X269632224Y-173690160D01*
X269632224Y-175790160D02*
X259512224Y-175790160D01*
X269632224Y-171470160D02*
X269632224Y-166570160D01*
X269632224Y-166570160D02*
X259512224Y-166570160D01*
X259512224Y-175790160D02*
X259512224Y-173690160D01*
X259512224Y-173690160D02*
X258922224Y-173690160D01*
X259512224Y-171470160D02*
X259512224Y-166570160D01*
X259512224Y-171470160D02*
X258922224Y-171470160D01*
X270222224Y-171470160D02*
G75*
G02*
X270222224Y-173690160I0J-1110000D01*
G01*
X258922224Y-173690160D02*
G75*
G02*
X258922224Y-171470160I0J1110000D01*
G01*
%TO.C,J14*%
X238654896Y-110356755D02*
X239244896Y-110356755D01*
X238654896Y-112576755D02*
X239244896Y-112576755D01*
X239244896Y-108256755D02*
X239244896Y-110356755D01*
X239244896Y-108256755D02*
X249364896Y-108256755D01*
X239244896Y-112576755D02*
X239244896Y-117476755D01*
X239244896Y-117476755D02*
X249364896Y-117476755D01*
X249364896Y-108256755D02*
X249364896Y-110356755D01*
X249364896Y-110356755D02*
X249954896Y-110356755D01*
X249364896Y-112576755D02*
X249364896Y-117476755D01*
X249364896Y-112576755D02*
X249954896Y-112576755D01*
X238654896Y-112576755D02*
G75*
G02*
X238654896Y-110356755I0J1110000D01*
G01*
X249954896Y-110356755D02*
G75*
G02*
X249954896Y-112576755I0J-1110000D01*
G01*
%TO.C,J13*%
X249902224Y-173690160D02*
X249312224Y-173690160D01*
X249902224Y-171470160D02*
X249312224Y-171470160D01*
X249312224Y-175790160D02*
X249312224Y-173690160D01*
X249312224Y-175790160D02*
X239192224Y-175790160D01*
X249312224Y-171470160D02*
X249312224Y-166570160D01*
X249312224Y-166570160D02*
X239192224Y-166570160D01*
X239192224Y-175790160D02*
X239192224Y-173690160D01*
X239192224Y-173690160D02*
X238602224Y-173690160D01*
X239192224Y-171470160D02*
X239192224Y-166570160D01*
X239192224Y-171470160D02*
X238602224Y-171470160D01*
X249902224Y-171470160D02*
G75*
G02*
X249902224Y-173690160I0J-1110000D01*
G01*
X238602224Y-173690160D02*
G75*
G02*
X238602224Y-171470160I0J1110000D01*
G01*
%TO.C,J12*%
X218334895Y-110356755D02*
X218924895Y-110356755D01*
X218334895Y-112576755D02*
X218924895Y-112576755D01*
X218924895Y-108256755D02*
X218924895Y-110356755D01*
X218924895Y-108256755D02*
X229044895Y-108256755D01*
X218924895Y-112576755D02*
X218924895Y-117476755D01*
X218924895Y-117476755D02*
X229044895Y-117476755D01*
X229044895Y-108256755D02*
X229044895Y-110356755D01*
X229044895Y-110356755D02*
X229634895Y-110356755D01*
X229044895Y-112576755D02*
X229044895Y-117476755D01*
X229044895Y-112576755D02*
X229634895Y-112576755D01*
X218334895Y-112576755D02*
G75*
G02*
X218334895Y-110356755I0J1110000D01*
G01*
X229634895Y-110356755D02*
G75*
G02*
X229634895Y-112576755I0J-1110000D01*
G01*
%TO.C,J11*%
X229582225Y-173690159D02*
X228992225Y-173690159D01*
X229582225Y-171470159D02*
X228992225Y-171470159D01*
X228992225Y-175790159D02*
X228992225Y-173690159D01*
X228992225Y-175790159D02*
X218872225Y-175790159D01*
X228992225Y-171470159D02*
X228992225Y-166570159D01*
X228992225Y-166570159D02*
X218872225Y-166570159D01*
X218872225Y-175790159D02*
X218872225Y-173690159D01*
X218872225Y-173690159D02*
X218282225Y-173690159D01*
X218872225Y-171470159D02*
X218872225Y-166570159D01*
X218872225Y-171470159D02*
X218282225Y-171470159D01*
X229582225Y-171470159D02*
G75*
G02*
X229582225Y-173690159I0J-1110000D01*
G01*
X218282225Y-173690159D02*
G75*
G02*
X218282225Y-171470159I0J1110000D01*
G01*
%TO.C,J10*%
X198014896Y-110356754D02*
X198604896Y-110356754D01*
X198014896Y-112576754D02*
X198604896Y-112576754D01*
X198604896Y-108256754D02*
X198604896Y-110356754D01*
X198604896Y-108256754D02*
X208724896Y-108256754D01*
X198604896Y-112576754D02*
X198604896Y-117476754D01*
X198604896Y-117476754D02*
X208724896Y-117476754D01*
X208724896Y-108256754D02*
X208724896Y-110356754D01*
X208724896Y-110356754D02*
X209314896Y-110356754D01*
X208724896Y-112576754D02*
X208724896Y-117476754D01*
X208724896Y-112576754D02*
X209314896Y-112576754D01*
X198014896Y-112576754D02*
G75*
G02*
X198014896Y-110356754I0J1110000D01*
G01*
X209314896Y-110356754D02*
G75*
G02*
X209314896Y-112576754I0J-1110000D01*
G01*
%TO.C,J9*%
X209262224Y-173690159D02*
X208672224Y-173690159D01*
X209262224Y-171470159D02*
X208672224Y-171470159D01*
X208672224Y-175790159D02*
X208672224Y-173690159D01*
X208672224Y-175790159D02*
X198552224Y-175790159D01*
X208672224Y-171470159D02*
X208672224Y-166570159D01*
X208672224Y-166570159D02*
X198552224Y-166570159D01*
X198552224Y-175790159D02*
X198552224Y-173690159D01*
X198552224Y-173690159D02*
X197962224Y-173690159D01*
X198552224Y-171470159D02*
X198552224Y-166570159D01*
X198552224Y-171470159D02*
X197962224Y-171470159D01*
X209262224Y-171470159D02*
G75*
G02*
X209262224Y-173690159I0J-1110000D01*
G01*
X197962224Y-173690159D02*
G75*
G02*
X197962224Y-171470159I0J1110000D01*
G01*
%TO.C,J8*%
X177694895Y-110356754D02*
X178284895Y-110356754D01*
X177694895Y-112576754D02*
X178284895Y-112576754D01*
X178284895Y-108256754D02*
X178284895Y-110356754D01*
X178284895Y-108256754D02*
X188404895Y-108256754D01*
X178284895Y-112576754D02*
X178284895Y-117476754D01*
X178284895Y-117476754D02*
X188404895Y-117476754D01*
X188404895Y-108256754D02*
X188404895Y-110356754D01*
X188404895Y-110356754D02*
X188994895Y-110356754D01*
X188404895Y-112576754D02*
X188404895Y-117476754D01*
X188404895Y-112576754D02*
X188994895Y-112576754D01*
X177694895Y-112576754D02*
G75*
G02*
X177694895Y-110356754I0J1110000D01*
G01*
X188994895Y-110356754D02*
G75*
G02*
X188994895Y-112576754I0J-1110000D01*
G01*
%TO.C,J7*%
X188942225Y-173690160D02*
X188352225Y-173690160D01*
X188942225Y-171470160D02*
X188352225Y-171470160D01*
X188352225Y-175790160D02*
X188352225Y-173690160D01*
X188352225Y-175790160D02*
X178232225Y-175790160D01*
X188352225Y-171470160D02*
X188352225Y-166570160D01*
X188352225Y-166570160D02*
X178232225Y-166570160D01*
X178232225Y-175790160D02*
X178232225Y-173690160D01*
X178232225Y-173690160D02*
X177642225Y-173690160D01*
X178232225Y-171470160D02*
X178232225Y-166570160D01*
X178232225Y-171470160D02*
X177642225Y-171470160D01*
X188942225Y-171470160D02*
G75*
G02*
X188942225Y-173690160I0J-1110000D01*
G01*
X177642225Y-173690160D02*
G75*
G02*
X177642225Y-171470160I0J1110000D01*
G01*
%TO.C,J6*%
X157374896Y-110356755D02*
X157964896Y-110356755D01*
X157374896Y-112576755D02*
X157964896Y-112576755D01*
X157964896Y-108256755D02*
X157964896Y-110356755D01*
X157964896Y-108256755D02*
X168084896Y-108256755D01*
X157964896Y-112576755D02*
X157964896Y-117476755D01*
X157964896Y-117476755D02*
X168084896Y-117476755D01*
X168084896Y-108256755D02*
X168084896Y-110356755D01*
X168084896Y-110356755D02*
X168674896Y-110356755D01*
X168084896Y-112576755D02*
X168084896Y-117476755D01*
X168084896Y-112576755D02*
X168674896Y-112576755D01*
X157374896Y-112576755D02*
G75*
G02*
X157374896Y-110356755I0J1110000D01*
G01*
X168674896Y-110356755D02*
G75*
G02*
X168674896Y-112576755I0J-1110000D01*
G01*
%TO.C,J5*%
X168622224Y-173690160D02*
X168032224Y-173690160D01*
X168622224Y-171470160D02*
X168032224Y-171470160D01*
X168032224Y-175790160D02*
X168032224Y-173690160D01*
X168032224Y-175790160D02*
X157912224Y-175790160D01*
X168032224Y-171470160D02*
X168032224Y-166570160D01*
X168032224Y-166570160D02*
X157912224Y-166570160D01*
X157912224Y-175790160D02*
X157912224Y-173690160D01*
X157912224Y-173690160D02*
X157322224Y-173690160D01*
X157912224Y-171470160D02*
X157912224Y-166570160D01*
X157912224Y-171470160D02*
X157322224Y-171470160D01*
X168622224Y-171470160D02*
G75*
G02*
X168622224Y-173690160I0J-1110000D01*
G01*
X157322224Y-173690160D02*
G75*
G02*
X157322224Y-171470160I0J1110000D01*
G01*
%TO.C,J3*%
X148302225Y-173690159D02*
X147712225Y-173690159D01*
X148302225Y-171470159D02*
X147712225Y-171470159D01*
X147712225Y-175790159D02*
X147712225Y-173690159D01*
X147712225Y-175790159D02*
X137592225Y-175790159D01*
X147712225Y-171470159D02*
X147712225Y-166570159D01*
X147712225Y-166570159D02*
X137592225Y-166570159D01*
X137592225Y-175790159D02*
X137592225Y-173690159D01*
X137592225Y-173690159D02*
X137002225Y-173690159D01*
X137592225Y-171470159D02*
X137592225Y-166570159D01*
X137592225Y-171470159D02*
X137002225Y-171470159D01*
X148302225Y-171470159D02*
G75*
G02*
X148302225Y-173690159I0J-1110000D01*
G01*
X137002225Y-173690159D02*
G75*
G02*
X137002225Y-171470159I0J1110000D01*
G01*
%TO.C,J2*%
X270865000Y-136590000D02*
X270865000Y-137180000D01*
X268645000Y-136590000D02*
X268645000Y-137180000D01*
X272965000Y-137180000D02*
X270865000Y-137180000D01*
X272965000Y-137180000D02*
X272965000Y-147300000D01*
X268645000Y-137180000D02*
X263745000Y-137180000D01*
X263745000Y-137180000D02*
X263745000Y-147300000D01*
X272965000Y-147300000D02*
X270865000Y-147300000D01*
X270865000Y-147300000D02*
X270865000Y-147890000D01*
X268645000Y-147300000D02*
X263745000Y-147300000D01*
X268645000Y-147300000D02*
X268645000Y-147890000D01*
X268645000Y-136590000D02*
G75*
G02*
X270865000Y-136590000I1110000J0D01*
G01*
X270865000Y-147890000D02*
G75*
G02*
X268645000Y-147890000I-1110000J0D01*
G01*
D13*
%TO.C,G\u002A\u002A\u002A*%
G36*
X199455810Y-141656837D02*
G01*
X199478424Y-145004626D01*
X196993566Y-145008722D01*
X196303417Y-145011539D01*
X195623565Y-145017393D01*
X194986573Y-145025774D01*
X194425002Y-145036176D01*
X193971410Y-145048087D01*
X193660623Y-145060868D01*
X193244280Y-145076170D01*
X192846357Y-145076539D01*
X192529438Y-145062461D01*
X192428491Y-145051327D01*
X192044444Y-144993736D01*
X192089660Y-138309048D01*
X199433197Y-138309048D01*
X199455810Y-141656837D01*
G37*
G36*
X219908707Y-138309048D02*
G01*
X219933493Y-141600416D01*
X219938966Y-142478036D01*
X219940660Y-143197034D01*
X219938215Y-143771546D01*
X219931267Y-144215704D01*
X219919455Y-144543644D01*
X219902417Y-144769500D01*
X219879793Y-144907405D01*
X219851218Y-144971496D01*
X219847098Y-144975105D01*
X219733505Y-144995697D01*
X219459034Y-145013554D01*
X219035583Y-145028425D01*
X218475048Y-145040059D01*
X217789323Y-145048204D01*
X216990305Y-145052611D01*
X216150544Y-145053124D01*
X212565170Y-145047823D01*
X212542568Y-141655909D01*
X212519965Y-138263994D01*
X219908707Y-138309048D01*
G37*
G36*
X209238980Y-145436599D02*
G01*
X209282177Y-152564150D01*
X210146122Y-152562777D01*
X210558588Y-152557574D01*
X210849141Y-152537222D01*
X211068561Y-152492271D01*
X211267630Y-152413269D01*
X211442041Y-152321598D01*
X211911279Y-151969111D01*
X212245833Y-151513144D01*
X212435122Y-150968179D01*
X212436608Y-150960421D01*
X212465258Y-150721923D01*
X212489815Y-150350668D01*
X212508528Y-149886675D01*
X212519645Y-149369960D01*
X212521973Y-149010181D01*
X212521973Y-147510068D01*
X216188643Y-147510068D01*
X216967031Y-147511545D01*
X217690340Y-147515765D01*
X218340635Y-147522416D01*
X218899981Y-147531182D01*
X219350442Y-147541748D01*
X219674083Y-147553799D01*
X219852968Y-147567024D01*
X219883249Y-147574864D01*
X219889472Y-147678907D01*
X219888866Y-147925398D01*
X219881959Y-148284151D01*
X219869276Y-148724982D01*
X219857284Y-149065170D01*
X219748729Y-150448295D01*
X219526584Y-151714846D01*
X219181824Y-152885805D01*
X218705425Y-153982159D01*
X218088360Y-155024888D01*
X217321605Y-156034978D01*
X216455687Y-156974070D01*
X215825782Y-157575868D01*
X215246303Y-158062102D01*
X214675610Y-158463430D01*
X214072062Y-158810509D01*
X213731497Y-158979686D01*
X213287651Y-159181658D01*
X212881317Y-159343081D01*
X212466418Y-159478095D01*
X211996880Y-159600840D01*
X211426628Y-159725455D01*
X211068188Y-159797020D01*
X210833258Y-159841710D01*
X210613767Y-159879087D01*
X210392090Y-159909804D01*
X210150603Y-159934512D01*
X209871684Y-159953862D01*
X209537709Y-159968507D01*
X209131051Y-159979099D01*
X208634090Y-159986289D01*
X208029201Y-159990729D01*
X207298760Y-159993071D01*
X206425143Y-159993966D01*
X205740000Y-159994082D01*
X201420272Y-159994082D01*
X200348654Y-159748009D01*
X199292437Y-159459713D01*
X198356637Y-159099053D01*
X197496050Y-158642917D01*
X196665470Y-158068189D01*
X196026518Y-157537890D01*
X195060190Y-156591507D01*
X194237587Y-155583615D01*
X193553864Y-154503336D01*
X193004182Y-153339791D01*
X192583698Y-152082100D01*
X192287569Y-150719383D01*
X192110953Y-149240762D01*
X192074783Y-148659136D01*
X192019675Y-147510068D01*
X199476395Y-147510068D01*
X199476395Y-149135884D01*
X199482764Y-149852413D01*
X199504900Y-150421327D01*
X199547344Y-150867432D01*
X199614636Y-151215540D01*
X199711318Y-151490457D01*
X199841932Y-151716993D01*
X199979917Y-151886652D01*
X200296657Y-152177415D01*
X200650624Y-152379830D01*
X201080500Y-152508284D01*
X201624977Y-152577165D01*
X201873342Y-152590851D01*
X202758385Y-152626908D01*
X202802585Y-138309048D01*
X209195782Y-138309048D01*
X209238980Y-145436599D01*
G37*
G36*
X210210056Y-124176302D02*
G01*
X211198542Y-124177482D01*
X212070123Y-124179438D01*
X212832784Y-124182257D01*
X213494507Y-124186026D01*
X214063277Y-124190834D01*
X214547077Y-124196768D01*
X214953890Y-124203912D01*
X215291702Y-124212358D01*
X215568491Y-124222190D01*
X215792246Y-124233498D01*
X215970948Y-124246368D01*
X216112582Y-124260887D01*
X216225131Y-124277143D01*
X216316577Y-124295224D01*
X216394905Y-124315216D01*
X216468099Y-124337207D01*
X216496122Y-124346073D01*
X217222749Y-124644639D01*
X217903057Y-125052505D01*
X218481539Y-125535136D01*
X218590913Y-125649323D01*
X218968045Y-126089248D01*
X219247486Y-126493332D01*
X219469886Y-126929255D01*
X219668445Y-127443331D01*
X219903206Y-128114490D01*
X219918190Y-131743061D01*
X219920481Y-132527031D01*
X219920823Y-133264079D01*
X219919340Y-133934769D01*
X219916154Y-134519658D01*
X219911390Y-134999311D01*
X219905171Y-135354291D01*
X219897621Y-135565157D01*
X219893603Y-135609218D01*
X219854033Y-135846804D01*
X212541911Y-135846804D01*
X212504221Y-134399694D01*
X212483740Y-133788203D01*
X212453417Y-133318712D01*
X212405813Y-132960450D01*
X212333486Y-132682645D01*
X212228995Y-132454525D01*
X212084898Y-132245316D01*
X211942874Y-132078426D01*
X211834432Y-131955984D01*
X211736533Y-131851617D01*
X211635162Y-131763816D01*
X211516300Y-131691073D01*
X211365929Y-131631880D01*
X211170034Y-131584728D01*
X210914595Y-131548108D01*
X210585596Y-131520513D01*
X210169018Y-131500435D01*
X209650846Y-131486364D01*
X209017060Y-131476793D01*
X208253644Y-131470214D01*
X207346581Y-131465117D01*
X206281852Y-131459995D01*
X206191343Y-131459549D01*
X205000901Y-131455321D01*
X203953913Y-131455105D01*
X203054856Y-131458845D01*
X202308208Y-131466488D01*
X201718446Y-131477978D01*
X201290046Y-131493257D01*
X201027486Y-131512274D01*
X200955923Y-131524161D01*
X200436923Y-131748866D01*
X200006766Y-132120687D01*
X199781464Y-132429048D01*
X199686050Y-132588193D01*
X199616323Y-132730840D01*
X199567270Y-132888193D01*
X199533879Y-133091456D01*
X199511136Y-133371832D01*
X199494030Y-133760526D01*
X199477548Y-134288740D01*
X199476395Y-134328099D01*
X199433197Y-135803606D01*
X192089660Y-135803606D01*
X192046463Y-133643742D01*
X192003265Y-131483878D01*
X190534558Y-131494309D01*
X189981275Y-131500222D01*
X189563176Y-131511797D01*
X189242660Y-131533279D01*
X188982127Y-131568915D01*
X188743977Y-131622951D01*
X188490610Y-131699635D01*
X188374694Y-131738237D01*
X187608073Y-132082695D01*
X186914174Y-132563394D01*
X186318655Y-133156497D01*
X185847173Y-133838163D01*
X185631519Y-134287086D01*
X185437279Y-134766871D01*
X185394082Y-144270273D01*
X185350884Y-153773674D01*
X185153287Y-154320440D01*
X184814394Y-155067633D01*
X184380404Y-155677970D01*
X183835543Y-156166769D01*
X183164038Y-156549350D01*
X182653780Y-156747789D01*
X181939440Y-156899201D01*
X181218127Y-156891532D01*
X180513151Y-156735819D01*
X179847828Y-156443094D01*
X179245468Y-156024393D01*
X178729384Y-155490749D01*
X178322890Y-154853198D01*
X178230409Y-154654125D01*
X178176794Y-154525760D01*
X178128728Y-154397791D01*
X178085942Y-154260630D01*
X178048166Y-154104690D01*
X178015131Y-153920385D01*
X177986569Y-153698128D01*
X177962212Y-153428332D01*
X177941788Y-153101411D01*
X177925029Y-152707776D01*
X177911669Y-152237841D01*
X177901436Y-151682023D01*
X177894062Y-151030730D01*
X177889279Y-150274377D01*
X177886817Y-149403377D01*
X177886407Y-148408144D01*
X177887782Y-147279091D01*
X177890670Y-146006631D01*
X177894805Y-144581176D01*
X177899915Y-142993141D01*
X177900273Y-142884583D01*
X177934181Y-132607007D01*
X178154125Y-131613469D01*
X178434760Y-130562892D01*
X178792698Y-129630866D01*
X179248990Y-128772565D01*
X179824688Y-127943163D01*
X179955837Y-127777020D01*
X180767811Y-126876241D01*
X181655698Y-126090753D01*
X182597867Y-125436238D01*
X183572689Y-124928378D01*
X184227755Y-124679758D01*
X184587275Y-124567048D01*
X184887015Y-124483970D01*
X185179486Y-124419602D01*
X185517200Y-124363017D01*
X185952668Y-124303293D01*
X186171634Y-124275366D01*
X186336583Y-124265440D01*
X186666903Y-124255822D01*
X187155176Y-124246556D01*
X187793982Y-124237691D01*
X188575903Y-124229270D01*
X189493520Y-124221341D01*
X190539417Y-124213951D01*
X191706171Y-124207144D01*
X192986367Y-124200968D01*
X194372586Y-124195469D01*
X195857409Y-124190692D01*
X197433418Y-124186684D01*
X199093194Y-124183492D01*
X200829318Y-124181161D01*
X201377075Y-124180625D01*
X203234640Y-124178984D01*
X204927400Y-124177595D01*
X206463338Y-124176545D01*
X207850438Y-124175921D01*
X209096683Y-124175811D01*
X210210056Y-124176302D01*
G37*
%TD*%
%LPC*%
D14*
%TO.C,J1*%
X137340000Y-148990000D03*
X137340000Y-135490000D03*
D15*
X143340000Y-145840000D03*
D16*
X143340000Y-138640000D03*
%TD*%
D17*
%TO.C,J4*%
X137204896Y-111466755D03*
X148204896Y-111466755D03*
D18*
X145204896Y-121466755D03*
D19*
X140204896Y-121466755D03*
%TD*%
D17*
%TO.C,J16*%
X259124895Y-111466754D03*
X270124895Y-111466754D03*
D18*
X267124895Y-121466754D03*
D19*
X262124895Y-121466754D03*
%TD*%
D17*
%TO.C,J15*%
X270072224Y-172580160D03*
X259072224Y-172580160D03*
D18*
X262072224Y-162580160D03*
D19*
X267072224Y-162580160D03*
%TD*%
D17*
%TO.C,J14*%
X238804896Y-111466755D03*
X249804896Y-111466755D03*
D18*
X246804896Y-121466755D03*
D19*
X241804896Y-121466755D03*
%TD*%
D17*
%TO.C,J13*%
X249752224Y-172580160D03*
X238752224Y-172580160D03*
D18*
X241752224Y-162580160D03*
D19*
X246752224Y-162580160D03*
%TD*%
D17*
%TO.C,J12*%
X218484895Y-111466755D03*
X229484895Y-111466755D03*
D18*
X226484895Y-121466755D03*
D19*
X221484895Y-121466755D03*
%TD*%
D17*
%TO.C,J11*%
X229432225Y-172580159D03*
X218432225Y-172580159D03*
D18*
X221432225Y-162580159D03*
D19*
X226432225Y-162580159D03*
%TD*%
D17*
%TO.C,J10*%
X198164896Y-111466754D03*
X209164896Y-111466754D03*
D18*
X206164896Y-121466754D03*
D19*
X201164896Y-121466754D03*
%TD*%
D17*
%TO.C,J9*%
X209112224Y-172580159D03*
X198112224Y-172580159D03*
D18*
X201112224Y-162580159D03*
D19*
X206112224Y-162580159D03*
%TD*%
D17*
%TO.C,J8*%
X177844895Y-111466754D03*
X188844895Y-111466754D03*
D18*
X185844895Y-121466754D03*
D19*
X180844895Y-121466754D03*
%TD*%
D17*
%TO.C,J7*%
X188792225Y-172580160D03*
X177792225Y-172580160D03*
D18*
X180792225Y-162580160D03*
D19*
X185792225Y-162580160D03*
%TD*%
D17*
%TO.C,J6*%
X157524896Y-111466755D03*
X168524896Y-111466755D03*
D18*
X165524896Y-121466755D03*
D19*
X160524896Y-121466755D03*
%TD*%
D17*
%TO.C,J5*%
X168472224Y-172580160D03*
X157472224Y-172580160D03*
D18*
X160472224Y-162580160D03*
D19*
X165472224Y-162580160D03*
%TD*%
D17*
%TO.C,J3*%
X148152225Y-172580159D03*
X137152225Y-172580159D03*
D18*
X140152225Y-162580159D03*
D19*
X145152225Y-162580159D03*
%TD*%
D17*
%TO.C,J2*%
X269755000Y-136740000D03*
X269755000Y-147740000D03*
D18*
X259755000Y-144740000D03*
D19*
X259755000Y-139740000D03*
%TD*%
D20*
%TO.C,H2*%
X255270000Y-129540000D03*
%TD*%
%TO.C,H4*%
X255270000Y-154940000D03*
%TD*%
%TO.C,H1*%
X153670000Y-129540000D03*
%TD*%
%TO.C,H3*%
X153670000Y-154940000D03*
%TD*%
%LPD*%
M02*
