M48
; DRILL file {KiCad 8.0.2-1} date 2024-09-06T21:09:21+1000
; FORMAT={-:-/ absolute / inch / decimal}
; #@! TF.CreationDate,2024-09-06T21:09:21+10:00
; #@! TF.GenerationSoftware,Kicad,Pcbnew,8.0.2-1
; #@! TF.FileFunction,Plated,1,2,PTH
FMAT,2
INCH
; #@! TA.AperFunction,Plated,PTH,ComponentDrill
T1C0.0236
; #@! TA.AperFunction,Plated,PTH,ComponentDrill
T2C0.0394
; #@! TA.AperFunction,Plated,PTH,ComponentDrill
T3C0.0748
; #@! TA.AperFunction,Plated,PTH,ComponentDrill
T4C0.1063
; #@! TA.AperFunction,Plated,PTH,ComponentDrill
T5C0.1260
%
G90
G05
T2
X5.3997Y-6.7945
X5.4018Y-4.3885
X5.8328Y-6.7945
X5.8348Y-4.3885
X6.1997Y-6.7945
X6.2018Y-4.3885
X6.6328Y-6.7945
X6.6348Y-4.3885
X6.9997Y-6.7945
X7.0018Y-4.3885
X7.4328Y-6.7945
X7.4348Y-4.3885
X7.7997Y-6.7945
X7.8018Y-4.3885
X8.2328Y-6.7945
X8.2348Y-4.3885
X8.5997Y-6.7945
X8.6018Y-4.3885
X9.0328Y-6.7945
X9.0348Y-4.3885
X9.3997Y-6.7945
X9.4018Y-4.3885
X9.8328Y-6.7945
X9.8348Y-4.3885
X10.1997Y-6.7945
X10.2018Y-4.3885
X10.6203Y-5.3835
X10.6203Y-5.8165
X10.6328Y-6.7945
X10.6348Y-4.3885
T3
X5.5178Y-6.4008
X5.5199Y-4.7822
X5.7147Y-6.4008
X5.7167Y-4.7822
X6.3178Y-6.4008
X6.3199Y-4.7822
X6.5147Y-6.4008
X6.5167Y-4.7822
X7.1178Y-6.4008
X7.1199Y-4.7822
X7.3147Y-6.4008
X7.3167Y-4.7822
X7.9178Y-6.4008
X7.9199Y-4.7822
X8.1147Y-6.4008
X8.1167Y-4.7822
X8.7178Y-6.4008
X8.7199Y-4.7822
X8.9147Y-6.4008
X8.9167Y-4.7822
X9.5178Y-6.4008
X9.5199Y-4.7822
X9.7147Y-6.4008
X9.7167Y-4.7822
X10.2266Y-5.5016
X10.2266Y-5.6984
X10.3178Y-6.4008
X10.3199Y-4.7822
X10.5147Y-6.4008
X10.5167Y-4.7822
T4
X5.6433Y-5.4583
X5.6433Y-5.7417
T5
X6.05Y-5.1
X6.05Y-6.1
X10.05Y-5.1
X10.05Y-6.1
T1
G00X5.3854Y-5.3343
M15
G01X5.4287Y-5.3343
M16
G05
G00X5.3854Y-5.8657
M15
G01X5.4287Y-5.8657
M16
G05
M30
